%TF.GenerationSoftware,KiCad,Pcbnew,(5.1.9)-1*%
%TF.CreationDate,2021-07-15T22:57:35+09:00*%
%TF.ProjectId,4710MQ Power Supply,34373130-4d51-4205-906f-776572205375,rev?*%
%TF.SameCoordinates,Original*%
%TF.FileFunction,Soldermask,Top*%
%TF.FilePolarity,Negative*%
%FSLAX46Y46*%
G04 Gerber Fmt 4.6, Leading zero omitted, Abs format (unit mm)*
G04 Created by KiCad (PCBNEW (5.1.9)-1) date 2021-07-15 22:57:35*
%MOMM*%
%LPD*%
G01*
G04 APERTURE LIST*
%ADD10O,2.000000X5.000000*%
%ADD11R,1.061999X0.254800*%
%ADD12O,1.800000X3.600000*%
%ADD13O,2.700000X3.300000*%
G04 APERTURE END LIST*
D10*
%TO.C,J1*%
X127600000Y-99100000D03*
X124400000Y-102600000D03*
X134900000Y-100600000D03*
%TD*%
D11*
%TO.C,U1*%
X144223100Y-91199999D03*
X144223100Y-91700001D03*
X144223100Y-92200000D03*
X144223100Y-92699999D03*
X144223100Y-93200001D03*
X142576900Y-93200001D03*
X142576900Y-92699999D03*
X142576900Y-92200000D03*
X142576900Y-91700001D03*
X142576900Y-91199999D03*
%TD*%
%TO.C,R1*%
G36*
G01*
X140487500Y-93275000D02*
X140012500Y-93275000D01*
G75*
G02*
X139775000Y-93037500I0J237500D01*
G01*
X139775000Y-92537500D01*
G75*
G02*
X140012500Y-92300000I237500J0D01*
G01*
X140487500Y-92300000D01*
G75*
G02*
X140725000Y-92537500I0J-237500D01*
G01*
X140725000Y-93037500D01*
G75*
G02*
X140487500Y-93275000I-237500J0D01*
G01*
G37*
G36*
G01*
X140487500Y-95100000D02*
X140012500Y-95100000D01*
G75*
G02*
X139775000Y-94862500I0J237500D01*
G01*
X139775000Y-94362500D01*
G75*
G02*
X140012500Y-94125000I237500J0D01*
G01*
X140487500Y-94125000D01*
G75*
G02*
X140725000Y-94362500I0J-237500D01*
G01*
X140725000Y-94862500D01*
G75*
G02*
X140487500Y-95100000I-237500J0D01*
G01*
G37*
%TD*%
%TO.C,R2*%
G36*
G01*
X139562500Y-90225000D02*
X140037500Y-90225000D01*
G75*
G02*
X140275000Y-90462500I0J-237500D01*
G01*
X140275000Y-90962500D01*
G75*
G02*
X140037500Y-91200000I-237500J0D01*
G01*
X139562500Y-91200000D01*
G75*
G02*
X139325000Y-90962500I0J237500D01*
G01*
X139325000Y-90462500D01*
G75*
G02*
X139562500Y-90225000I237500J0D01*
G01*
G37*
G36*
G01*
X139562500Y-88400000D02*
X140037500Y-88400000D01*
G75*
G02*
X140275000Y-88637500I0J-237500D01*
G01*
X140275000Y-89137500D01*
G75*
G02*
X140037500Y-89375000I-237500J0D01*
G01*
X139562500Y-89375000D01*
G75*
G02*
X139325000Y-89137500I0J237500D01*
G01*
X139325000Y-88637500D01*
G75*
G02*
X139562500Y-88400000I237500J0D01*
G01*
G37*
%TD*%
%TO.C,R5*%
G36*
G01*
X136575000Y-84462500D02*
X136575000Y-84937500D01*
G75*
G02*
X136337500Y-85175000I-237500J0D01*
G01*
X135837500Y-85175000D01*
G75*
G02*
X135600000Y-84937500I0J237500D01*
G01*
X135600000Y-84462500D01*
G75*
G02*
X135837500Y-84225000I237500J0D01*
G01*
X136337500Y-84225000D01*
G75*
G02*
X136575000Y-84462500I0J-237500D01*
G01*
G37*
G36*
G01*
X138400000Y-84462500D02*
X138400000Y-84937500D01*
G75*
G02*
X138162500Y-85175000I-237500J0D01*
G01*
X137662500Y-85175000D01*
G75*
G02*
X137425000Y-84937500I0J237500D01*
G01*
X137425000Y-84462500D01*
G75*
G02*
X137662500Y-84225000I237500J0D01*
G01*
X138162500Y-84225000D01*
G75*
G02*
X138400000Y-84462500I0J-237500D01*
G01*
G37*
%TD*%
%TO.C,R3*%
G36*
G01*
X141837500Y-86475000D02*
X141362500Y-86475000D01*
G75*
G02*
X141125000Y-86237500I0J237500D01*
G01*
X141125000Y-85737500D01*
G75*
G02*
X141362500Y-85500000I237500J0D01*
G01*
X141837500Y-85500000D01*
G75*
G02*
X142075000Y-85737500I0J-237500D01*
G01*
X142075000Y-86237500D01*
G75*
G02*
X141837500Y-86475000I-237500J0D01*
G01*
G37*
G36*
G01*
X141837500Y-88300000D02*
X141362500Y-88300000D01*
G75*
G02*
X141125000Y-88062500I0J237500D01*
G01*
X141125000Y-87562500D01*
G75*
G02*
X141362500Y-87325000I237500J0D01*
G01*
X141837500Y-87325000D01*
G75*
G02*
X142075000Y-87562500I0J-237500D01*
G01*
X142075000Y-88062500D01*
G75*
G02*
X141837500Y-88300000I-237500J0D01*
G01*
G37*
%TD*%
%TO.C,R4*%
G36*
G01*
X139562500Y-86025000D02*
X140037500Y-86025000D01*
G75*
G02*
X140275000Y-86262500I0J-237500D01*
G01*
X140275000Y-86762500D01*
G75*
G02*
X140037500Y-87000000I-237500J0D01*
G01*
X139562500Y-87000000D01*
G75*
G02*
X139325000Y-86762500I0J237500D01*
G01*
X139325000Y-86262500D01*
G75*
G02*
X139562500Y-86025000I237500J0D01*
G01*
G37*
G36*
G01*
X139562500Y-84200000D02*
X140037500Y-84200000D01*
G75*
G02*
X140275000Y-84437500I0J-237500D01*
G01*
X140275000Y-84937500D01*
G75*
G02*
X140037500Y-85175000I-237500J0D01*
G01*
X139562500Y-85175000D01*
G75*
G02*
X139325000Y-84937500I0J237500D01*
G01*
X139325000Y-84437500D01*
G75*
G02*
X139562500Y-84200000I237500J0D01*
G01*
G37*
%TD*%
%TO.C,L1*%
G36*
G01*
X153650000Y-105150000D02*
X153650000Y-103250000D01*
G75*
G02*
X154300000Y-102600000I650000J0D01*
G01*
X155600000Y-102600000D01*
G75*
G02*
X156250000Y-103250000I0J-650000D01*
G01*
X156250000Y-105150000D01*
G75*
G02*
X155600000Y-105800000I-650000J0D01*
G01*
X154300000Y-105800000D01*
G75*
G02*
X153650000Y-105150000I0J650000D01*
G01*
G37*
G36*
G01*
X142550000Y-105150000D02*
X142550000Y-103250000D01*
G75*
G02*
X143200000Y-102600000I650000J0D01*
G01*
X144500000Y-102600000D01*
G75*
G02*
X145150000Y-103250000I0J-650000D01*
G01*
X145150000Y-105150000D01*
G75*
G02*
X144500000Y-105800000I-650000J0D01*
G01*
X143200000Y-105800000D01*
G75*
G02*
X142550000Y-105150000I0J650000D01*
G01*
G37*
%TD*%
D12*
%TO.C,J3*%
X132360000Y-123900000D03*
X137440000Y-123900000D03*
X142520000Y-123900000D03*
G36*
G01*
X148500000Y-122350000D02*
X148500000Y-125450000D01*
G75*
G02*
X148250000Y-125700000I-250000J0D01*
G01*
X146950000Y-125700000D01*
G75*
G02*
X146700000Y-125450000I0J250000D01*
G01*
X146700000Y-122350000D01*
G75*
G02*
X146950000Y-122100000I250000J0D01*
G01*
X148250000Y-122100000D01*
G75*
G02*
X148500000Y-122350000I0J-250000D01*
G01*
G37*
%TD*%
D13*
%TO.C,J2*%
X129600000Y-115700000D03*
X125400000Y-115700000D03*
X129600000Y-110200000D03*
G36*
G01*
X124050000Y-111599999D02*
X124050000Y-108800001D01*
G75*
G02*
X124300001Y-108550000I250001J0D01*
G01*
X126499999Y-108550000D01*
G75*
G02*
X126750000Y-108800001I0J-250001D01*
G01*
X126750000Y-111599999D01*
G75*
G02*
X126499999Y-111850000I-250001J0D01*
G01*
X124300001Y-111850000D01*
G75*
G02*
X124050000Y-111599999I0J250001D01*
G01*
G37*
%TD*%
%TO.C,C5*%
G36*
G01*
X136350000Y-91225000D02*
X136350000Y-92175000D01*
G75*
G02*
X136100000Y-92425000I-250000J0D01*
G01*
X135425000Y-92425000D01*
G75*
G02*
X135175000Y-92175000I0J250000D01*
G01*
X135175000Y-91225000D01*
G75*
G02*
X135425000Y-90975000I250000J0D01*
G01*
X136100000Y-90975000D01*
G75*
G02*
X136350000Y-91225000I0J-250000D01*
G01*
G37*
G36*
G01*
X138425000Y-91225000D02*
X138425000Y-92175000D01*
G75*
G02*
X138175000Y-92425000I-250000J0D01*
G01*
X137500000Y-92425000D01*
G75*
G02*
X137250000Y-92175000I0J250000D01*
G01*
X137250000Y-91225000D01*
G75*
G02*
X137500000Y-90975000I250000J0D01*
G01*
X138175000Y-90975000D01*
G75*
G02*
X138425000Y-91225000I0J-250000D01*
G01*
G37*
%TD*%
%TO.C,C3*%
G36*
G01*
X144175000Y-86450000D02*
X143225000Y-86450000D01*
G75*
G02*
X142975000Y-86200000I0J250000D01*
G01*
X142975000Y-85525000D01*
G75*
G02*
X143225000Y-85275000I250000J0D01*
G01*
X144175000Y-85275000D01*
G75*
G02*
X144425000Y-85525000I0J-250000D01*
G01*
X144425000Y-86200000D01*
G75*
G02*
X144175000Y-86450000I-250000J0D01*
G01*
G37*
G36*
G01*
X144175000Y-88525000D02*
X143225000Y-88525000D01*
G75*
G02*
X142975000Y-88275000I0J250000D01*
G01*
X142975000Y-87600000D01*
G75*
G02*
X143225000Y-87350000I250000J0D01*
G01*
X144175000Y-87350000D01*
G75*
G02*
X144425000Y-87600000I0J-250000D01*
G01*
X144425000Y-88275000D01*
G75*
G02*
X144175000Y-88525000I-250000J0D01*
G01*
G37*
%TD*%
%TO.C,C2*%
G36*
G01*
X153249998Y-94100000D02*
X154550002Y-94100000D01*
G75*
G02*
X154800000Y-94349998I0J-249998D01*
G01*
X154800000Y-95175002D01*
G75*
G02*
X154550002Y-95425000I-249998J0D01*
G01*
X153249998Y-95425000D01*
G75*
G02*
X153000000Y-95175002I0J249998D01*
G01*
X153000000Y-94349998D01*
G75*
G02*
X153249998Y-94100000I249998J0D01*
G01*
G37*
G36*
G01*
X153249998Y-90975000D02*
X154550002Y-90975000D01*
G75*
G02*
X154800000Y-91224998I0J-249998D01*
G01*
X154800000Y-92050002D01*
G75*
G02*
X154550002Y-92300000I-249998J0D01*
G01*
X153249998Y-92300000D01*
G75*
G02*
X153000000Y-92050002I0J249998D01*
G01*
X153000000Y-91224998D01*
G75*
G02*
X153249998Y-90975000I249998J0D01*
G01*
G37*
%TD*%
%TO.C,C9*%
G36*
G01*
X148500000Y-112549998D02*
X148500000Y-113850002D01*
G75*
G02*
X148250002Y-114100000I-249998J0D01*
G01*
X147424998Y-114100000D01*
G75*
G02*
X147175000Y-113850002I0J249998D01*
G01*
X147175000Y-112549998D01*
G75*
G02*
X147424998Y-112300000I249998J0D01*
G01*
X148250002Y-112300000D01*
G75*
G02*
X148500000Y-112549998I0J-249998D01*
G01*
G37*
G36*
G01*
X151625000Y-112549998D02*
X151625000Y-113850002D01*
G75*
G02*
X151375002Y-114100000I-249998J0D01*
G01*
X150549998Y-114100000D01*
G75*
G02*
X150300000Y-113850002I0J249998D01*
G01*
X150300000Y-112549998D01*
G75*
G02*
X150549998Y-112300000I249998J0D01*
G01*
X151375002Y-112300000D01*
G75*
G02*
X151625000Y-112549998I0J-249998D01*
G01*
G37*
%TD*%
%TO.C,C8*%
G36*
G01*
X137250000Y-87275000D02*
X137250000Y-86325000D01*
G75*
G02*
X137500000Y-86075000I250000J0D01*
G01*
X138175000Y-86075000D01*
G75*
G02*
X138425000Y-86325000I0J-250000D01*
G01*
X138425000Y-87275000D01*
G75*
G02*
X138175000Y-87525000I-250000J0D01*
G01*
X137500000Y-87525000D01*
G75*
G02*
X137250000Y-87275000I0J250000D01*
G01*
G37*
G36*
G01*
X135175000Y-87275000D02*
X135175000Y-86325000D01*
G75*
G02*
X135425000Y-86075000I250000J0D01*
G01*
X136100000Y-86075000D01*
G75*
G02*
X136350000Y-86325000I0J-250000D01*
G01*
X136350000Y-87275000D01*
G75*
G02*
X136100000Y-87525000I-250000J0D01*
G01*
X135425000Y-87525000D01*
G75*
G02*
X135175000Y-87275000I0J250000D01*
G01*
G37*
%TD*%
%TO.C,C6*%
G36*
G01*
X141850000Y-97175000D02*
X141850000Y-96225000D01*
G75*
G02*
X142100000Y-95975000I250000J0D01*
G01*
X142775000Y-95975000D01*
G75*
G02*
X143025000Y-96225000I0J-250000D01*
G01*
X143025000Y-97175000D01*
G75*
G02*
X142775000Y-97425000I-250000J0D01*
G01*
X142100000Y-97425000D01*
G75*
G02*
X141850000Y-97175000I0J250000D01*
G01*
G37*
G36*
G01*
X139775000Y-97175000D02*
X139775000Y-96225000D01*
G75*
G02*
X140025000Y-95975000I250000J0D01*
G01*
X140700000Y-95975000D01*
G75*
G02*
X140950000Y-96225000I0J-250000D01*
G01*
X140950000Y-97175000D01*
G75*
G02*
X140700000Y-97425000I-250000J0D01*
G01*
X140025000Y-97425000D01*
G75*
G02*
X139775000Y-97175000I0J250000D01*
G01*
G37*
%TD*%
%TO.C,C10*%
G36*
G01*
X148950000Y-117725000D02*
X148950000Y-118675000D01*
G75*
G02*
X148700000Y-118925000I-250000J0D01*
G01*
X148025000Y-118925000D01*
G75*
G02*
X147775000Y-118675000I0J250000D01*
G01*
X147775000Y-117725000D01*
G75*
G02*
X148025000Y-117475000I250000J0D01*
G01*
X148700000Y-117475000D01*
G75*
G02*
X148950000Y-117725000I0J-250000D01*
G01*
G37*
G36*
G01*
X151025000Y-117725000D02*
X151025000Y-118675000D01*
G75*
G02*
X150775000Y-118925000I-250000J0D01*
G01*
X150100000Y-118925000D01*
G75*
G02*
X149850000Y-118675000I0J250000D01*
G01*
X149850000Y-117725000D01*
G75*
G02*
X150100000Y-117475000I250000J0D01*
G01*
X150775000Y-117475000D01*
G75*
G02*
X151025000Y-117725000I0J-250000D01*
G01*
G37*
%TD*%
%TO.C,C7*%
G36*
G01*
X148500000Y-115049998D02*
X148500000Y-116350002D01*
G75*
G02*
X148250002Y-116600000I-249998J0D01*
G01*
X147424998Y-116600000D01*
G75*
G02*
X147175000Y-116350002I0J249998D01*
G01*
X147175000Y-115049998D01*
G75*
G02*
X147424998Y-114800000I249998J0D01*
G01*
X148250002Y-114800000D01*
G75*
G02*
X148500000Y-115049998I0J-249998D01*
G01*
G37*
G36*
G01*
X151625000Y-115049998D02*
X151625000Y-116350002D01*
G75*
G02*
X151375002Y-116600000I-249998J0D01*
G01*
X150549998Y-116600000D01*
G75*
G02*
X150300000Y-116350002I0J249998D01*
G01*
X150300000Y-115049998D01*
G75*
G02*
X150549998Y-114800000I249998J0D01*
G01*
X151375002Y-114800000D01*
G75*
G02*
X151625000Y-115049998I0J-249998D01*
G01*
G37*
%TD*%
%TO.C,C4*%
G36*
G01*
X155925000Y-93650000D02*
X156875000Y-93650000D01*
G75*
G02*
X157125000Y-93900000I0J-250000D01*
G01*
X157125000Y-94575000D01*
G75*
G02*
X156875000Y-94825000I-250000J0D01*
G01*
X155925000Y-94825000D01*
G75*
G02*
X155675000Y-94575000I0J250000D01*
G01*
X155675000Y-93900000D01*
G75*
G02*
X155925000Y-93650000I250000J0D01*
G01*
G37*
G36*
G01*
X155925000Y-91575000D02*
X156875000Y-91575000D01*
G75*
G02*
X157125000Y-91825000I0J-250000D01*
G01*
X157125000Y-92500000D01*
G75*
G02*
X156875000Y-92750000I-250000J0D01*
G01*
X155925000Y-92750000D01*
G75*
G02*
X155675000Y-92500000I0J250000D01*
G01*
X155675000Y-91825000D01*
G75*
G02*
X155925000Y-91575000I250000J0D01*
G01*
G37*
%TD*%
%TO.C,C1*%
G36*
G01*
X150249998Y-94100000D02*
X151550002Y-94100000D01*
G75*
G02*
X151800000Y-94349998I0J-249998D01*
G01*
X151800000Y-95175002D01*
G75*
G02*
X151550002Y-95425000I-249998J0D01*
G01*
X150249998Y-95425000D01*
G75*
G02*
X150000000Y-95175002I0J249998D01*
G01*
X150000000Y-94349998D01*
G75*
G02*
X150249998Y-94100000I249998J0D01*
G01*
G37*
G36*
G01*
X150249998Y-90975000D02*
X151550002Y-90975000D01*
G75*
G02*
X151800000Y-91224998I0J-249998D01*
G01*
X151800000Y-92050002D01*
G75*
G02*
X151550002Y-92300000I-249998J0D01*
G01*
X150249998Y-92300000D01*
G75*
G02*
X150000000Y-92050002I0J249998D01*
G01*
X150000000Y-91224998D01*
G75*
G02*
X150249998Y-90975000I249998J0D01*
G01*
G37*
%TD*%
M02*
