M48
; DRILL file {KiCad (5.1.9)-1} date 07/15/21 22:57:39
; FORMAT={-:-/ absolute / metric / decimal}
; #@! TF.CreationDate,2021-07-15T22:57:39+09:00
; #@! TF.GenerationSoftware,Kicad,Pcbnew,(5.1.9)-1
; #@! TF.FileFunction,Plated,1,2,PTH
FMAT,2
METRIC
T1C0.400
T2C0.800
T3C1.200
T4C1.400
%
G90
G05
T1
X122.0Y-86.0
X122.0Y-87.0
X122.0Y-88.0
X122.0Y-89.0
X122.0Y-90.0
X122.0Y-91.0
X122.0Y-92.0
X123.0Y-86.0
X123.0Y-87.0
X123.0Y-88.0
X123.0Y-89.0
X123.0Y-90.0
X123.0Y-91.0
X123.0Y-92.0
X124.0Y-86.0
X124.0Y-87.0
X124.0Y-88.0
X124.0Y-89.0
X124.0Y-90.0
X124.0Y-91.0
X124.0Y-92.0
X125.0Y-86.0
X125.0Y-87.0
X125.0Y-88.0
X125.0Y-89.0
X125.0Y-90.0
X125.0Y-91.0
X125.0Y-92.0
X126.0Y-86.0
X126.0Y-87.0
X126.0Y-88.0
X126.0Y-89.0
X126.0Y-90.0
X126.0Y-91.0
X126.0Y-92.0
X141.4Y-84.7
X145.5Y-98.5
X145.5Y-99.5
X145.5Y-100.5
X145.5Y-101.5
X146.1Y-87.8
X146.1Y-88.7
X146.1Y-89.6
X146.1Y-90.5
X146.2Y-92.8
X146.2Y-93.7
X146.2Y-94.6
X146.5Y-98.5
X146.5Y-99.5
X146.5Y-100.5
X146.5Y-101.5
X147.0Y-87.8
X147.0Y-88.7
X147.0Y-89.6
X147.0Y-90.5
X147.1Y-92.8
X147.1Y-93.7
X147.1Y-94.6
X147.5Y-98.5
X147.5Y-99.5
X147.5Y-100.5
X147.5Y-101.5
X147.9Y-87.8
X147.9Y-88.7
X147.9Y-89.6
X147.9Y-90.5
X148.0Y-92.8
X148.0Y-93.7
X148.0Y-94.6
X148.5Y-98.5
X148.5Y-99.5
X148.5Y-100.5
X148.5Y-101.5
X148.8Y-87.8
X148.8Y-88.7
X148.8Y-89.6
X148.8Y-90.5
X155.0Y-107.2
T3
X132.36Y-123.9
X137.44Y-123.9
X142.52Y-123.9
X147.6Y-123.9
T4
X125.4Y-110.2
X125.4Y-115.7
X129.6Y-110.2
X129.6Y-115.7
T2
G00X124.4Y-103.95
M15
G01X124.4Y-101.25
M16
G05
G00X127.6Y-100.45
M15
G01X127.6Y-97.75
M16
G05
G00X134.9Y-101.95
M15
G01X134.9Y-99.25
M16
G05
T0
M30
