%TF.GenerationSoftware,KiCad,Pcbnew,(5.1.9)-1*%
%TF.CreationDate,2021-07-15T17:24:24+09:00*%
%TF.ProjectId,4710MQ Power Supply,34373130-4d51-4205-906f-776572205375,rev?*%
%TF.SameCoordinates,Original*%
%TF.FileFunction,Copper,L2,Bot*%
%TF.FilePolarity,Positive*%
%FSLAX46Y46*%
G04 Gerber Fmt 4.6, Leading zero omitted, Abs format (unit mm)*
G04 Created by KiCad (PCBNEW (5.1.9)-1) date 2021-07-15 17:24:24*
%MOMM*%
%LPD*%
G01*
G04 APERTURE LIST*
%TA.AperFunction,ComponentPad*%
%ADD10O,2.000000X5.000000*%
%TD*%
%TA.AperFunction,ComponentPad*%
%ADD11O,1.800000X3.600000*%
%TD*%
%TA.AperFunction,ComponentPad*%
%ADD12O,2.700000X3.300000*%
%TD*%
%TA.AperFunction,ViaPad*%
%ADD13C,0.800000*%
%TD*%
%TA.AperFunction,Conductor*%
%ADD14C,1.000000*%
%TD*%
%TA.AperFunction,Conductor*%
%ADD15C,0.200000*%
%TD*%
%TA.AperFunction,Conductor*%
%ADD16C,0.100000*%
%TD*%
G04 APERTURE END LIST*
D10*
%TO.P,J1,3*%
%TO.N,N/C*%
X130200000Y-104100000D03*
%TO.P,J1,2*%
%TO.N,GND*%
X127000000Y-107600000D03*
%TO.P,J1,1*%
%TO.N,+12V*%
X137500000Y-105600000D03*
%TD*%
D11*
%TO.P,J3,4*%
%TO.N,+12V*%
X134960000Y-128900000D03*
%TO.P,J3,3*%
%TO.N,GND*%
X140040000Y-128900000D03*
%TO.P,J3,2*%
X145120000Y-128900000D03*
%TO.P,J3,1*%
%TO.N,+5V*%
%TA.AperFunction,ComponentPad*%
G36*
G01*
X151100000Y-127350000D02*
X151100000Y-130450000D01*
G75*
G02*
X150850000Y-130700000I-250000J0D01*
G01*
X149550000Y-130700000D01*
G75*
G02*
X149300000Y-130450000I0J250000D01*
G01*
X149300000Y-127350000D01*
G75*
G02*
X149550000Y-127100000I250000J0D01*
G01*
X150850000Y-127100000D01*
G75*
G02*
X151100000Y-127350000I0J-250000D01*
G01*
G37*
%TD.AperFunction*%
%TD*%
D12*
%TO.P,J2,4*%
%TO.N,+12V*%
X132200000Y-120700000D03*
%TO.P,J2,3*%
X128000000Y-120700000D03*
%TO.P,J2,2*%
%TO.N,GND*%
X132200000Y-115200000D03*
%TO.P,J2,1*%
%TA.AperFunction,ComponentPad*%
G36*
G01*
X126650000Y-116599999D02*
X126650000Y-113800001D01*
G75*
G02*
X126900001Y-113550000I250001J0D01*
G01*
X129099999Y-113550000D01*
G75*
G02*
X129350000Y-113800001I0J-250001D01*
G01*
X129350000Y-116599999D01*
G75*
G02*
X129099999Y-116850000I-250001J0D01*
G01*
X126900001Y-116850000D01*
G75*
G02*
X126650000Y-116599999I0J250001D01*
G01*
G37*
%TD.AperFunction*%
%TD*%
D13*
%TO.N,GND*%
X145000000Y-108500000D03*
X146000000Y-108500000D03*
X147000000Y-108500000D03*
X145000000Y-109500000D03*
X146000000Y-109500000D03*
X147000000Y-109500000D03*
X147000000Y-110500000D03*
X146000000Y-110500000D03*
X145000000Y-110500000D03*
X145000000Y-111500000D03*
X146000000Y-111500000D03*
X147000000Y-111500000D03*
X147000000Y-112500000D03*
X146000000Y-112500000D03*
X145000000Y-112500000D03*
X135000000Y-101500000D03*
X135000000Y-100500000D03*
X135000000Y-99500000D03*
X135000000Y-98500000D03*
X135000000Y-97500000D03*
X134000000Y-97500000D03*
X134000000Y-98500000D03*
X134000000Y-99500000D03*
X134000000Y-100500000D03*
X134000000Y-101500000D03*
X133000000Y-101500000D03*
X133000000Y-100500000D03*
X133000000Y-99500000D03*
X133000000Y-98500000D03*
X133000000Y-97500000D03*
X133000000Y-96500000D03*
X134000000Y-96500000D03*
X135000000Y-96500000D03*
X132000000Y-96500000D03*
X132000000Y-97500000D03*
X132000000Y-98500000D03*
X132000000Y-99500000D03*
X132000000Y-100500000D03*
X132000000Y-101500000D03*
X132000000Y-95500000D03*
X132000000Y-94500000D03*
X133000000Y-94500000D03*
X134000000Y-94500000D03*
X135000000Y-94500000D03*
X135000000Y-95500000D03*
X134000000Y-95500000D03*
X133000000Y-95500000D03*
%TO.N,+12V*%
X150500000Y-85900000D03*
X149600000Y-84900000D03*
X151400000Y-85900000D03*
X150500000Y-84900000D03*
X149600000Y-85900000D03*
X151400000Y-84900000D03*
X155900000Y-85900000D03*
X155000000Y-85900000D03*
X156800000Y-84900000D03*
X156800000Y-85900000D03*
X155000000Y-84900000D03*
X155900000Y-84900000D03*
X153200000Y-85900000D03*
X152300000Y-85900000D03*
X154100000Y-84900000D03*
X154100000Y-85900000D03*
X152300000Y-84900000D03*
X153200000Y-84900000D03*
X158600000Y-84900000D03*
X158600000Y-85900000D03*
X157700000Y-84900000D03*
X157700000Y-85900000D03*
X140000000Y-123600000D03*
X139000000Y-123600000D03*
X138000000Y-123600000D03*
X137000000Y-123600000D03*
X137000000Y-122600000D03*
X137000000Y-121600000D03*
X137000000Y-120600000D03*
X137000000Y-119600000D03*
X137000000Y-118600000D03*
X137000000Y-117600000D03*
X137000000Y-116600000D03*
X137000000Y-115600000D03*
X137000000Y-114600000D03*
X137000000Y-113600000D03*
X138000000Y-113600000D03*
X139000000Y-113600000D03*
X140000000Y-113600000D03*
X140000000Y-114600000D03*
X140000000Y-115600000D03*
X140000000Y-116600000D03*
X140000000Y-117600000D03*
X140000000Y-118600000D03*
X140000000Y-119600000D03*
X140000000Y-120600000D03*
X140000000Y-121600000D03*
X140000000Y-122600000D03*
X139000000Y-122600000D03*
X138000000Y-122600000D03*
X138000000Y-121600000D03*
X138000000Y-120600000D03*
X138000000Y-119600000D03*
X138000000Y-118600000D03*
X138000000Y-117600000D03*
X138000000Y-116600000D03*
X138000000Y-115600000D03*
X138000000Y-114600000D03*
X139000000Y-114600000D03*
X139000000Y-115600000D03*
X139000000Y-116600000D03*
X139000000Y-117600000D03*
X139000000Y-118600000D03*
X139000000Y-119600000D03*
X139000000Y-120600000D03*
X139000000Y-121600000D03*
%TO.N,+5V*%
X144000000Y-80700000D03*
X157600000Y-103200000D03*
%TO.N,/SW*%
X151000000Y-88600000D03*
X151000000Y-89600000D03*
X149000000Y-88600000D03*
X150000000Y-88600000D03*
X150000000Y-89600000D03*
X149000000Y-89600000D03*
X150500000Y-94200000D03*
X149500000Y-94200000D03*
X149500000Y-95200000D03*
X150500000Y-95200000D03*
X150500000Y-96200000D03*
X149500000Y-96200000D03*
X149500000Y-97200000D03*
X150500000Y-97200000D03*
X150500000Y-98200000D03*
X149500000Y-98200000D03*
X149500000Y-99200000D03*
X150500000Y-99200000D03*
X149500000Y-100200000D03*
X150500000Y-100200000D03*
X150500000Y-101200000D03*
X149500000Y-101200000D03*
X149500000Y-102200000D03*
X150500000Y-102200000D03*
X150500000Y-103200000D03*
X149500000Y-103200000D03*
X149500000Y-104200000D03*
X150500000Y-104200000D03*
X150500000Y-105200000D03*
X149500000Y-105200000D03*
%TD*%
D14*
%TO.N,+5V*%
X160600001Y-100199999D02*
X157600000Y-103200000D01*
X160600001Y-84371999D02*
X160600001Y-100199999D01*
X156928002Y-80700000D02*
X160600001Y-84371999D01*
X144000000Y-80700000D02*
X156928002Y-80700000D01*
%TD*%
D15*
%TO.N,/SW*%
X151400000Y-106600000D02*
X144100000Y-106600000D01*
X144100000Y-93300000D01*
X148500000Y-93300000D01*
X148519509Y-93298079D01*
X148538268Y-93292388D01*
X148555557Y-93283147D01*
X148570711Y-93270711D01*
X148583147Y-93255557D01*
X148592388Y-93238268D01*
X148598079Y-93219509D01*
X148600000Y-93200000D01*
X148600000Y-88300000D01*
X151400000Y-88300000D01*
X151400000Y-106600000D01*
%TA.AperFunction,Conductor*%
D16*
G36*
X151400000Y-106600000D02*
G01*
X144100000Y-106600000D01*
X144100000Y-93300000D01*
X148500000Y-93300000D01*
X148519509Y-93298079D01*
X148538268Y-93292388D01*
X148555557Y-93283147D01*
X148570711Y-93270711D01*
X148583147Y-93255557D01*
X148592388Y-93238268D01*
X148598079Y-93219509D01*
X148600000Y-93200000D01*
X148600000Y-88300000D01*
X151400000Y-88300000D01*
X151400000Y-106600000D01*
G37*
%TD.AperFunction*%
%TD*%
D15*
%TO.N,+12V*%
X159200000Y-84941422D02*
X159200000Y-87400000D01*
X147600000Y-87400000D01*
X147580491Y-87401921D01*
X147561732Y-87407612D01*
X147544443Y-87416853D01*
X147529289Y-87429289D01*
X147516853Y-87444443D01*
X147507612Y-87461732D01*
X147501921Y-87480491D01*
X147500000Y-87500000D01*
X147500000Y-92400000D01*
X143000000Y-92400000D01*
X142980491Y-92401921D01*
X142961732Y-92407612D01*
X142944443Y-92416853D01*
X142929289Y-92429289D01*
X142916853Y-92444443D01*
X142907612Y-92461732D01*
X142901921Y-92480491D01*
X142900000Y-92500000D01*
X142900000Y-124598561D01*
X136100000Y-124501418D01*
X136100000Y-105629000D01*
X136142000Y-105629000D01*
X136142000Y-107129000D01*
X136173751Y-107393375D01*
X136256469Y-107646476D01*
X136386975Y-107878576D01*
X136560254Y-108080756D01*
X136769647Y-108245246D01*
X137007107Y-108365725D01*
X137258968Y-108436438D01*
X137471000Y-108368168D01*
X137471000Y-105629000D01*
X137529000Y-105629000D01*
X137529000Y-108368168D01*
X137741032Y-108436438D01*
X137992893Y-108365725D01*
X138230353Y-108245246D01*
X138439746Y-108080756D01*
X138613025Y-107878576D01*
X138743531Y-107646476D01*
X138826249Y-107393375D01*
X138858000Y-107129000D01*
X138858000Y-105629000D01*
X137529000Y-105629000D01*
X137471000Y-105629000D01*
X136142000Y-105629000D01*
X136100000Y-105629000D01*
X136100000Y-104071000D01*
X136142000Y-104071000D01*
X136142000Y-105571000D01*
X137471000Y-105571000D01*
X137471000Y-102831832D01*
X137529000Y-102831832D01*
X137529000Y-105571000D01*
X138858000Y-105571000D01*
X138858000Y-104071000D01*
X138826249Y-103806625D01*
X138743531Y-103553524D01*
X138613025Y-103321424D01*
X138439746Y-103119244D01*
X138230353Y-102954754D01*
X137992893Y-102834275D01*
X137741032Y-102763562D01*
X137529000Y-102831832D01*
X137471000Y-102831832D01*
X137258968Y-102763562D01*
X137007107Y-102834275D01*
X136769647Y-102954754D01*
X136560254Y-103119244D01*
X136386975Y-103321424D01*
X136256469Y-103553524D01*
X136173751Y-103806625D01*
X136142000Y-104071000D01*
X136100000Y-104071000D01*
X136100000Y-84500000D01*
X158758578Y-84500000D01*
X159200000Y-84941422D01*
%TA.AperFunction,Conductor*%
D16*
G36*
X159200000Y-84941422D02*
G01*
X159200000Y-87400000D01*
X147600000Y-87400000D01*
X147580491Y-87401921D01*
X147561732Y-87407612D01*
X147544443Y-87416853D01*
X147529289Y-87429289D01*
X147516853Y-87444443D01*
X147507612Y-87461732D01*
X147501921Y-87480491D01*
X147500000Y-87500000D01*
X147500000Y-92400000D01*
X143000000Y-92400000D01*
X142980491Y-92401921D01*
X142961732Y-92407612D01*
X142944443Y-92416853D01*
X142929289Y-92429289D01*
X142916853Y-92444443D01*
X142907612Y-92461732D01*
X142901921Y-92480491D01*
X142900000Y-92500000D01*
X142900000Y-124598561D01*
X136100000Y-124501418D01*
X136100000Y-105629000D01*
X136142000Y-105629000D01*
X136142000Y-107129000D01*
X136173751Y-107393375D01*
X136256469Y-107646476D01*
X136386975Y-107878576D01*
X136560254Y-108080756D01*
X136769647Y-108245246D01*
X137007107Y-108365725D01*
X137258968Y-108436438D01*
X137471000Y-108368168D01*
X137471000Y-105629000D01*
X137529000Y-105629000D01*
X137529000Y-108368168D01*
X137741032Y-108436438D01*
X137992893Y-108365725D01*
X138230353Y-108245246D01*
X138439746Y-108080756D01*
X138613025Y-107878576D01*
X138743531Y-107646476D01*
X138826249Y-107393375D01*
X138858000Y-107129000D01*
X138858000Y-105629000D01*
X137529000Y-105629000D01*
X137471000Y-105629000D01*
X136142000Y-105629000D01*
X136100000Y-105629000D01*
X136100000Y-104071000D01*
X136142000Y-104071000D01*
X136142000Y-105571000D01*
X137471000Y-105571000D01*
X137471000Y-102831832D01*
X137529000Y-102831832D01*
X137529000Y-105571000D01*
X138858000Y-105571000D01*
X138858000Y-104071000D01*
X138826249Y-103806625D01*
X138743531Y-103553524D01*
X138613025Y-103321424D01*
X138439746Y-103119244D01*
X138230353Y-102954754D01*
X137992893Y-102834275D01*
X137741032Y-102763562D01*
X137529000Y-102831832D01*
X137471000Y-102831832D01*
X137258968Y-102763562D01*
X137007107Y-102834275D01*
X136769647Y-102954754D01*
X136560254Y-103119244D01*
X136386975Y-103321424D01*
X136256469Y-103553524D01*
X136173751Y-103806625D01*
X136142000Y-104071000D01*
X136100000Y-104071000D01*
X136100000Y-84500000D01*
X158758578Y-84500000D01*
X159200000Y-84941422D01*
G37*
%TD.AperFunction*%
%TD*%
D15*
%TO.N,GND*%
X161967000Y-133367000D02*
X123233000Y-133367000D01*
X123233000Y-128641943D01*
X123964590Y-128641943D01*
X123964590Y-129358057D01*
X124104297Y-130060410D01*
X124378342Y-130722012D01*
X124776193Y-131317439D01*
X125282561Y-131823807D01*
X125877988Y-132221658D01*
X126539590Y-132495703D01*
X127241943Y-132635410D01*
X127958057Y-132635410D01*
X128660410Y-132495703D01*
X129322012Y-132221658D01*
X129917439Y-131823807D01*
X130423807Y-131317439D01*
X130821658Y-130722012D01*
X131095703Y-130060410D01*
X131235410Y-129358057D01*
X131235410Y-128641943D01*
X131095703Y-127939590D01*
X131090042Y-127925922D01*
X133452000Y-127925922D01*
X133452000Y-129874077D01*
X133473820Y-130095619D01*
X133560049Y-130379878D01*
X133700077Y-130641852D01*
X133888524Y-130871476D01*
X134118147Y-131059923D01*
X134380121Y-131199951D01*
X134664380Y-131286180D01*
X134960000Y-131315296D01*
X135255619Y-131286180D01*
X135539878Y-131199951D01*
X135801852Y-131059923D01*
X136031476Y-130871476D01*
X136219923Y-130641853D01*
X136359951Y-130379879D01*
X136446180Y-130095620D01*
X136468000Y-129874078D01*
X136468000Y-129054000D01*
X138532000Y-129054000D01*
X138532000Y-129954000D01*
X138591020Y-130245237D01*
X138705723Y-130519364D01*
X138871702Y-130765846D01*
X139082578Y-130975211D01*
X139330247Y-131139413D01*
X139605191Y-131252142D01*
X139653226Y-131257556D01*
X139886000Y-131147227D01*
X139886000Y-129054000D01*
X140194000Y-129054000D01*
X140194000Y-131147227D01*
X140426774Y-131257556D01*
X140474809Y-131252142D01*
X140749753Y-131139413D01*
X140997422Y-130975211D01*
X141208298Y-130765846D01*
X141374277Y-130519364D01*
X141488980Y-130245237D01*
X141548000Y-129954000D01*
X141548000Y-129054000D01*
X143612000Y-129054000D01*
X143612000Y-129954000D01*
X143671020Y-130245237D01*
X143785723Y-130519364D01*
X143951702Y-130765846D01*
X144162578Y-130975211D01*
X144410247Y-131139413D01*
X144685191Y-131252142D01*
X144733226Y-131257556D01*
X144966000Y-131147227D01*
X144966000Y-129054000D01*
X145274000Y-129054000D01*
X145274000Y-131147227D01*
X145506774Y-131257556D01*
X145554809Y-131252142D01*
X145829753Y-131139413D01*
X146077422Y-130975211D01*
X146288298Y-130765846D01*
X146454277Y-130519364D01*
X146568980Y-130245237D01*
X146628000Y-129954000D01*
X146628000Y-129054000D01*
X145274000Y-129054000D01*
X144966000Y-129054000D01*
X143612000Y-129054000D01*
X141548000Y-129054000D01*
X140194000Y-129054000D01*
X139886000Y-129054000D01*
X138532000Y-129054000D01*
X136468000Y-129054000D01*
X136468000Y-127925922D01*
X136460129Y-127846000D01*
X138532000Y-127846000D01*
X138532000Y-128746000D01*
X139886000Y-128746000D01*
X139886000Y-126652773D01*
X140194000Y-126652773D01*
X140194000Y-128746000D01*
X141548000Y-128746000D01*
X141548000Y-127846000D01*
X143612000Y-127846000D01*
X143612000Y-128746000D01*
X144966000Y-128746000D01*
X144966000Y-126652773D01*
X145274000Y-126652773D01*
X145274000Y-128746000D01*
X146628000Y-128746000D01*
X146628000Y-127846000D01*
X146568980Y-127554763D01*
X146483301Y-127350000D01*
X148689059Y-127350000D01*
X148689059Y-130450000D01*
X148705602Y-130617961D01*
X148754594Y-130779468D01*
X148834154Y-130928313D01*
X148941223Y-131058777D01*
X149071687Y-131165846D01*
X149220532Y-131245406D01*
X149382039Y-131294398D01*
X149550000Y-131310941D01*
X150850000Y-131310941D01*
X151017961Y-131294398D01*
X151179468Y-131245406D01*
X151328313Y-131165846D01*
X151458777Y-131058777D01*
X151565846Y-130928313D01*
X151645406Y-130779468D01*
X151694398Y-130617961D01*
X151710941Y-130450000D01*
X151710941Y-128641943D01*
X153964590Y-128641943D01*
X153964590Y-129358057D01*
X154104297Y-130060410D01*
X154378342Y-130722012D01*
X154776193Y-131317439D01*
X155282561Y-131823807D01*
X155877988Y-132221658D01*
X156539590Y-132495703D01*
X157241943Y-132635410D01*
X157958057Y-132635410D01*
X158660410Y-132495703D01*
X159322012Y-132221658D01*
X159917439Y-131823807D01*
X160423807Y-131317439D01*
X160821658Y-130722012D01*
X161095703Y-130060410D01*
X161235410Y-129358057D01*
X161235410Y-128641943D01*
X161095703Y-127939590D01*
X160821658Y-127277988D01*
X160423807Y-126682561D01*
X159917439Y-126176193D01*
X159322012Y-125778342D01*
X158660410Y-125504297D01*
X157958057Y-125364590D01*
X157241943Y-125364590D01*
X156539590Y-125504297D01*
X155877988Y-125778342D01*
X155282561Y-126176193D01*
X154776193Y-126682561D01*
X154378342Y-127277988D01*
X154104297Y-127939590D01*
X153964590Y-128641943D01*
X151710941Y-128641943D01*
X151710941Y-127350000D01*
X151694398Y-127182039D01*
X151645406Y-127020532D01*
X151565846Y-126871687D01*
X151458777Y-126741223D01*
X151328313Y-126634154D01*
X151179468Y-126554594D01*
X151017961Y-126505602D01*
X150850000Y-126489059D01*
X149550000Y-126489059D01*
X149382039Y-126505602D01*
X149220532Y-126554594D01*
X149071687Y-126634154D01*
X148941223Y-126741223D01*
X148834154Y-126871687D01*
X148754594Y-127020532D01*
X148705602Y-127182039D01*
X148689059Y-127350000D01*
X146483301Y-127350000D01*
X146454277Y-127280636D01*
X146288298Y-127034154D01*
X146077422Y-126824789D01*
X145829753Y-126660587D01*
X145554809Y-126547858D01*
X145506774Y-126542444D01*
X145274000Y-126652773D01*
X144966000Y-126652773D01*
X144733226Y-126542444D01*
X144685191Y-126547858D01*
X144410247Y-126660587D01*
X144162578Y-126824789D01*
X143951702Y-127034154D01*
X143785723Y-127280636D01*
X143671020Y-127554763D01*
X143612000Y-127846000D01*
X141548000Y-127846000D01*
X141488980Y-127554763D01*
X141374277Y-127280636D01*
X141208298Y-127034154D01*
X140997422Y-126824789D01*
X140749753Y-126660587D01*
X140474809Y-126547858D01*
X140426774Y-126542444D01*
X140194000Y-126652773D01*
X139886000Y-126652773D01*
X139653226Y-126542444D01*
X139605191Y-126547858D01*
X139330247Y-126660587D01*
X139082578Y-126824789D01*
X138871702Y-127034154D01*
X138705723Y-127280636D01*
X138591020Y-127554763D01*
X138532000Y-127846000D01*
X136460129Y-127846000D01*
X136446180Y-127704380D01*
X136359951Y-127420121D01*
X136219923Y-127158147D01*
X136031476Y-126928524D01*
X135801853Y-126740077D01*
X135539879Y-126600049D01*
X135255620Y-126513820D01*
X134960000Y-126484704D01*
X134664381Y-126513820D01*
X134380122Y-126600049D01*
X134118148Y-126740077D01*
X133888525Y-126928524D01*
X133700078Y-127158147D01*
X133560050Y-127420121D01*
X133473821Y-127704380D01*
X133452000Y-127925922D01*
X131090042Y-127925922D01*
X130821658Y-127277988D01*
X130423807Y-126682561D01*
X129917439Y-126176193D01*
X129322012Y-125778342D01*
X128660410Y-125504297D01*
X127958057Y-125364590D01*
X127241943Y-125364590D01*
X126539590Y-125504297D01*
X125877988Y-125778342D01*
X125282561Y-126176193D01*
X124776193Y-126682561D01*
X124378342Y-127277988D01*
X124104297Y-127939590D01*
X123964590Y-128641943D01*
X123233000Y-128641943D01*
X123233000Y-120303819D01*
X126042000Y-120303819D01*
X126042000Y-121096182D01*
X126070331Y-121383835D01*
X126182292Y-121752919D01*
X126364106Y-122093069D01*
X126608787Y-122391214D01*
X126906932Y-122635894D01*
X127247082Y-122817708D01*
X127616166Y-122929669D01*
X128000000Y-122967473D01*
X128383835Y-122929669D01*
X128752919Y-122817708D01*
X129093069Y-122635894D01*
X129391214Y-122391214D01*
X129635894Y-122093069D01*
X129817708Y-121752919D01*
X129929669Y-121383834D01*
X129958000Y-121096181D01*
X129958000Y-120303819D01*
X130242000Y-120303819D01*
X130242000Y-121096182D01*
X130270331Y-121383835D01*
X130382292Y-121752919D01*
X130564106Y-122093069D01*
X130808787Y-122391214D01*
X131106932Y-122635894D01*
X131447082Y-122817708D01*
X131816166Y-122929669D01*
X132200000Y-122967473D01*
X132583835Y-122929669D01*
X132952919Y-122817708D01*
X133293069Y-122635894D01*
X133591214Y-122391214D01*
X133835894Y-122093069D01*
X134017708Y-121752919D01*
X134129669Y-121383834D01*
X134158000Y-121096181D01*
X134158000Y-120303818D01*
X134129669Y-120016165D01*
X134017708Y-119647081D01*
X133835894Y-119306931D01*
X133591214Y-119008786D01*
X133293069Y-118764106D01*
X132952918Y-118582292D01*
X132583834Y-118470331D01*
X132200000Y-118432527D01*
X131816165Y-118470331D01*
X131447081Y-118582292D01*
X131106931Y-118764106D01*
X130808786Y-119008786D01*
X130564106Y-119306931D01*
X130382292Y-119647082D01*
X130270331Y-120016166D01*
X130242000Y-120303819D01*
X129958000Y-120303819D01*
X129958000Y-120303818D01*
X129929669Y-120016165D01*
X129817708Y-119647081D01*
X129635894Y-119306931D01*
X129391214Y-119008786D01*
X129093069Y-118764106D01*
X128752918Y-118582292D01*
X128383834Y-118470331D01*
X128000000Y-118432527D01*
X127616165Y-118470331D01*
X127247081Y-118582292D01*
X126906931Y-118764106D01*
X126608786Y-119008786D01*
X126364106Y-119306931D01*
X126182292Y-119647082D01*
X126070331Y-120016166D01*
X126042000Y-120303819D01*
X123233000Y-120303819D01*
X123233000Y-116850000D01*
X126039058Y-116850000D01*
X126050797Y-116969189D01*
X126085563Y-117083797D01*
X126142020Y-117189421D01*
X126217999Y-117282001D01*
X126310579Y-117357980D01*
X126416203Y-117414437D01*
X126530811Y-117449203D01*
X126650000Y-117460942D01*
X127694000Y-117458000D01*
X127846000Y-117306000D01*
X127846000Y-115354000D01*
X128154000Y-115354000D01*
X128154000Y-117306000D01*
X128306000Y-117458000D01*
X129350000Y-117460942D01*
X129469189Y-117449203D01*
X129583797Y-117414437D01*
X129689421Y-117357980D01*
X129782001Y-117282001D01*
X129857980Y-117189421D01*
X129914437Y-117083797D01*
X129949203Y-116969189D01*
X129960942Y-116850000D01*
X129958344Y-115662992D01*
X130237608Y-115662992D01*
X130307113Y-116042704D01*
X130449361Y-116401560D01*
X130658885Y-116725770D01*
X130927633Y-117002874D01*
X131245277Y-117222223D01*
X131599611Y-117375388D01*
X131742546Y-117403812D01*
X132046000Y-117299422D01*
X132046000Y-115354000D01*
X132354000Y-115354000D01*
X132354000Y-117299422D01*
X132657454Y-117403812D01*
X132800389Y-117375388D01*
X133154723Y-117222223D01*
X133472367Y-117002874D01*
X133741115Y-116725770D01*
X133950639Y-116401560D01*
X134092887Y-116042704D01*
X134162392Y-115662992D01*
X134011729Y-115354000D01*
X132354000Y-115354000D01*
X132046000Y-115354000D01*
X130388271Y-115354000D01*
X130237608Y-115662992D01*
X129958344Y-115662992D01*
X129958000Y-115506000D01*
X129806000Y-115354000D01*
X128154000Y-115354000D01*
X127846000Y-115354000D01*
X126194000Y-115354000D01*
X126042000Y-115506000D01*
X126039058Y-116850000D01*
X123233000Y-116850000D01*
X123233000Y-113550000D01*
X126039058Y-113550000D01*
X126042000Y-114894000D01*
X126194000Y-115046000D01*
X127846000Y-115046000D01*
X127846000Y-113094000D01*
X128154000Y-113094000D01*
X128154000Y-115046000D01*
X129806000Y-115046000D01*
X129958000Y-114894000D01*
X129958343Y-114737008D01*
X130237608Y-114737008D01*
X130388271Y-115046000D01*
X132046000Y-115046000D01*
X132046000Y-113100578D01*
X132354000Y-113100578D01*
X132354000Y-115046000D01*
X134011729Y-115046000D01*
X134162392Y-114737008D01*
X134092887Y-114357296D01*
X133950639Y-113998440D01*
X133741115Y-113674230D01*
X133472367Y-113397126D01*
X133154723Y-113177777D01*
X132800389Y-113024612D01*
X132657454Y-112996188D01*
X132354000Y-113100578D01*
X132046000Y-113100578D01*
X131742546Y-112996188D01*
X131599611Y-113024612D01*
X131245277Y-113177777D01*
X130927633Y-113397126D01*
X130658885Y-113674230D01*
X130449361Y-113998440D01*
X130307113Y-114357296D01*
X130237608Y-114737008D01*
X129958343Y-114737008D01*
X129960942Y-113550000D01*
X129949203Y-113430811D01*
X129914437Y-113316203D01*
X129857980Y-113210579D01*
X129782001Y-113117999D01*
X129689421Y-113042020D01*
X129583797Y-112985563D01*
X129469189Y-112950797D01*
X129350000Y-112939058D01*
X128306000Y-112942000D01*
X128154000Y-113094000D01*
X127846000Y-113094000D01*
X127694000Y-112942000D01*
X126650000Y-112939058D01*
X126530811Y-112950797D01*
X126416203Y-112985563D01*
X126310579Y-113042020D01*
X126217999Y-113117999D01*
X126142020Y-113210579D01*
X126085563Y-113316203D01*
X126050797Y-113430811D01*
X126039058Y-113550000D01*
X123233000Y-113550000D01*
X123233000Y-107754000D01*
X125392000Y-107754000D01*
X125392000Y-109254000D01*
X125452941Y-109564746D01*
X125573335Y-109857632D01*
X125748555Y-110121403D01*
X125971867Y-110345922D01*
X126234690Y-110522561D01*
X126526923Y-110644531D01*
X126597506Y-110656812D01*
X126846000Y-110547833D01*
X126846000Y-107754000D01*
X127154000Y-107754000D01*
X127154000Y-110547833D01*
X127402494Y-110656812D01*
X127473077Y-110644531D01*
X127765310Y-110522561D01*
X128028133Y-110345922D01*
X128251445Y-110121403D01*
X128426665Y-109857632D01*
X128547059Y-109564746D01*
X128608000Y-109254000D01*
X128608000Y-107754000D01*
X127154000Y-107754000D01*
X126846000Y-107754000D01*
X125392000Y-107754000D01*
X123233000Y-107754000D01*
X123233000Y-105946000D01*
X125392000Y-105946000D01*
X125392000Y-107446000D01*
X126846000Y-107446000D01*
X126846000Y-104652167D01*
X127154000Y-104652167D01*
X127154000Y-107446000D01*
X128608000Y-107446000D01*
X128608000Y-105946000D01*
X128547059Y-105635254D01*
X128426665Y-105342368D01*
X128251445Y-105078597D01*
X128028133Y-104854078D01*
X127765310Y-104677439D01*
X127473077Y-104555469D01*
X127402494Y-104543188D01*
X127154000Y-104652167D01*
X126846000Y-104652167D01*
X126597506Y-104543188D01*
X126526923Y-104555469D01*
X126234690Y-104677439D01*
X125971867Y-104854078D01*
X125748555Y-105078597D01*
X125573335Y-105342368D01*
X125452941Y-105635254D01*
X125392000Y-105946000D01*
X123233000Y-105946000D01*
X123233000Y-102521010D01*
X128592000Y-102521010D01*
X128592001Y-105678991D01*
X128615268Y-105915223D01*
X128707215Y-106218332D01*
X128856529Y-106497679D01*
X129057472Y-106742529D01*
X129302322Y-106943472D01*
X129581669Y-107092786D01*
X129884778Y-107184733D01*
X130200000Y-107215780D01*
X130515223Y-107184733D01*
X130818332Y-107092786D01*
X131097679Y-106943472D01*
X131342529Y-106742529D01*
X131543472Y-106497679D01*
X131692786Y-106218332D01*
X131784733Y-105915223D01*
X131808000Y-105678991D01*
X131808000Y-102521009D01*
X131784733Y-102284777D01*
X131692786Y-101981668D01*
X131543472Y-101702321D01*
X131342529Y-101457471D01*
X131097678Y-101256528D01*
X130818331Y-101107214D01*
X130515222Y-101015267D01*
X130200000Y-100984220D01*
X129884777Y-101015267D01*
X129581668Y-101107214D01*
X129302321Y-101256528D01*
X129057471Y-101457471D01*
X128856528Y-101702322D01*
X128707214Y-101981669D01*
X128615267Y-102284778D01*
X128592000Y-102521010D01*
X123233000Y-102521010D01*
X123233000Y-84400000D01*
X135392000Y-84400000D01*
X135392000Y-124600000D01*
X135402049Y-124710085D01*
X135435015Y-124824624D01*
X135489693Y-124930531D01*
X135563982Y-125023736D01*
X135655027Y-125100657D01*
X135759328Y-125158338D01*
X135872879Y-125194562D01*
X135991315Y-125207938D01*
X142991315Y-125307938D01*
X143118615Y-125296317D01*
X143232672Y-125261719D01*
X143337787Y-125205534D01*
X143429921Y-125129921D01*
X143505534Y-125037787D01*
X143561719Y-124932672D01*
X143596317Y-124818615D01*
X143608000Y-124700000D01*
X143608000Y-107161042D01*
X143662213Y-107205534D01*
X143767328Y-107261719D01*
X143881385Y-107296317D01*
X144000000Y-107308000D01*
X151500000Y-107308000D01*
X151618615Y-107296317D01*
X151732672Y-107261719D01*
X151837787Y-107205534D01*
X151929921Y-107129921D01*
X152005534Y-107037787D01*
X152061719Y-106932672D01*
X152096317Y-106818615D01*
X152108000Y-106700000D01*
X152108000Y-88200000D01*
X152098938Y-88108000D01*
X159300000Y-88108000D01*
X159418615Y-88096317D01*
X159492001Y-88074056D01*
X159492002Y-99741050D01*
X156778038Y-102455015D01*
X156674275Y-102581450D01*
X156571389Y-102773936D01*
X156508032Y-102982794D01*
X156486640Y-103200000D01*
X156508032Y-103417206D01*
X156571389Y-103626064D01*
X156674275Y-103818550D01*
X156812735Y-103987265D01*
X156981450Y-104125725D01*
X157173936Y-104228611D01*
X157382794Y-104291968D01*
X157600000Y-104313360D01*
X157817206Y-104291968D01*
X158026064Y-104228611D01*
X158218550Y-104125725D01*
X158344985Y-104021962D01*
X161344984Y-101021964D01*
X161387266Y-100987264D01*
X161525727Y-100818549D01*
X161628612Y-100626064D01*
X161691969Y-100417205D01*
X161708001Y-100254430D01*
X161708001Y-100254421D01*
X161713361Y-100200000D01*
X161708001Y-100145579D01*
X161708001Y-84426422D01*
X161713361Y-84371999D01*
X161708001Y-84317575D01*
X161708001Y-84317568D01*
X161691969Y-84154793D01*
X161628612Y-83945934D01*
X161525727Y-83753449D01*
X161387266Y-83584734D01*
X161344984Y-83550034D01*
X157749971Y-79955022D01*
X157715267Y-79912735D01*
X157546552Y-79774274D01*
X157354067Y-79671389D01*
X157145208Y-79608032D01*
X156982433Y-79592000D01*
X156982425Y-79592000D01*
X156928002Y-79586640D01*
X156873579Y-79592000D01*
X143945569Y-79592000D01*
X143782794Y-79608032D01*
X143573935Y-79671389D01*
X143381450Y-79774274D01*
X143212735Y-79912735D01*
X143074274Y-80081450D01*
X142971389Y-80273935D01*
X142908032Y-80482794D01*
X142886639Y-80700000D01*
X142908032Y-80917206D01*
X142971389Y-81126065D01*
X143074274Y-81318550D01*
X143212735Y-81487265D01*
X143381450Y-81625726D01*
X143573935Y-81728611D01*
X143782794Y-81791968D01*
X143945569Y-81808000D01*
X156469055Y-81808000D01*
X158453054Y-83792000D01*
X136000000Y-83792000D01*
X135881385Y-83803683D01*
X135767328Y-83838281D01*
X135662213Y-83894466D01*
X135570079Y-83970079D01*
X135494466Y-84062213D01*
X135438281Y-84167328D01*
X135403683Y-84281385D01*
X135392000Y-84400000D01*
X123233000Y-84400000D01*
X123233000Y-59633000D01*
X161967001Y-59633000D01*
X161967000Y-133367000D01*
%TA.AperFunction,Conductor*%
D16*
G36*
X161967000Y-133367000D02*
G01*
X123233000Y-133367000D01*
X123233000Y-128641943D01*
X123964590Y-128641943D01*
X123964590Y-129358057D01*
X124104297Y-130060410D01*
X124378342Y-130722012D01*
X124776193Y-131317439D01*
X125282561Y-131823807D01*
X125877988Y-132221658D01*
X126539590Y-132495703D01*
X127241943Y-132635410D01*
X127958057Y-132635410D01*
X128660410Y-132495703D01*
X129322012Y-132221658D01*
X129917439Y-131823807D01*
X130423807Y-131317439D01*
X130821658Y-130722012D01*
X131095703Y-130060410D01*
X131235410Y-129358057D01*
X131235410Y-128641943D01*
X131095703Y-127939590D01*
X131090042Y-127925922D01*
X133452000Y-127925922D01*
X133452000Y-129874077D01*
X133473820Y-130095619D01*
X133560049Y-130379878D01*
X133700077Y-130641852D01*
X133888524Y-130871476D01*
X134118147Y-131059923D01*
X134380121Y-131199951D01*
X134664380Y-131286180D01*
X134960000Y-131315296D01*
X135255619Y-131286180D01*
X135539878Y-131199951D01*
X135801852Y-131059923D01*
X136031476Y-130871476D01*
X136219923Y-130641853D01*
X136359951Y-130379879D01*
X136446180Y-130095620D01*
X136468000Y-129874078D01*
X136468000Y-129054000D01*
X138532000Y-129054000D01*
X138532000Y-129954000D01*
X138591020Y-130245237D01*
X138705723Y-130519364D01*
X138871702Y-130765846D01*
X139082578Y-130975211D01*
X139330247Y-131139413D01*
X139605191Y-131252142D01*
X139653226Y-131257556D01*
X139886000Y-131147227D01*
X139886000Y-129054000D01*
X140194000Y-129054000D01*
X140194000Y-131147227D01*
X140426774Y-131257556D01*
X140474809Y-131252142D01*
X140749753Y-131139413D01*
X140997422Y-130975211D01*
X141208298Y-130765846D01*
X141374277Y-130519364D01*
X141488980Y-130245237D01*
X141548000Y-129954000D01*
X141548000Y-129054000D01*
X143612000Y-129054000D01*
X143612000Y-129954000D01*
X143671020Y-130245237D01*
X143785723Y-130519364D01*
X143951702Y-130765846D01*
X144162578Y-130975211D01*
X144410247Y-131139413D01*
X144685191Y-131252142D01*
X144733226Y-131257556D01*
X144966000Y-131147227D01*
X144966000Y-129054000D01*
X145274000Y-129054000D01*
X145274000Y-131147227D01*
X145506774Y-131257556D01*
X145554809Y-131252142D01*
X145829753Y-131139413D01*
X146077422Y-130975211D01*
X146288298Y-130765846D01*
X146454277Y-130519364D01*
X146568980Y-130245237D01*
X146628000Y-129954000D01*
X146628000Y-129054000D01*
X145274000Y-129054000D01*
X144966000Y-129054000D01*
X143612000Y-129054000D01*
X141548000Y-129054000D01*
X140194000Y-129054000D01*
X139886000Y-129054000D01*
X138532000Y-129054000D01*
X136468000Y-129054000D01*
X136468000Y-127925922D01*
X136460129Y-127846000D01*
X138532000Y-127846000D01*
X138532000Y-128746000D01*
X139886000Y-128746000D01*
X139886000Y-126652773D01*
X140194000Y-126652773D01*
X140194000Y-128746000D01*
X141548000Y-128746000D01*
X141548000Y-127846000D01*
X143612000Y-127846000D01*
X143612000Y-128746000D01*
X144966000Y-128746000D01*
X144966000Y-126652773D01*
X145274000Y-126652773D01*
X145274000Y-128746000D01*
X146628000Y-128746000D01*
X146628000Y-127846000D01*
X146568980Y-127554763D01*
X146483301Y-127350000D01*
X148689059Y-127350000D01*
X148689059Y-130450000D01*
X148705602Y-130617961D01*
X148754594Y-130779468D01*
X148834154Y-130928313D01*
X148941223Y-131058777D01*
X149071687Y-131165846D01*
X149220532Y-131245406D01*
X149382039Y-131294398D01*
X149550000Y-131310941D01*
X150850000Y-131310941D01*
X151017961Y-131294398D01*
X151179468Y-131245406D01*
X151328313Y-131165846D01*
X151458777Y-131058777D01*
X151565846Y-130928313D01*
X151645406Y-130779468D01*
X151694398Y-130617961D01*
X151710941Y-130450000D01*
X151710941Y-128641943D01*
X153964590Y-128641943D01*
X153964590Y-129358057D01*
X154104297Y-130060410D01*
X154378342Y-130722012D01*
X154776193Y-131317439D01*
X155282561Y-131823807D01*
X155877988Y-132221658D01*
X156539590Y-132495703D01*
X157241943Y-132635410D01*
X157958057Y-132635410D01*
X158660410Y-132495703D01*
X159322012Y-132221658D01*
X159917439Y-131823807D01*
X160423807Y-131317439D01*
X160821658Y-130722012D01*
X161095703Y-130060410D01*
X161235410Y-129358057D01*
X161235410Y-128641943D01*
X161095703Y-127939590D01*
X160821658Y-127277988D01*
X160423807Y-126682561D01*
X159917439Y-126176193D01*
X159322012Y-125778342D01*
X158660410Y-125504297D01*
X157958057Y-125364590D01*
X157241943Y-125364590D01*
X156539590Y-125504297D01*
X155877988Y-125778342D01*
X155282561Y-126176193D01*
X154776193Y-126682561D01*
X154378342Y-127277988D01*
X154104297Y-127939590D01*
X153964590Y-128641943D01*
X151710941Y-128641943D01*
X151710941Y-127350000D01*
X151694398Y-127182039D01*
X151645406Y-127020532D01*
X151565846Y-126871687D01*
X151458777Y-126741223D01*
X151328313Y-126634154D01*
X151179468Y-126554594D01*
X151017961Y-126505602D01*
X150850000Y-126489059D01*
X149550000Y-126489059D01*
X149382039Y-126505602D01*
X149220532Y-126554594D01*
X149071687Y-126634154D01*
X148941223Y-126741223D01*
X148834154Y-126871687D01*
X148754594Y-127020532D01*
X148705602Y-127182039D01*
X148689059Y-127350000D01*
X146483301Y-127350000D01*
X146454277Y-127280636D01*
X146288298Y-127034154D01*
X146077422Y-126824789D01*
X145829753Y-126660587D01*
X145554809Y-126547858D01*
X145506774Y-126542444D01*
X145274000Y-126652773D01*
X144966000Y-126652773D01*
X144733226Y-126542444D01*
X144685191Y-126547858D01*
X144410247Y-126660587D01*
X144162578Y-126824789D01*
X143951702Y-127034154D01*
X143785723Y-127280636D01*
X143671020Y-127554763D01*
X143612000Y-127846000D01*
X141548000Y-127846000D01*
X141488980Y-127554763D01*
X141374277Y-127280636D01*
X141208298Y-127034154D01*
X140997422Y-126824789D01*
X140749753Y-126660587D01*
X140474809Y-126547858D01*
X140426774Y-126542444D01*
X140194000Y-126652773D01*
X139886000Y-126652773D01*
X139653226Y-126542444D01*
X139605191Y-126547858D01*
X139330247Y-126660587D01*
X139082578Y-126824789D01*
X138871702Y-127034154D01*
X138705723Y-127280636D01*
X138591020Y-127554763D01*
X138532000Y-127846000D01*
X136460129Y-127846000D01*
X136446180Y-127704380D01*
X136359951Y-127420121D01*
X136219923Y-127158147D01*
X136031476Y-126928524D01*
X135801853Y-126740077D01*
X135539879Y-126600049D01*
X135255620Y-126513820D01*
X134960000Y-126484704D01*
X134664381Y-126513820D01*
X134380122Y-126600049D01*
X134118148Y-126740077D01*
X133888525Y-126928524D01*
X133700078Y-127158147D01*
X133560050Y-127420121D01*
X133473821Y-127704380D01*
X133452000Y-127925922D01*
X131090042Y-127925922D01*
X130821658Y-127277988D01*
X130423807Y-126682561D01*
X129917439Y-126176193D01*
X129322012Y-125778342D01*
X128660410Y-125504297D01*
X127958057Y-125364590D01*
X127241943Y-125364590D01*
X126539590Y-125504297D01*
X125877988Y-125778342D01*
X125282561Y-126176193D01*
X124776193Y-126682561D01*
X124378342Y-127277988D01*
X124104297Y-127939590D01*
X123964590Y-128641943D01*
X123233000Y-128641943D01*
X123233000Y-120303819D01*
X126042000Y-120303819D01*
X126042000Y-121096182D01*
X126070331Y-121383835D01*
X126182292Y-121752919D01*
X126364106Y-122093069D01*
X126608787Y-122391214D01*
X126906932Y-122635894D01*
X127247082Y-122817708D01*
X127616166Y-122929669D01*
X128000000Y-122967473D01*
X128383835Y-122929669D01*
X128752919Y-122817708D01*
X129093069Y-122635894D01*
X129391214Y-122391214D01*
X129635894Y-122093069D01*
X129817708Y-121752919D01*
X129929669Y-121383834D01*
X129958000Y-121096181D01*
X129958000Y-120303819D01*
X130242000Y-120303819D01*
X130242000Y-121096182D01*
X130270331Y-121383835D01*
X130382292Y-121752919D01*
X130564106Y-122093069D01*
X130808787Y-122391214D01*
X131106932Y-122635894D01*
X131447082Y-122817708D01*
X131816166Y-122929669D01*
X132200000Y-122967473D01*
X132583835Y-122929669D01*
X132952919Y-122817708D01*
X133293069Y-122635894D01*
X133591214Y-122391214D01*
X133835894Y-122093069D01*
X134017708Y-121752919D01*
X134129669Y-121383834D01*
X134158000Y-121096181D01*
X134158000Y-120303818D01*
X134129669Y-120016165D01*
X134017708Y-119647081D01*
X133835894Y-119306931D01*
X133591214Y-119008786D01*
X133293069Y-118764106D01*
X132952918Y-118582292D01*
X132583834Y-118470331D01*
X132200000Y-118432527D01*
X131816165Y-118470331D01*
X131447081Y-118582292D01*
X131106931Y-118764106D01*
X130808786Y-119008786D01*
X130564106Y-119306931D01*
X130382292Y-119647082D01*
X130270331Y-120016166D01*
X130242000Y-120303819D01*
X129958000Y-120303819D01*
X129958000Y-120303818D01*
X129929669Y-120016165D01*
X129817708Y-119647081D01*
X129635894Y-119306931D01*
X129391214Y-119008786D01*
X129093069Y-118764106D01*
X128752918Y-118582292D01*
X128383834Y-118470331D01*
X128000000Y-118432527D01*
X127616165Y-118470331D01*
X127247081Y-118582292D01*
X126906931Y-118764106D01*
X126608786Y-119008786D01*
X126364106Y-119306931D01*
X126182292Y-119647082D01*
X126070331Y-120016166D01*
X126042000Y-120303819D01*
X123233000Y-120303819D01*
X123233000Y-116850000D01*
X126039058Y-116850000D01*
X126050797Y-116969189D01*
X126085563Y-117083797D01*
X126142020Y-117189421D01*
X126217999Y-117282001D01*
X126310579Y-117357980D01*
X126416203Y-117414437D01*
X126530811Y-117449203D01*
X126650000Y-117460942D01*
X127694000Y-117458000D01*
X127846000Y-117306000D01*
X127846000Y-115354000D01*
X128154000Y-115354000D01*
X128154000Y-117306000D01*
X128306000Y-117458000D01*
X129350000Y-117460942D01*
X129469189Y-117449203D01*
X129583797Y-117414437D01*
X129689421Y-117357980D01*
X129782001Y-117282001D01*
X129857980Y-117189421D01*
X129914437Y-117083797D01*
X129949203Y-116969189D01*
X129960942Y-116850000D01*
X129958344Y-115662992D01*
X130237608Y-115662992D01*
X130307113Y-116042704D01*
X130449361Y-116401560D01*
X130658885Y-116725770D01*
X130927633Y-117002874D01*
X131245277Y-117222223D01*
X131599611Y-117375388D01*
X131742546Y-117403812D01*
X132046000Y-117299422D01*
X132046000Y-115354000D01*
X132354000Y-115354000D01*
X132354000Y-117299422D01*
X132657454Y-117403812D01*
X132800389Y-117375388D01*
X133154723Y-117222223D01*
X133472367Y-117002874D01*
X133741115Y-116725770D01*
X133950639Y-116401560D01*
X134092887Y-116042704D01*
X134162392Y-115662992D01*
X134011729Y-115354000D01*
X132354000Y-115354000D01*
X132046000Y-115354000D01*
X130388271Y-115354000D01*
X130237608Y-115662992D01*
X129958344Y-115662992D01*
X129958000Y-115506000D01*
X129806000Y-115354000D01*
X128154000Y-115354000D01*
X127846000Y-115354000D01*
X126194000Y-115354000D01*
X126042000Y-115506000D01*
X126039058Y-116850000D01*
X123233000Y-116850000D01*
X123233000Y-113550000D01*
X126039058Y-113550000D01*
X126042000Y-114894000D01*
X126194000Y-115046000D01*
X127846000Y-115046000D01*
X127846000Y-113094000D01*
X128154000Y-113094000D01*
X128154000Y-115046000D01*
X129806000Y-115046000D01*
X129958000Y-114894000D01*
X129958343Y-114737008D01*
X130237608Y-114737008D01*
X130388271Y-115046000D01*
X132046000Y-115046000D01*
X132046000Y-113100578D01*
X132354000Y-113100578D01*
X132354000Y-115046000D01*
X134011729Y-115046000D01*
X134162392Y-114737008D01*
X134092887Y-114357296D01*
X133950639Y-113998440D01*
X133741115Y-113674230D01*
X133472367Y-113397126D01*
X133154723Y-113177777D01*
X132800389Y-113024612D01*
X132657454Y-112996188D01*
X132354000Y-113100578D01*
X132046000Y-113100578D01*
X131742546Y-112996188D01*
X131599611Y-113024612D01*
X131245277Y-113177777D01*
X130927633Y-113397126D01*
X130658885Y-113674230D01*
X130449361Y-113998440D01*
X130307113Y-114357296D01*
X130237608Y-114737008D01*
X129958343Y-114737008D01*
X129960942Y-113550000D01*
X129949203Y-113430811D01*
X129914437Y-113316203D01*
X129857980Y-113210579D01*
X129782001Y-113117999D01*
X129689421Y-113042020D01*
X129583797Y-112985563D01*
X129469189Y-112950797D01*
X129350000Y-112939058D01*
X128306000Y-112942000D01*
X128154000Y-113094000D01*
X127846000Y-113094000D01*
X127694000Y-112942000D01*
X126650000Y-112939058D01*
X126530811Y-112950797D01*
X126416203Y-112985563D01*
X126310579Y-113042020D01*
X126217999Y-113117999D01*
X126142020Y-113210579D01*
X126085563Y-113316203D01*
X126050797Y-113430811D01*
X126039058Y-113550000D01*
X123233000Y-113550000D01*
X123233000Y-107754000D01*
X125392000Y-107754000D01*
X125392000Y-109254000D01*
X125452941Y-109564746D01*
X125573335Y-109857632D01*
X125748555Y-110121403D01*
X125971867Y-110345922D01*
X126234690Y-110522561D01*
X126526923Y-110644531D01*
X126597506Y-110656812D01*
X126846000Y-110547833D01*
X126846000Y-107754000D01*
X127154000Y-107754000D01*
X127154000Y-110547833D01*
X127402494Y-110656812D01*
X127473077Y-110644531D01*
X127765310Y-110522561D01*
X128028133Y-110345922D01*
X128251445Y-110121403D01*
X128426665Y-109857632D01*
X128547059Y-109564746D01*
X128608000Y-109254000D01*
X128608000Y-107754000D01*
X127154000Y-107754000D01*
X126846000Y-107754000D01*
X125392000Y-107754000D01*
X123233000Y-107754000D01*
X123233000Y-105946000D01*
X125392000Y-105946000D01*
X125392000Y-107446000D01*
X126846000Y-107446000D01*
X126846000Y-104652167D01*
X127154000Y-104652167D01*
X127154000Y-107446000D01*
X128608000Y-107446000D01*
X128608000Y-105946000D01*
X128547059Y-105635254D01*
X128426665Y-105342368D01*
X128251445Y-105078597D01*
X128028133Y-104854078D01*
X127765310Y-104677439D01*
X127473077Y-104555469D01*
X127402494Y-104543188D01*
X127154000Y-104652167D01*
X126846000Y-104652167D01*
X126597506Y-104543188D01*
X126526923Y-104555469D01*
X126234690Y-104677439D01*
X125971867Y-104854078D01*
X125748555Y-105078597D01*
X125573335Y-105342368D01*
X125452941Y-105635254D01*
X125392000Y-105946000D01*
X123233000Y-105946000D01*
X123233000Y-102521010D01*
X128592000Y-102521010D01*
X128592001Y-105678991D01*
X128615268Y-105915223D01*
X128707215Y-106218332D01*
X128856529Y-106497679D01*
X129057472Y-106742529D01*
X129302322Y-106943472D01*
X129581669Y-107092786D01*
X129884778Y-107184733D01*
X130200000Y-107215780D01*
X130515223Y-107184733D01*
X130818332Y-107092786D01*
X131097679Y-106943472D01*
X131342529Y-106742529D01*
X131543472Y-106497679D01*
X131692786Y-106218332D01*
X131784733Y-105915223D01*
X131808000Y-105678991D01*
X131808000Y-102521009D01*
X131784733Y-102284777D01*
X131692786Y-101981668D01*
X131543472Y-101702321D01*
X131342529Y-101457471D01*
X131097678Y-101256528D01*
X130818331Y-101107214D01*
X130515222Y-101015267D01*
X130200000Y-100984220D01*
X129884777Y-101015267D01*
X129581668Y-101107214D01*
X129302321Y-101256528D01*
X129057471Y-101457471D01*
X128856528Y-101702322D01*
X128707214Y-101981669D01*
X128615267Y-102284778D01*
X128592000Y-102521010D01*
X123233000Y-102521010D01*
X123233000Y-84400000D01*
X135392000Y-84400000D01*
X135392000Y-124600000D01*
X135402049Y-124710085D01*
X135435015Y-124824624D01*
X135489693Y-124930531D01*
X135563982Y-125023736D01*
X135655027Y-125100657D01*
X135759328Y-125158338D01*
X135872879Y-125194562D01*
X135991315Y-125207938D01*
X142991315Y-125307938D01*
X143118615Y-125296317D01*
X143232672Y-125261719D01*
X143337787Y-125205534D01*
X143429921Y-125129921D01*
X143505534Y-125037787D01*
X143561719Y-124932672D01*
X143596317Y-124818615D01*
X143608000Y-124700000D01*
X143608000Y-107161042D01*
X143662213Y-107205534D01*
X143767328Y-107261719D01*
X143881385Y-107296317D01*
X144000000Y-107308000D01*
X151500000Y-107308000D01*
X151618615Y-107296317D01*
X151732672Y-107261719D01*
X151837787Y-107205534D01*
X151929921Y-107129921D01*
X152005534Y-107037787D01*
X152061719Y-106932672D01*
X152096317Y-106818615D01*
X152108000Y-106700000D01*
X152108000Y-88200000D01*
X152098938Y-88108000D01*
X159300000Y-88108000D01*
X159418615Y-88096317D01*
X159492001Y-88074056D01*
X159492002Y-99741050D01*
X156778038Y-102455015D01*
X156674275Y-102581450D01*
X156571389Y-102773936D01*
X156508032Y-102982794D01*
X156486640Y-103200000D01*
X156508032Y-103417206D01*
X156571389Y-103626064D01*
X156674275Y-103818550D01*
X156812735Y-103987265D01*
X156981450Y-104125725D01*
X157173936Y-104228611D01*
X157382794Y-104291968D01*
X157600000Y-104313360D01*
X157817206Y-104291968D01*
X158026064Y-104228611D01*
X158218550Y-104125725D01*
X158344985Y-104021962D01*
X161344984Y-101021964D01*
X161387266Y-100987264D01*
X161525727Y-100818549D01*
X161628612Y-100626064D01*
X161691969Y-100417205D01*
X161708001Y-100254430D01*
X161708001Y-100254421D01*
X161713361Y-100200000D01*
X161708001Y-100145579D01*
X161708001Y-84426422D01*
X161713361Y-84371999D01*
X161708001Y-84317575D01*
X161708001Y-84317568D01*
X161691969Y-84154793D01*
X161628612Y-83945934D01*
X161525727Y-83753449D01*
X161387266Y-83584734D01*
X161344984Y-83550034D01*
X157749971Y-79955022D01*
X157715267Y-79912735D01*
X157546552Y-79774274D01*
X157354067Y-79671389D01*
X157145208Y-79608032D01*
X156982433Y-79592000D01*
X156982425Y-79592000D01*
X156928002Y-79586640D01*
X156873579Y-79592000D01*
X143945569Y-79592000D01*
X143782794Y-79608032D01*
X143573935Y-79671389D01*
X143381450Y-79774274D01*
X143212735Y-79912735D01*
X143074274Y-80081450D01*
X142971389Y-80273935D01*
X142908032Y-80482794D01*
X142886639Y-80700000D01*
X142908032Y-80917206D01*
X142971389Y-81126065D01*
X143074274Y-81318550D01*
X143212735Y-81487265D01*
X143381450Y-81625726D01*
X143573935Y-81728611D01*
X143782794Y-81791968D01*
X143945569Y-81808000D01*
X156469055Y-81808000D01*
X158453054Y-83792000D01*
X136000000Y-83792000D01*
X135881385Y-83803683D01*
X135767328Y-83838281D01*
X135662213Y-83894466D01*
X135570079Y-83970079D01*
X135494466Y-84062213D01*
X135438281Y-84167328D01*
X135403683Y-84281385D01*
X135392000Y-84400000D01*
X123233000Y-84400000D01*
X123233000Y-59633000D01*
X161967001Y-59633000D01*
X161967000Y-133367000D01*
G37*
%TD.AperFunction*%
%TD*%
M02*
