M48
; DRILL file {KiCad (5.1.9)-1} date 07/15/21 17:24:31
; FORMAT={-:-/ absolute / metric / decimal}
; #@! TF.CreationDate,2021-07-15T17:24:31+09:00
; #@! TF.GenerationSoftware,Kicad,Pcbnew,(5.1.9)-1
; #@! TF.FileFunction,Plated,1,2,PTH
FMAT,2
METRIC
T1C0.400
T2C0.800
T3C1.200
T4C1.400
%
G90
G05
T1
X132.0Y-94.5
X132.0Y-95.5
X132.0Y-96.5
X132.0Y-97.5
X132.0Y-98.5
X132.0Y-99.5
X132.0Y-100.5
X132.0Y-101.5
X133.0Y-94.5
X133.0Y-95.5
X133.0Y-96.5
X133.0Y-97.5
X133.0Y-98.5
X133.0Y-99.5
X133.0Y-100.5
X133.0Y-101.5
X134.0Y-94.5
X134.0Y-95.5
X134.0Y-96.5
X134.0Y-97.5
X134.0Y-98.5
X134.0Y-99.5
X134.0Y-100.5
X134.0Y-101.5
X135.0Y-94.5
X135.0Y-95.5
X135.0Y-96.5
X135.0Y-97.5
X135.0Y-98.5
X135.0Y-99.5
X135.0Y-100.5
X135.0Y-101.5
X137.0Y-113.6
X137.0Y-114.6
X137.0Y-115.6
X137.0Y-116.6
X137.0Y-117.6
X137.0Y-118.6
X137.0Y-119.6
X137.0Y-120.6
X137.0Y-121.6
X137.0Y-122.6
X137.0Y-123.6
X138.0Y-113.6
X138.0Y-114.6
X138.0Y-115.6
X138.0Y-116.6
X138.0Y-117.6
X138.0Y-118.6
X138.0Y-119.6
X138.0Y-120.6
X138.0Y-121.6
X138.0Y-122.6
X138.0Y-123.6
X139.0Y-113.6
X139.0Y-114.6
X139.0Y-115.6
X139.0Y-116.6
X139.0Y-117.6
X139.0Y-118.6
X139.0Y-119.6
X139.0Y-120.6
X139.0Y-121.6
X139.0Y-122.6
X139.0Y-123.6
X140.0Y-113.6
X140.0Y-114.6
X140.0Y-115.6
X140.0Y-116.6
X140.0Y-117.6
X140.0Y-118.6
X140.0Y-119.6
X140.0Y-120.6
X140.0Y-121.6
X140.0Y-122.6
X140.0Y-123.6
X144.0Y-80.7
X145.0Y-108.5
X145.0Y-109.5
X145.0Y-110.5
X145.0Y-111.5
X145.0Y-112.5
X146.0Y-108.5
X146.0Y-109.5
X146.0Y-110.5
X146.0Y-111.5
X146.0Y-112.5
X147.0Y-108.5
X147.0Y-109.5
X147.0Y-110.5
X147.0Y-111.5
X147.0Y-112.5
X149.0Y-88.6
X149.0Y-89.6
X149.5Y-94.2
X149.5Y-95.2
X149.5Y-96.2
X149.5Y-97.2
X149.5Y-98.2
X149.5Y-99.2
X149.5Y-100.2
X149.5Y-101.2
X149.5Y-102.2
X149.5Y-103.2
X149.5Y-104.2
X149.5Y-105.2
X149.6Y-84.9
X149.6Y-85.9
X150.0Y-88.6
X150.0Y-89.6
X150.5Y-84.9
X150.5Y-85.9
X150.5Y-94.2
X150.5Y-95.2
X150.5Y-96.2
X150.5Y-97.2
X150.5Y-98.2
X150.5Y-99.2
X150.5Y-100.2
X150.5Y-101.2
X150.5Y-102.2
X150.5Y-103.2
X150.5Y-104.2
X150.5Y-105.2
X151.0Y-88.6
X151.0Y-89.6
X151.4Y-84.9
X151.4Y-85.9
X152.3Y-84.9
X152.3Y-85.9
X153.2Y-84.9
X153.2Y-85.9
X154.1Y-84.9
X154.1Y-85.9
X155.0Y-84.9
X155.0Y-85.9
X155.9Y-84.9
X155.9Y-85.9
X156.8Y-84.9
X156.8Y-85.9
X157.6Y-103.2
X157.7Y-84.9
X157.7Y-85.9
X158.6Y-84.9
X158.6Y-85.9
T3
X134.96Y-128.9
X140.04Y-128.9
X145.12Y-128.9
X150.2Y-128.9
T4
X128.0Y-115.2
X128.0Y-120.7
X132.2Y-115.2
X132.2Y-120.7
T2
G00X127.0Y-108.95
M15
G01X127.0Y-106.25
M16
G05
G00X130.2Y-105.45
M15
G01X130.2Y-102.75
M16
G05
G00X137.5Y-106.95
M15
G01X137.5Y-104.25
M16
G05
T0
M30
