%TF.GenerationSoftware,KiCad,Pcbnew,(5.1.9)-1*%
%TF.CreationDate,2021-07-15T22:57:35+09:00*%
%TF.ProjectId,4710MQ Power Supply,34373130-4d51-4205-906f-776572205375,rev?*%
%TF.SameCoordinates,Original*%
%TF.FileFunction,Copper,L1,Top*%
%TF.FilePolarity,Positive*%
%FSLAX46Y46*%
G04 Gerber Fmt 4.6, Leading zero omitted, Abs format (unit mm)*
G04 Created by KiCad (PCBNEW (5.1.9)-1) date 2021-07-15 22:57:35*
%MOMM*%
%LPD*%
G01*
G04 APERTURE LIST*
%TA.AperFunction,ComponentPad*%
%ADD10O,2.000000X5.000000*%
%TD*%
%TA.AperFunction,SMDPad,CuDef*%
%ADD11R,1.061999X0.254800*%
%TD*%
%TA.AperFunction,ComponentPad*%
%ADD12O,1.800000X3.600000*%
%TD*%
%TA.AperFunction,ComponentPad*%
%ADD13O,2.700000X3.300000*%
%TD*%
%TA.AperFunction,ViaPad*%
%ADD14C,0.800000*%
%TD*%
%TA.AperFunction,Conductor*%
%ADD15C,1.000000*%
%TD*%
%TA.AperFunction,Conductor*%
%ADD16C,0.250000*%
%TD*%
%TA.AperFunction,Conductor*%
%ADD17C,0.254000*%
%TD*%
%TA.AperFunction,Conductor*%
%ADD18C,0.100000*%
%TD*%
G04 APERTURE END LIST*
D10*
%TO.P,J1,3*%
%TO.N,N/C*%
X127600000Y-99100000D03*
%TO.P,J1,2*%
%TO.N,GND*%
X124400000Y-102600000D03*
%TO.P,J1,1*%
%TO.N,+12V*%
X134900000Y-100600000D03*
%TD*%
D11*
%TO.P,U1,10*%
%TO.N,/SS*%
X144223100Y-91199999D03*
%TO.P,U1,9*%
%TO.N,+12V*%
X144223100Y-91700001D03*
%TO.P,U1,8*%
%TO.N,/SW*%
X144223100Y-92200000D03*
%TO.P,U1,7*%
%TO.N,GND*%
X144223100Y-92699999D03*
%TO.P,U1,6*%
X144223100Y-93200001D03*
%TO.P,U1,5*%
%TO.N,N/C*%
X142576900Y-93200001D03*
%TO.P,U1,4*%
%TO.N,/BST*%
X142576900Y-92699999D03*
%TO.P,U1,3*%
%TO.N,N/C*%
X142576900Y-92200000D03*
%TO.P,U1,2*%
%TO.N,/VCC*%
X142576900Y-91700001D03*
%TO.P,U1,1*%
%TO.N,/FB*%
X142576900Y-91199999D03*
%TD*%
%TO.P,R1,2*%
%TO.N,/BST*%
%TA.AperFunction,SMDPad,CuDef*%
G36*
G01*
X140487500Y-93275000D02*
X140012500Y-93275000D01*
G75*
G02*
X139775000Y-93037500I0J237500D01*
G01*
X139775000Y-92537500D01*
G75*
G02*
X140012500Y-92300000I237500J0D01*
G01*
X140487500Y-92300000D01*
G75*
G02*
X140725000Y-92537500I0J-237500D01*
G01*
X140725000Y-93037500D01*
G75*
G02*
X140487500Y-93275000I-237500J0D01*
G01*
G37*
%TD.AperFunction*%
%TO.P,R1,1*%
%TO.N,Net-(C6-Pad1)*%
%TA.AperFunction,SMDPad,CuDef*%
G36*
G01*
X140487500Y-95100000D02*
X140012500Y-95100000D01*
G75*
G02*
X139775000Y-94862500I0J237500D01*
G01*
X139775000Y-94362500D01*
G75*
G02*
X140012500Y-94125000I237500J0D01*
G01*
X140487500Y-94125000D01*
G75*
G02*
X140725000Y-94362500I0J-237500D01*
G01*
X140725000Y-94862500D01*
G75*
G02*
X140487500Y-95100000I-237500J0D01*
G01*
G37*
%TD.AperFunction*%
%TD*%
%TO.P,R2,2*%
%TO.N,/FB*%
%TA.AperFunction,SMDPad,CuDef*%
G36*
G01*
X139562500Y-90225000D02*
X140037500Y-90225000D01*
G75*
G02*
X140275000Y-90462500I0J-237500D01*
G01*
X140275000Y-90962500D01*
G75*
G02*
X140037500Y-91200000I-237500J0D01*
G01*
X139562500Y-91200000D01*
G75*
G02*
X139325000Y-90962500I0J237500D01*
G01*
X139325000Y-90462500D01*
G75*
G02*
X139562500Y-90225000I237500J0D01*
G01*
G37*
%TD.AperFunction*%
%TO.P,R2,1*%
%TO.N,Net-(C8-Pad2)*%
%TA.AperFunction,SMDPad,CuDef*%
G36*
G01*
X139562500Y-88400000D02*
X140037500Y-88400000D01*
G75*
G02*
X140275000Y-88637500I0J-237500D01*
G01*
X140275000Y-89137500D01*
G75*
G02*
X140037500Y-89375000I-237500J0D01*
G01*
X139562500Y-89375000D01*
G75*
G02*
X139325000Y-89137500I0J237500D01*
G01*
X139325000Y-88637500D01*
G75*
G02*
X139562500Y-88400000I237500J0D01*
G01*
G37*
%TD.AperFunction*%
%TD*%
%TO.P,R5,2*%
%TO.N,Net-(C8-Pad1)*%
%TA.AperFunction,SMDPad,CuDef*%
G36*
G01*
X136575000Y-84462500D02*
X136575000Y-84937500D01*
G75*
G02*
X136337500Y-85175000I-237500J0D01*
G01*
X135837500Y-85175000D01*
G75*
G02*
X135600000Y-84937500I0J237500D01*
G01*
X135600000Y-84462500D01*
G75*
G02*
X135837500Y-84225000I237500J0D01*
G01*
X136337500Y-84225000D01*
G75*
G02*
X136575000Y-84462500I0J-237500D01*
G01*
G37*
%TD.AperFunction*%
%TO.P,R5,1*%
%TO.N,+5V*%
%TA.AperFunction,SMDPad,CuDef*%
G36*
G01*
X138400000Y-84462500D02*
X138400000Y-84937500D01*
G75*
G02*
X138162500Y-85175000I-237500J0D01*
G01*
X137662500Y-85175000D01*
G75*
G02*
X137425000Y-84937500I0J237500D01*
G01*
X137425000Y-84462500D01*
G75*
G02*
X137662500Y-84225000I237500J0D01*
G01*
X138162500Y-84225000D01*
G75*
G02*
X138400000Y-84462500I0J-237500D01*
G01*
G37*
%TD.AperFunction*%
%TD*%
%TO.P,R3,2*%
%TO.N,GND*%
%TA.AperFunction,SMDPad,CuDef*%
G36*
G01*
X141837500Y-86475000D02*
X141362500Y-86475000D01*
G75*
G02*
X141125000Y-86237500I0J237500D01*
G01*
X141125000Y-85737500D01*
G75*
G02*
X141362500Y-85500000I237500J0D01*
G01*
X141837500Y-85500000D01*
G75*
G02*
X142075000Y-85737500I0J-237500D01*
G01*
X142075000Y-86237500D01*
G75*
G02*
X141837500Y-86475000I-237500J0D01*
G01*
G37*
%TD.AperFunction*%
%TO.P,R3,1*%
%TO.N,Net-(C8-Pad2)*%
%TA.AperFunction,SMDPad,CuDef*%
G36*
G01*
X141837500Y-88300000D02*
X141362500Y-88300000D01*
G75*
G02*
X141125000Y-88062500I0J237500D01*
G01*
X141125000Y-87562500D01*
G75*
G02*
X141362500Y-87325000I237500J0D01*
G01*
X141837500Y-87325000D01*
G75*
G02*
X142075000Y-87562500I0J-237500D01*
G01*
X142075000Y-88062500D01*
G75*
G02*
X141837500Y-88300000I-237500J0D01*
G01*
G37*
%TD.AperFunction*%
%TD*%
%TO.P,R4,2*%
%TO.N,Net-(C8-Pad2)*%
%TA.AperFunction,SMDPad,CuDef*%
G36*
G01*
X139562500Y-86025000D02*
X140037500Y-86025000D01*
G75*
G02*
X140275000Y-86262500I0J-237500D01*
G01*
X140275000Y-86762500D01*
G75*
G02*
X140037500Y-87000000I-237500J0D01*
G01*
X139562500Y-87000000D01*
G75*
G02*
X139325000Y-86762500I0J237500D01*
G01*
X139325000Y-86262500D01*
G75*
G02*
X139562500Y-86025000I237500J0D01*
G01*
G37*
%TD.AperFunction*%
%TO.P,R4,1*%
%TO.N,+5V*%
%TA.AperFunction,SMDPad,CuDef*%
G36*
G01*
X139562500Y-84200000D02*
X140037500Y-84200000D01*
G75*
G02*
X140275000Y-84437500I0J-237500D01*
G01*
X140275000Y-84937500D01*
G75*
G02*
X140037500Y-85175000I-237500J0D01*
G01*
X139562500Y-85175000D01*
G75*
G02*
X139325000Y-84937500I0J237500D01*
G01*
X139325000Y-84437500D01*
G75*
G02*
X139562500Y-84200000I237500J0D01*
G01*
G37*
%TD.AperFunction*%
%TD*%
%TO.P,L1,2*%
%TO.N,+5V*%
%TA.AperFunction,SMDPad,CuDef*%
G36*
G01*
X153650000Y-105150000D02*
X153650000Y-103250000D01*
G75*
G02*
X154300000Y-102600000I650000J0D01*
G01*
X155600000Y-102600000D01*
G75*
G02*
X156250000Y-103250000I0J-650000D01*
G01*
X156250000Y-105150000D01*
G75*
G02*
X155600000Y-105800000I-650000J0D01*
G01*
X154300000Y-105800000D01*
G75*
G02*
X153650000Y-105150000I0J650000D01*
G01*
G37*
%TD.AperFunction*%
%TO.P,L1,1*%
%TO.N,/SW*%
%TA.AperFunction,SMDPad,CuDef*%
G36*
G01*
X142550000Y-105150000D02*
X142550000Y-103250000D01*
G75*
G02*
X143200000Y-102600000I650000J0D01*
G01*
X144500000Y-102600000D01*
G75*
G02*
X145150000Y-103250000I0J-650000D01*
G01*
X145150000Y-105150000D01*
G75*
G02*
X144500000Y-105800000I-650000J0D01*
G01*
X143200000Y-105800000D01*
G75*
G02*
X142550000Y-105150000I0J650000D01*
G01*
G37*
%TD.AperFunction*%
%TD*%
D12*
%TO.P,J3,4*%
%TO.N,+12V*%
X132360000Y-123900000D03*
%TO.P,J3,3*%
%TO.N,GND*%
X137440000Y-123900000D03*
%TO.P,J3,2*%
X142520000Y-123900000D03*
%TO.P,J3,1*%
%TO.N,+5V*%
%TA.AperFunction,ComponentPad*%
G36*
G01*
X148500000Y-122350000D02*
X148500000Y-125450000D01*
G75*
G02*
X148250000Y-125700000I-250000J0D01*
G01*
X146950000Y-125700000D01*
G75*
G02*
X146700000Y-125450000I0J250000D01*
G01*
X146700000Y-122350000D01*
G75*
G02*
X146950000Y-122100000I250000J0D01*
G01*
X148250000Y-122100000D01*
G75*
G02*
X148500000Y-122350000I0J-250000D01*
G01*
G37*
%TD.AperFunction*%
%TD*%
D13*
%TO.P,J2,4*%
%TO.N,+12V*%
X129600000Y-115700000D03*
%TO.P,J2,3*%
X125400000Y-115700000D03*
%TO.P,J2,2*%
%TO.N,GND*%
X129600000Y-110200000D03*
%TO.P,J2,1*%
%TA.AperFunction,ComponentPad*%
G36*
G01*
X124050000Y-111599999D02*
X124050000Y-108800001D01*
G75*
G02*
X124300001Y-108550000I250001J0D01*
G01*
X126499999Y-108550000D01*
G75*
G02*
X126750000Y-108800001I0J-250001D01*
G01*
X126750000Y-111599999D01*
G75*
G02*
X126499999Y-111850000I-250001J0D01*
G01*
X124300001Y-111850000D01*
G75*
G02*
X124050000Y-111599999I0J250001D01*
G01*
G37*
%TD.AperFunction*%
%TD*%
%TO.P,C5,2*%
%TO.N,GND*%
%TA.AperFunction,SMDPad,CuDef*%
G36*
G01*
X136350000Y-91225000D02*
X136350000Y-92175000D01*
G75*
G02*
X136100000Y-92425000I-250000J0D01*
G01*
X135425000Y-92425000D01*
G75*
G02*
X135175000Y-92175000I0J250000D01*
G01*
X135175000Y-91225000D01*
G75*
G02*
X135425000Y-90975000I250000J0D01*
G01*
X136100000Y-90975000D01*
G75*
G02*
X136350000Y-91225000I0J-250000D01*
G01*
G37*
%TD.AperFunction*%
%TO.P,C5,1*%
%TO.N,/VCC*%
%TA.AperFunction,SMDPad,CuDef*%
G36*
G01*
X138425000Y-91225000D02*
X138425000Y-92175000D01*
G75*
G02*
X138175000Y-92425000I-250000J0D01*
G01*
X137500000Y-92425000D01*
G75*
G02*
X137250000Y-92175000I0J250000D01*
G01*
X137250000Y-91225000D01*
G75*
G02*
X137500000Y-90975000I250000J0D01*
G01*
X138175000Y-90975000D01*
G75*
G02*
X138425000Y-91225000I0J-250000D01*
G01*
G37*
%TD.AperFunction*%
%TD*%
%TO.P,C3,2*%
%TO.N,GND*%
%TA.AperFunction,SMDPad,CuDef*%
G36*
G01*
X144175000Y-86450000D02*
X143225000Y-86450000D01*
G75*
G02*
X142975000Y-86200000I0J250000D01*
G01*
X142975000Y-85525000D01*
G75*
G02*
X143225000Y-85275000I250000J0D01*
G01*
X144175000Y-85275000D01*
G75*
G02*
X144425000Y-85525000I0J-250000D01*
G01*
X144425000Y-86200000D01*
G75*
G02*
X144175000Y-86450000I-250000J0D01*
G01*
G37*
%TD.AperFunction*%
%TO.P,C3,1*%
%TO.N,/SS*%
%TA.AperFunction,SMDPad,CuDef*%
G36*
G01*
X144175000Y-88525000D02*
X143225000Y-88525000D01*
G75*
G02*
X142975000Y-88275000I0J250000D01*
G01*
X142975000Y-87600000D01*
G75*
G02*
X143225000Y-87350000I250000J0D01*
G01*
X144175000Y-87350000D01*
G75*
G02*
X144425000Y-87600000I0J-250000D01*
G01*
X144425000Y-88275000D01*
G75*
G02*
X144175000Y-88525000I-250000J0D01*
G01*
G37*
%TD.AperFunction*%
%TD*%
%TO.P,C2,2*%
%TO.N,GND*%
%TA.AperFunction,SMDPad,CuDef*%
G36*
G01*
X153249998Y-94100000D02*
X154550002Y-94100000D01*
G75*
G02*
X154800000Y-94349998I0J-249998D01*
G01*
X154800000Y-95175002D01*
G75*
G02*
X154550002Y-95425000I-249998J0D01*
G01*
X153249998Y-95425000D01*
G75*
G02*
X153000000Y-95175002I0J249998D01*
G01*
X153000000Y-94349998D01*
G75*
G02*
X153249998Y-94100000I249998J0D01*
G01*
G37*
%TD.AperFunction*%
%TO.P,C2,1*%
%TO.N,+12V*%
%TA.AperFunction,SMDPad,CuDef*%
G36*
G01*
X153249998Y-90975000D02*
X154550002Y-90975000D01*
G75*
G02*
X154800000Y-91224998I0J-249998D01*
G01*
X154800000Y-92050002D01*
G75*
G02*
X154550002Y-92300000I-249998J0D01*
G01*
X153249998Y-92300000D01*
G75*
G02*
X153000000Y-92050002I0J249998D01*
G01*
X153000000Y-91224998D01*
G75*
G02*
X153249998Y-90975000I249998J0D01*
G01*
G37*
%TD.AperFunction*%
%TD*%
%TO.P,C9,2*%
%TO.N,GND*%
%TA.AperFunction,SMDPad,CuDef*%
G36*
G01*
X148500000Y-112549998D02*
X148500000Y-113850002D01*
G75*
G02*
X148250002Y-114100000I-249998J0D01*
G01*
X147424998Y-114100000D01*
G75*
G02*
X147175000Y-113850002I0J249998D01*
G01*
X147175000Y-112549998D01*
G75*
G02*
X147424998Y-112300000I249998J0D01*
G01*
X148250002Y-112300000D01*
G75*
G02*
X148500000Y-112549998I0J-249998D01*
G01*
G37*
%TD.AperFunction*%
%TO.P,C9,1*%
%TO.N,+5V*%
%TA.AperFunction,SMDPad,CuDef*%
G36*
G01*
X151625000Y-112549998D02*
X151625000Y-113850002D01*
G75*
G02*
X151375002Y-114100000I-249998J0D01*
G01*
X150549998Y-114100000D01*
G75*
G02*
X150300000Y-113850002I0J249998D01*
G01*
X150300000Y-112549998D01*
G75*
G02*
X150549998Y-112300000I249998J0D01*
G01*
X151375002Y-112300000D01*
G75*
G02*
X151625000Y-112549998I0J-249998D01*
G01*
G37*
%TD.AperFunction*%
%TD*%
%TO.P,C8,2*%
%TO.N,Net-(C8-Pad2)*%
%TA.AperFunction,SMDPad,CuDef*%
G36*
G01*
X137250000Y-87275000D02*
X137250000Y-86325000D01*
G75*
G02*
X137500000Y-86075000I250000J0D01*
G01*
X138175000Y-86075000D01*
G75*
G02*
X138425000Y-86325000I0J-250000D01*
G01*
X138425000Y-87275000D01*
G75*
G02*
X138175000Y-87525000I-250000J0D01*
G01*
X137500000Y-87525000D01*
G75*
G02*
X137250000Y-87275000I0J250000D01*
G01*
G37*
%TD.AperFunction*%
%TO.P,C8,1*%
%TO.N,Net-(C8-Pad1)*%
%TA.AperFunction,SMDPad,CuDef*%
G36*
G01*
X135175000Y-87275000D02*
X135175000Y-86325000D01*
G75*
G02*
X135425000Y-86075000I250000J0D01*
G01*
X136100000Y-86075000D01*
G75*
G02*
X136350000Y-86325000I0J-250000D01*
G01*
X136350000Y-87275000D01*
G75*
G02*
X136100000Y-87525000I-250000J0D01*
G01*
X135425000Y-87525000D01*
G75*
G02*
X135175000Y-87275000I0J250000D01*
G01*
G37*
%TD.AperFunction*%
%TD*%
%TO.P,C6,2*%
%TO.N,/SW*%
%TA.AperFunction,SMDPad,CuDef*%
G36*
G01*
X141850000Y-97175000D02*
X141850000Y-96225000D01*
G75*
G02*
X142100000Y-95975000I250000J0D01*
G01*
X142775000Y-95975000D01*
G75*
G02*
X143025000Y-96225000I0J-250000D01*
G01*
X143025000Y-97175000D01*
G75*
G02*
X142775000Y-97425000I-250000J0D01*
G01*
X142100000Y-97425000D01*
G75*
G02*
X141850000Y-97175000I0J250000D01*
G01*
G37*
%TD.AperFunction*%
%TO.P,C6,1*%
%TO.N,Net-(C6-Pad1)*%
%TA.AperFunction,SMDPad,CuDef*%
G36*
G01*
X139775000Y-97175000D02*
X139775000Y-96225000D01*
G75*
G02*
X140025000Y-95975000I250000J0D01*
G01*
X140700000Y-95975000D01*
G75*
G02*
X140950000Y-96225000I0J-250000D01*
G01*
X140950000Y-97175000D01*
G75*
G02*
X140700000Y-97425000I-250000J0D01*
G01*
X140025000Y-97425000D01*
G75*
G02*
X139775000Y-97175000I0J250000D01*
G01*
G37*
%TD.AperFunction*%
%TD*%
%TO.P,C10,2*%
%TO.N,GND*%
%TA.AperFunction,SMDPad,CuDef*%
G36*
G01*
X148950000Y-117725000D02*
X148950000Y-118675000D01*
G75*
G02*
X148700000Y-118925000I-250000J0D01*
G01*
X148025000Y-118925000D01*
G75*
G02*
X147775000Y-118675000I0J250000D01*
G01*
X147775000Y-117725000D01*
G75*
G02*
X148025000Y-117475000I250000J0D01*
G01*
X148700000Y-117475000D01*
G75*
G02*
X148950000Y-117725000I0J-250000D01*
G01*
G37*
%TD.AperFunction*%
%TO.P,C10,1*%
%TO.N,+5V*%
%TA.AperFunction,SMDPad,CuDef*%
G36*
G01*
X151025000Y-117725000D02*
X151025000Y-118675000D01*
G75*
G02*
X150775000Y-118925000I-250000J0D01*
G01*
X150100000Y-118925000D01*
G75*
G02*
X149850000Y-118675000I0J250000D01*
G01*
X149850000Y-117725000D01*
G75*
G02*
X150100000Y-117475000I250000J0D01*
G01*
X150775000Y-117475000D01*
G75*
G02*
X151025000Y-117725000I0J-250000D01*
G01*
G37*
%TD.AperFunction*%
%TD*%
%TO.P,C7,2*%
%TO.N,GND*%
%TA.AperFunction,SMDPad,CuDef*%
G36*
G01*
X148500000Y-115049998D02*
X148500000Y-116350002D01*
G75*
G02*
X148250002Y-116600000I-249998J0D01*
G01*
X147424998Y-116600000D01*
G75*
G02*
X147175000Y-116350002I0J249998D01*
G01*
X147175000Y-115049998D01*
G75*
G02*
X147424998Y-114800000I249998J0D01*
G01*
X148250002Y-114800000D01*
G75*
G02*
X148500000Y-115049998I0J-249998D01*
G01*
G37*
%TD.AperFunction*%
%TO.P,C7,1*%
%TO.N,+5V*%
%TA.AperFunction,SMDPad,CuDef*%
G36*
G01*
X151625000Y-115049998D02*
X151625000Y-116350002D01*
G75*
G02*
X151375002Y-116600000I-249998J0D01*
G01*
X150549998Y-116600000D01*
G75*
G02*
X150300000Y-116350002I0J249998D01*
G01*
X150300000Y-115049998D01*
G75*
G02*
X150549998Y-114800000I249998J0D01*
G01*
X151375002Y-114800000D01*
G75*
G02*
X151625000Y-115049998I0J-249998D01*
G01*
G37*
%TD.AperFunction*%
%TD*%
%TO.P,C4,2*%
%TO.N,GND*%
%TA.AperFunction,SMDPad,CuDef*%
G36*
G01*
X155925000Y-93650000D02*
X156875000Y-93650000D01*
G75*
G02*
X157125000Y-93900000I0J-250000D01*
G01*
X157125000Y-94575000D01*
G75*
G02*
X156875000Y-94825000I-250000J0D01*
G01*
X155925000Y-94825000D01*
G75*
G02*
X155675000Y-94575000I0J250000D01*
G01*
X155675000Y-93900000D01*
G75*
G02*
X155925000Y-93650000I250000J0D01*
G01*
G37*
%TD.AperFunction*%
%TO.P,C4,1*%
%TO.N,+12V*%
%TA.AperFunction,SMDPad,CuDef*%
G36*
G01*
X155925000Y-91575000D02*
X156875000Y-91575000D01*
G75*
G02*
X157125000Y-91825000I0J-250000D01*
G01*
X157125000Y-92500000D01*
G75*
G02*
X156875000Y-92750000I-250000J0D01*
G01*
X155925000Y-92750000D01*
G75*
G02*
X155675000Y-92500000I0J250000D01*
G01*
X155675000Y-91825000D01*
G75*
G02*
X155925000Y-91575000I250000J0D01*
G01*
G37*
%TD.AperFunction*%
%TD*%
%TO.P,C1,2*%
%TO.N,GND*%
%TA.AperFunction,SMDPad,CuDef*%
G36*
G01*
X150249998Y-94100000D02*
X151550002Y-94100000D01*
G75*
G02*
X151800000Y-94349998I0J-249998D01*
G01*
X151800000Y-95175002D01*
G75*
G02*
X151550002Y-95425000I-249998J0D01*
G01*
X150249998Y-95425000D01*
G75*
G02*
X150000000Y-95175002I0J249998D01*
G01*
X150000000Y-94349998D01*
G75*
G02*
X150249998Y-94100000I249998J0D01*
G01*
G37*
%TD.AperFunction*%
%TO.P,C1,1*%
%TO.N,+12V*%
%TA.AperFunction,SMDPad,CuDef*%
G36*
G01*
X150249998Y-90975000D02*
X151550002Y-90975000D01*
G75*
G02*
X151800000Y-91224998I0J-249998D01*
G01*
X151800000Y-92050002D01*
G75*
G02*
X151550002Y-92300000I-249998J0D01*
G01*
X150249998Y-92300000D01*
G75*
G02*
X150000000Y-92050002I0J249998D01*
G01*
X150000000Y-91224998D01*
G75*
G02*
X150249998Y-90975000I249998J0D01*
G01*
G37*
%TD.AperFunction*%
%TD*%
D14*
%TO.N,GND*%
X122000000Y-92000000D03*
X123000000Y-92000000D03*
X124000000Y-92000000D03*
X125000000Y-92000000D03*
X126000000Y-92000000D03*
X126000000Y-91000000D03*
X125000000Y-91000000D03*
X124000000Y-91000000D03*
X123000000Y-91000000D03*
X122000000Y-91000000D03*
X122000000Y-90000000D03*
X123000000Y-90000000D03*
X124000000Y-90000000D03*
X125000000Y-90000000D03*
X126000000Y-90000000D03*
X126000000Y-89000000D03*
X125000000Y-89000000D03*
X124000000Y-89000000D03*
X123000000Y-89000000D03*
X122000000Y-89000000D03*
X122000000Y-88000000D03*
X123000000Y-88000000D03*
X124000000Y-88000000D03*
X125000000Y-88000000D03*
X126000000Y-88000000D03*
X126000000Y-87000000D03*
X125000000Y-87000000D03*
X124000000Y-87000000D03*
X123000000Y-87000000D03*
X122000000Y-87000000D03*
X122000000Y-86000000D03*
X123000000Y-86000000D03*
X124000000Y-86000000D03*
X125000000Y-86000000D03*
X126000000Y-86000000D03*
%TO.N,+12V*%
X146100000Y-87800000D03*
X147000000Y-87800000D03*
X147900000Y-87800000D03*
X148800000Y-87800000D03*
X148800000Y-88700000D03*
X147900000Y-88700000D03*
X147000000Y-88700000D03*
X146100000Y-88700000D03*
X146100000Y-89600000D03*
X147000000Y-89600000D03*
X147900000Y-89600000D03*
X148800000Y-89600000D03*
X148800000Y-90500000D03*
X147900000Y-90500000D03*
X147000000Y-90500000D03*
X146100000Y-90500000D03*
%TO.N,+5V*%
X141400000Y-84700000D03*
X155000000Y-107200000D03*
%TO.N,/SW*%
X148500000Y-98500000D03*
X147500000Y-98500000D03*
X146500000Y-98500000D03*
X145500000Y-98500000D03*
X145500000Y-99500000D03*
X146500000Y-99500000D03*
X147500000Y-99500000D03*
X148500000Y-99500000D03*
X148500000Y-100500000D03*
X147500000Y-100500000D03*
X146500000Y-100500000D03*
X145500000Y-100500000D03*
X145500000Y-101500000D03*
X146500000Y-101500000D03*
X147500000Y-101500000D03*
X148500000Y-101500000D03*
X147100000Y-94600000D03*
X146200000Y-94600000D03*
X147100000Y-93700000D03*
X146200000Y-93700000D03*
X148000000Y-93700000D03*
X148000000Y-94600000D03*
X148000000Y-92800000D03*
X147100000Y-92800000D03*
X146200000Y-92800000D03*
%TD*%
D15*
%TO.N,GND*%
X141725000Y-85862500D02*
X141600000Y-85987500D01*
X143700000Y-85862500D02*
X141725000Y-85862500D01*
D16*
%TO.N,+12V*%
X146300000Y-90900000D02*
X146300000Y-91400000D01*
X144223100Y-91700001D02*
X145004099Y-91700001D01*
X145004099Y-91700001D02*
X149399999Y-91700001D01*
X145252050Y-91452050D02*
X149152050Y-91452050D01*
X145004099Y-91700001D02*
X145252050Y-91452050D01*
X145252050Y-91452050D02*
X145700000Y-91004100D01*
D15*
%TO.N,+5V*%
X137912500Y-84700000D02*
X141400000Y-84700000D01*
%TO.N,Net-(C6-Pad1)*%
X140250000Y-96587500D02*
X140362500Y-96700000D01*
X140250000Y-94612500D02*
X140250000Y-96587500D01*
%TO.N,Net-(C8-Pad2)*%
X140525000Y-88887500D02*
X141600000Y-87812500D01*
X139800000Y-88887500D02*
X140525000Y-88887500D01*
X141100000Y-87812500D02*
X139800000Y-86512500D01*
X141600000Y-87812500D02*
X141100000Y-87812500D01*
X138125000Y-86512500D02*
X137837500Y-86800000D01*
X139800000Y-86512500D02*
X138125000Y-86512500D01*
X139800000Y-88762500D02*
X137837500Y-86800000D01*
X139800000Y-88887500D02*
X139800000Y-88762500D01*
X139800000Y-86512500D02*
X139800000Y-88887500D01*
X140300000Y-88387500D02*
X139800000Y-88887500D01*
X140300000Y-88000000D02*
X140300000Y-88387500D01*
X139800000Y-88887500D02*
X139800000Y-88000000D01*
X139800000Y-88000000D02*
X139000000Y-87200000D01*
%TO.N,Net-(C8-Pad1)*%
X135762500Y-85025000D02*
X136087500Y-84700000D01*
X135762500Y-86800000D02*
X135762500Y-85025000D01*
D16*
%TO.N,/SW*%
X144223100Y-92200000D02*
X146900000Y-92200000D01*
D15*
%TO.N,/SS*%
X143700000Y-90349500D02*
X144223100Y-90872600D01*
X143700000Y-87937500D02*
X143700000Y-90349500D01*
D16*
%TO.N,/VCC*%
X141795900Y-91700000D02*
X137837500Y-91700000D01*
X142576900Y-91700001D02*
X141795900Y-91700000D01*
%TO.N,/FB*%
X140287499Y-91199999D02*
X139800000Y-90712500D01*
X142576900Y-91199999D02*
X140287499Y-91199999D01*
%TO.N,/BST*%
X140337501Y-92699999D02*
X140250000Y-92787500D01*
X142900000Y-92700000D02*
X140160601Y-92700000D01*
%TD*%
D17*
%TO.N,+5V*%
X159340000Y-128340000D02*
X146027000Y-128340000D01*
X146027000Y-125700000D01*
X146061928Y-125700000D01*
X146074188Y-125824482D01*
X146110498Y-125944180D01*
X146169463Y-126054494D01*
X146248815Y-126151185D01*
X146345506Y-126230537D01*
X146455820Y-126289502D01*
X146575518Y-126325812D01*
X146700000Y-126338072D01*
X147314250Y-126335000D01*
X147473000Y-126176250D01*
X147473000Y-124027000D01*
X147727000Y-124027000D01*
X147727000Y-126176250D01*
X147885750Y-126335000D01*
X148500000Y-126338072D01*
X148624482Y-126325812D01*
X148744180Y-126289502D01*
X148854494Y-126230537D01*
X148951185Y-126151185D01*
X149030537Y-126054494D01*
X149089502Y-125944180D01*
X149125812Y-125824482D01*
X149138072Y-125700000D01*
X149135000Y-124185750D01*
X148976250Y-124027000D01*
X147727000Y-124027000D01*
X147473000Y-124027000D01*
X146223750Y-124027000D01*
X146065000Y-124185750D01*
X146061928Y-125700000D01*
X146027000Y-125700000D01*
X146027000Y-122100000D01*
X146061928Y-122100000D01*
X146065000Y-123614250D01*
X146223750Y-123773000D01*
X147473000Y-123773000D01*
X147473000Y-121623750D01*
X147727000Y-121623750D01*
X147727000Y-123773000D01*
X148976250Y-123773000D01*
X149109953Y-123639297D01*
X151337720Y-123639297D01*
X151337720Y-124360703D01*
X151478460Y-125068248D01*
X151754530Y-125734740D01*
X152155322Y-126334567D01*
X152665433Y-126844678D01*
X153265260Y-127245470D01*
X153931752Y-127521540D01*
X154639297Y-127662280D01*
X155360703Y-127662280D01*
X156068248Y-127521540D01*
X156734740Y-127245470D01*
X157334567Y-126844678D01*
X157844678Y-126334567D01*
X158245470Y-125734740D01*
X158521540Y-125068248D01*
X158662280Y-124360703D01*
X158662280Y-123639297D01*
X158521540Y-122931752D01*
X158245470Y-122265260D01*
X157844678Y-121665433D01*
X157334567Y-121155322D01*
X156734740Y-120754530D01*
X156068248Y-120478460D01*
X155360703Y-120337720D01*
X154639297Y-120337720D01*
X153931752Y-120478460D01*
X153265260Y-120754530D01*
X152665433Y-121155322D01*
X152155322Y-121665433D01*
X151754530Y-122265260D01*
X151478460Y-122931752D01*
X151337720Y-123639297D01*
X149109953Y-123639297D01*
X149135000Y-123614250D01*
X149138072Y-122100000D01*
X149125812Y-121975518D01*
X149089502Y-121855820D01*
X149030537Y-121745506D01*
X148951185Y-121648815D01*
X148854494Y-121569463D01*
X148744180Y-121510498D01*
X148624482Y-121474188D01*
X148500000Y-121461928D01*
X147885750Y-121465000D01*
X147727000Y-121623750D01*
X147473000Y-121623750D01*
X147314250Y-121465000D01*
X146700000Y-121461928D01*
X146575518Y-121474188D01*
X146455820Y-121510498D01*
X146345506Y-121569463D01*
X146248815Y-121648815D01*
X146169463Y-121745506D01*
X146110498Y-121855820D01*
X146074188Y-121975518D01*
X146061928Y-122100000D01*
X146027000Y-122100000D01*
X146027000Y-120627000D01*
X149800000Y-120627000D01*
X149824776Y-120624560D01*
X149848601Y-120617333D01*
X149870557Y-120605597D01*
X149889803Y-120589803D01*
X149905597Y-120570557D01*
X149917333Y-120548601D01*
X149924560Y-120524776D01*
X149927000Y-120500000D01*
X149927000Y-119562288D01*
X150151750Y-119560000D01*
X150310500Y-119401250D01*
X150310500Y-118327000D01*
X150564500Y-118327000D01*
X150564500Y-119401250D01*
X150723250Y-119560000D01*
X151025000Y-119563072D01*
X151149482Y-119550812D01*
X151269180Y-119514502D01*
X151379494Y-119455537D01*
X151476185Y-119376185D01*
X151555537Y-119279494D01*
X151614502Y-119169180D01*
X151650812Y-119049482D01*
X151663072Y-118925000D01*
X151660000Y-118485750D01*
X151501250Y-118327000D01*
X150564500Y-118327000D01*
X150310500Y-118327000D01*
X150290500Y-118327000D01*
X150290500Y-118073000D01*
X150310500Y-118073000D01*
X150310500Y-118053000D01*
X150564500Y-118053000D01*
X150564500Y-118073000D01*
X151501250Y-118073000D01*
X151660000Y-117914250D01*
X151663072Y-117475000D01*
X151650812Y-117350518D01*
X151616681Y-117238004D01*
X151625000Y-117238072D01*
X151749482Y-117225812D01*
X151869180Y-117189502D01*
X151979494Y-117130537D01*
X152076185Y-117051185D01*
X152155537Y-116954494D01*
X152214502Y-116844180D01*
X152250812Y-116724482D01*
X152263072Y-116600000D01*
X152260000Y-115985750D01*
X152101250Y-115827000D01*
X151089500Y-115827000D01*
X151089500Y-115847000D01*
X150835500Y-115847000D01*
X150835500Y-115827000D01*
X150815500Y-115827000D01*
X150815500Y-115573000D01*
X150835500Y-115573000D01*
X150835500Y-113327000D01*
X151089500Y-113327000D01*
X151089500Y-115573000D01*
X152101250Y-115573000D01*
X152260000Y-115414250D01*
X152263072Y-114800000D01*
X152250812Y-114675518D01*
X152214502Y-114555820D01*
X152157939Y-114450000D01*
X152214502Y-114344180D01*
X152250812Y-114224482D01*
X152263072Y-114100000D01*
X152260000Y-113485750D01*
X152101250Y-113327000D01*
X151089500Y-113327000D01*
X150835500Y-113327000D01*
X150815500Y-113327000D01*
X150815500Y-113073000D01*
X150835500Y-113073000D01*
X150835500Y-111823750D01*
X151089500Y-111823750D01*
X151089500Y-113073000D01*
X152101250Y-113073000D01*
X152260000Y-112914250D01*
X152263072Y-112300000D01*
X152250812Y-112175518D01*
X152214502Y-112055820D01*
X152155537Y-111945506D01*
X152076185Y-111848815D01*
X151979494Y-111769463D01*
X151869180Y-111710498D01*
X151749482Y-111674188D01*
X151625000Y-111661928D01*
X151248250Y-111665000D01*
X151089500Y-111823750D01*
X150835500Y-111823750D01*
X150676750Y-111665000D01*
X150300000Y-111661928D01*
X150175518Y-111674188D01*
X150055820Y-111710498D01*
X149945506Y-111769463D01*
X149927000Y-111784650D01*
X149927000Y-105800000D01*
X153011928Y-105800000D01*
X153024188Y-105924482D01*
X153060498Y-106044180D01*
X153119463Y-106154494D01*
X153198815Y-106251185D01*
X153295506Y-106330537D01*
X153405820Y-106389502D01*
X153525518Y-106425812D01*
X153650000Y-106438072D01*
X154664250Y-106435000D01*
X154823000Y-106276250D01*
X154823000Y-104327000D01*
X155077000Y-104327000D01*
X155077000Y-106276250D01*
X155235750Y-106435000D01*
X156250000Y-106438072D01*
X156374482Y-106425812D01*
X156494180Y-106389502D01*
X156604494Y-106330537D01*
X156701185Y-106251185D01*
X156780537Y-106154494D01*
X156839502Y-106044180D01*
X156875812Y-105924482D01*
X156888072Y-105800000D01*
X156885000Y-104485750D01*
X156726250Y-104327000D01*
X155077000Y-104327000D01*
X154823000Y-104327000D01*
X153173750Y-104327000D01*
X153015000Y-104485750D01*
X153011928Y-105800000D01*
X149927000Y-105800000D01*
X149927000Y-102600000D01*
X153011928Y-102600000D01*
X153015000Y-103914250D01*
X153173750Y-104073000D01*
X154823000Y-104073000D01*
X154823000Y-102123750D01*
X155077000Y-102123750D01*
X155077000Y-104073000D01*
X156726250Y-104073000D01*
X156885000Y-103914250D01*
X156888072Y-102600000D01*
X156875812Y-102475518D01*
X156839502Y-102355820D01*
X156780537Y-102245506D01*
X156701185Y-102148815D01*
X156604494Y-102069463D01*
X156494180Y-102010498D01*
X156374482Y-101974188D01*
X156250000Y-101961928D01*
X155235750Y-101965000D01*
X155077000Y-102123750D01*
X154823000Y-102123750D01*
X154664250Y-101965000D01*
X153650000Y-101961928D01*
X153525518Y-101974188D01*
X153405820Y-102010498D01*
X153295506Y-102069463D01*
X153198815Y-102148815D01*
X153119463Y-102245506D01*
X153060498Y-102355820D01*
X153024188Y-102475518D01*
X153011928Y-102600000D01*
X149927000Y-102600000D01*
X149927000Y-97827000D01*
X159340001Y-97827000D01*
X159340000Y-128340000D01*
%TA.AperFunction,Conductor*%
D18*
G36*
X159340000Y-128340000D02*
G01*
X146027000Y-128340000D01*
X146027000Y-125700000D01*
X146061928Y-125700000D01*
X146074188Y-125824482D01*
X146110498Y-125944180D01*
X146169463Y-126054494D01*
X146248815Y-126151185D01*
X146345506Y-126230537D01*
X146455820Y-126289502D01*
X146575518Y-126325812D01*
X146700000Y-126338072D01*
X147314250Y-126335000D01*
X147473000Y-126176250D01*
X147473000Y-124027000D01*
X147727000Y-124027000D01*
X147727000Y-126176250D01*
X147885750Y-126335000D01*
X148500000Y-126338072D01*
X148624482Y-126325812D01*
X148744180Y-126289502D01*
X148854494Y-126230537D01*
X148951185Y-126151185D01*
X149030537Y-126054494D01*
X149089502Y-125944180D01*
X149125812Y-125824482D01*
X149138072Y-125700000D01*
X149135000Y-124185750D01*
X148976250Y-124027000D01*
X147727000Y-124027000D01*
X147473000Y-124027000D01*
X146223750Y-124027000D01*
X146065000Y-124185750D01*
X146061928Y-125700000D01*
X146027000Y-125700000D01*
X146027000Y-122100000D01*
X146061928Y-122100000D01*
X146065000Y-123614250D01*
X146223750Y-123773000D01*
X147473000Y-123773000D01*
X147473000Y-121623750D01*
X147727000Y-121623750D01*
X147727000Y-123773000D01*
X148976250Y-123773000D01*
X149109953Y-123639297D01*
X151337720Y-123639297D01*
X151337720Y-124360703D01*
X151478460Y-125068248D01*
X151754530Y-125734740D01*
X152155322Y-126334567D01*
X152665433Y-126844678D01*
X153265260Y-127245470D01*
X153931752Y-127521540D01*
X154639297Y-127662280D01*
X155360703Y-127662280D01*
X156068248Y-127521540D01*
X156734740Y-127245470D01*
X157334567Y-126844678D01*
X157844678Y-126334567D01*
X158245470Y-125734740D01*
X158521540Y-125068248D01*
X158662280Y-124360703D01*
X158662280Y-123639297D01*
X158521540Y-122931752D01*
X158245470Y-122265260D01*
X157844678Y-121665433D01*
X157334567Y-121155322D01*
X156734740Y-120754530D01*
X156068248Y-120478460D01*
X155360703Y-120337720D01*
X154639297Y-120337720D01*
X153931752Y-120478460D01*
X153265260Y-120754530D01*
X152665433Y-121155322D01*
X152155322Y-121665433D01*
X151754530Y-122265260D01*
X151478460Y-122931752D01*
X151337720Y-123639297D01*
X149109953Y-123639297D01*
X149135000Y-123614250D01*
X149138072Y-122100000D01*
X149125812Y-121975518D01*
X149089502Y-121855820D01*
X149030537Y-121745506D01*
X148951185Y-121648815D01*
X148854494Y-121569463D01*
X148744180Y-121510498D01*
X148624482Y-121474188D01*
X148500000Y-121461928D01*
X147885750Y-121465000D01*
X147727000Y-121623750D01*
X147473000Y-121623750D01*
X147314250Y-121465000D01*
X146700000Y-121461928D01*
X146575518Y-121474188D01*
X146455820Y-121510498D01*
X146345506Y-121569463D01*
X146248815Y-121648815D01*
X146169463Y-121745506D01*
X146110498Y-121855820D01*
X146074188Y-121975518D01*
X146061928Y-122100000D01*
X146027000Y-122100000D01*
X146027000Y-120627000D01*
X149800000Y-120627000D01*
X149824776Y-120624560D01*
X149848601Y-120617333D01*
X149870557Y-120605597D01*
X149889803Y-120589803D01*
X149905597Y-120570557D01*
X149917333Y-120548601D01*
X149924560Y-120524776D01*
X149927000Y-120500000D01*
X149927000Y-119562288D01*
X150151750Y-119560000D01*
X150310500Y-119401250D01*
X150310500Y-118327000D01*
X150564500Y-118327000D01*
X150564500Y-119401250D01*
X150723250Y-119560000D01*
X151025000Y-119563072D01*
X151149482Y-119550812D01*
X151269180Y-119514502D01*
X151379494Y-119455537D01*
X151476185Y-119376185D01*
X151555537Y-119279494D01*
X151614502Y-119169180D01*
X151650812Y-119049482D01*
X151663072Y-118925000D01*
X151660000Y-118485750D01*
X151501250Y-118327000D01*
X150564500Y-118327000D01*
X150310500Y-118327000D01*
X150290500Y-118327000D01*
X150290500Y-118073000D01*
X150310500Y-118073000D01*
X150310500Y-118053000D01*
X150564500Y-118053000D01*
X150564500Y-118073000D01*
X151501250Y-118073000D01*
X151660000Y-117914250D01*
X151663072Y-117475000D01*
X151650812Y-117350518D01*
X151616681Y-117238004D01*
X151625000Y-117238072D01*
X151749482Y-117225812D01*
X151869180Y-117189502D01*
X151979494Y-117130537D01*
X152076185Y-117051185D01*
X152155537Y-116954494D01*
X152214502Y-116844180D01*
X152250812Y-116724482D01*
X152263072Y-116600000D01*
X152260000Y-115985750D01*
X152101250Y-115827000D01*
X151089500Y-115827000D01*
X151089500Y-115847000D01*
X150835500Y-115847000D01*
X150835500Y-115827000D01*
X150815500Y-115827000D01*
X150815500Y-115573000D01*
X150835500Y-115573000D01*
X150835500Y-113327000D01*
X151089500Y-113327000D01*
X151089500Y-115573000D01*
X152101250Y-115573000D01*
X152260000Y-115414250D01*
X152263072Y-114800000D01*
X152250812Y-114675518D01*
X152214502Y-114555820D01*
X152157939Y-114450000D01*
X152214502Y-114344180D01*
X152250812Y-114224482D01*
X152263072Y-114100000D01*
X152260000Y-113485750D01*
X152101250Y-113327000D01*
X151089500Y-113327000D01*
X150835500Y-113327000D01*
X150815500Y-113327000D01*
X150815500Y-113073000D01*
X150835500Y-113073000D01*
X150835500Y-111823750D01*
X151089500Y-111823750D01*
X151089500Y-113073000D01*
X152101250Y-113073000D01*
X152260000Y-112914250D01*
X152263072Y-112300000D01*
X152250812Y-112175518D01*
X152214502Y-112055820D01*
X152155537Y-111945506D01*
X152076185Y-111848815D01*
X151979494Y-111769463D01*
X151869180Y-111710498D01*
X151749482Y-111674188D01*
X151625000Y-111661928D01*
X151248250Y-111665000D01*
X151089500Y-111823750D01*
X150835500Y-111823750D01*
X150676750Y-111665000D01*
X150300000Y-111661928D01*
X150175518Y-111674188D01*
X150055820Y-111710498D01*
X149945506Y-111769463D01*
X149927000Y-111784650D01*
X149927000Y-105800000D01*
X153011928Y-105800000D01*
X153024188Y-105924482D01*
X153060498Y-106044180D01*
X153119463Y-106154494D01*
X153198815Y-106251185D01*
X153295506Y-106330537D01*
X153405820Y-106389502D01*
X153525518Y-106425812D01*
X153650000Y-106438072D01*
X154664250Y-106435000D01*
X154823000Y-106276250D01*
X154823000Y-104327000D01*
X155077000Y-104327000D01*
X155077000Y-106276250D01*
X155235750Y-106435000D01*
X156250000Y-106438072D01*
X156374482Y-106425812D01*
X156494180Y-106389502D01*
X156604494Y-106330537D01*
X156701185Y-106251185D01*
X156780537Y-106154494D01*
X156839502Y-106044180D01*
X156875812Y-105924482D01*
X156888072Y-105800000D01*
X156885000Y-104485750D01*
X156726250Y-104327000D01*
X155077000Y-104327000D01*
X154823000Y-104327000D01*
X153173750Y-104327000D01*
X153015000Y-104485750D01*
X153011928Y-105800000D01*
X149927000Y-105800000D01*
X149927000Y-102600000D01*
X153011928Y-102600000D01*
X153015000Y-103914250D01*
X153173750Y-104073000D01*
X154823000Y-104073000D01*
X154823000Y-102123750D01*
X155077000Y-102123750D01*
X155077000Y-104073000D01*
X156726250Y-104073000D01*
X156885000Y-103914250D01*
X156888072Y-102600000D01*
X156875812Y-102475518D01*
X156839502Y-102355820D01*
X156780537Y-102245506D01*
X156701185Y-102148815D01*
X156604494Y-102069463D01*
X156494180Y-102010498D01*
X156374482Y-101974188D01*
X156250000Y-101961928D01*
X155235750Y-101965000D01*
X155077000Y-102123750D01*
X154823000Y-102123750D01*
X154664250Y-101965000D01*
X153650000Y-101961928D01*
X153525518Y-101974188D01*
X153405820Y-102010498D01*
X153295506Y-102069463D01*
X153198815Y-102148815D01*
X153119463Y-102245506D01*
X153060498Y-102355820D01*
X153024188Y-102475518D01*
X153011928Y-102600000D01*
X149927000Y-102600000D01*
X149927000Y-97827000D01*
X159340001Y-97827000D01*
X159340000Y-128340000D01*
G37*
%TD.AperFunction*%
%TD*%
D17*
%TO.N,GND*%
X148979757Y-111975056D02*
X148909975Y-111890025D01*
X148822115Y-111817921D01*
X148721877Y-111764342D01*
X148613112Y-111731349D01*
X148500000Y-111720208D01*
X148108750Y-111723000D01*
X147964500Y-111867250D01*
X147964500Y-113073000D01*
X147984500Y-113073000D01*
X147984500Y-113327000D01*
X147964500Y-113327000D01*
X147964500Y-115573000D01*
X147984500Y-115573000D01*
X147984500Y-115827000D01*
X147964500Y-115827000D01*
X147964500Y-115847000D01*
X147710500Y-115847000D01*
X147710500Y-115827000D01*
X146742250Y-115827000D01*
X146598000Y-115971250D01*
X146595208Y-116600000D01*
X146606349Y-116713112D01*
X146639342Y-116821877D01*
X146692921Y-116922115D01*
X146765025Y-117009975D01*
X146852885Y-117082079D01*
X146953123Y-117135658D01*
X147061888Y-117168651D01*
X147175000Y-117179792D01*
X147278935Y-117179050D01*
X147239342Y-117253123D01*
X147206349Y-117361888D01*
X147195208Y-117475000D01*
X147198000Y-117928750D01*
X147342250Y-118073000D01*
X148235500Y-118073000D01*
X148235500Y-118053000D01*
X148489500Y-118053000D01*
X148489500Y-118073000D01*
X148509500Y-118073000D01*
X148509500Y-118327000D01*
X148489500Y-118327000D01*
X148489500Y-119357750D01*
X148633750Y-119502000D01*
X148950000Y-119504792D01*
X149063112Y-119493651D01*
X149068192Y-119492110D01*
X149071497Y-119773000D01*
X145200000Y-119773000D01*
X145175224Y-119775440D01*
X145151399Y-119782667D01*
X145129443Y-119794403D01*
X145110197Y-119810197D01*
X145094403Y-119829443D01*
X145082667Y-119851399D01*
X145075440Y-119875224D01*
X145073000Y-119900000D01*
X145073000Y-128340000D01*
X135927000Y-128340000D01*
X135927000Y-124027000D01*
X135963000Y-124027000D01*
X135963000Y-124927000D01*
X136016157Y-125212708D01*
X136124031Y-125482556D01*
X136282477Y-125726174D01*
X136485406Y-125934199D01*
X136725020Y-126098638D01*
X136992110Y-126213171D01*
X137084366Y-126233546D01*
X137313000Y-126126685D01*
X137313000Y-124027000D01*
X137567000Y-124027000D01*
X137567000Y-126126685D01*
X137795634Y-126233546D01*
X137887890Y-126213171D01*
X138154980Y-126098638D01*
X138394594Y-125934199D01*
X138597523Y-125726174D01*
X138755969Y-125482556D01*
X138863843Y-125212708D01*
X138917000Y-124927000D01*
X138917000Y-124027000D01*
X141043000Y-124027000D01*
X141043000Y-124927000D01*
X141096157Y-125212708D01*
X141204031Y-125482556D01*
X141362477Y-125726174D01*
X141565406Y-125934199D01*
X141805020Y-126098638D01*
X142072110Y-126213171D01*
X142164366Y-126233546D01*
X142393000Y-126126685D01*
X142393000Y-124027000D01*
X142647000Y-124027000D01*
X142647000Y-126126685D01*
X142875634Y-126233546D01*
X142967890Y-126213171D01*
X143234980Y-126098638D01*
X143474594Y-125934199D01*
X143677523Y-125726174D01*
X143835969Y-125482556D01*
X143943843Y-125212708D01*
X143997000Y-124927000D01*
X143997000Y-124027000D01*
X142647000Y-124027000D01*
X142393000Y-124027000D01*
X141043000Y-124027000D01*
X138917000Y-124027000D01*
X137567000Y-124027000D01*
X137313000Y-124027000D01*
X135963000Y-124027000D01*
X135927000Y-124027000D01*
X135927000Y-122873000D01*
X135963000Y-122873000D01*
X135963000Y-123773000D01*
X137313000Y-123773000D01*
X137313000Y-121673315D01*
X137567000Y-121673315D01*
X137567000Y-123773000D01*
X138917000Y-123773000D01*
X138917000Y-122873000D01*
X141043000Y-122873000D01*
X141043000Y-123773000D01*
X142393000Y-123773000D01*
X142393000Y-121673315D01*
X142647000Y-121673315D01*
X142647000Y-123773000D01*
X143997000Y-123773000D01*
X143997000Y-122873000D01*
X143943843Y-122587292D01*
X143835969Y-122317444D01*
X143677523Y-122073826D01*
X143474594Y-121865801D01*
X143234980Y-121701362D01*
X142967890Y-121586829D01*
X142875634Y-121566454D01*
X142647000Y-121673315D01*
X142393000Y-121673315D01*
X142164366Y-121566454D01*
X142072110Y-121586829D01*
X141805020Y-121701362D01*
X141565406Y-121865801D01*
X141362477Y-122073826D01*
X141204031Y-122317444D01*
X141096157Y-122587292D01*
X141043000Y-122873000D01*
X138917000Y-122873000D01*
X138863843Y-122587292D01*
X138755969Y-122317444D01*
X138597523Y-122073826D01*
X138394594Y-121865801D01*
X138154980Y-121701362D01*
X137887890Y-121586829D01*
X137795634Y-121566454D01*
X137567000Y-121673315D01*
X137313000Y-121673315D01*
X137084366Y-121566454D01*
X136992110Y-121586829D01*
X136725020Y-121701362D01*
X136485406Y-121865801D01*
X136282477Y-122073826D01*
X136124031Y-122317444D01*
X136016157Y-122587292D01*
X135963000Y-122873000D01*
X135927000Y-122873000D01*
X135927000Y-118925000D01*
X147195208Y-118925000D01*
X147206349Y-119038112D01*
X147239342Y-119146877D01*
X147292921Y-119247115D01*
X147365025Y-119334975D01*
X147452885Y-119407079D01*
X147553123Y-119460658D01*
X147661888Y-119493651D01*
X147775000Y-119504792D01*
X148091250Y-119502000D01*
X148235500Y-119357750D01*
X148235500Y-118327000D01*
X147342250Y-118327000D01*
X147198000Y-118471250D01*
X147195208Y-118925000D01*
X135927000Y-118925000D01*
X135927000Y-114100000D01*
X146595208Y-114100000D01*
X146606349Y-114213112D01*
X146639342Y-114321877D01*
X146692921Y-114422115D01*
X146715805Y-114450000D01*
X146692921Y-114477885D01*
X146639342Y-114578123D01*
X146606349Y-114686888D01*
X146595208Y-114800000D01*
X146598000Y-115428750D01*
X146742250Y-115573000D01*
X147710500Y-115573000D01*
X147710500Y-113327000D01*
X146742250Y-113327000D01*
X146598000Y-113471250D01*
X146595208Y-114100000D01*
X135927000Y-114100000D01*
X135927000Y-112300000D01*
X146595208Y-112300000D01*
X146598000Y-112928750D01*
X146742250Y-113073000D01*
X147710500Y-113073000D01*
X147710500Y-111867250D01*
X147566250Y-111723000D01*
X147175000Y-111720208D01*
X147061888Y-111731349D01*
X146953123Y-111764342D01*
X146852885Y-111817921D01*
X146765025Y-111890025D01*
X146692921Y-111977885D01*
X146639342Y-112078123D01*
X146606349Y-112186888D01*
X146595208Y-112300000D01*
X135927000Y-112300000D01*
X135927000Y-111527000D01*
X148974486Y-111527000D01*
X148979757Y-111975056D01*
%TA.AperFunction,Conductor*%
D18*
G36*
X148979757Y-111975056D02*
G01*
X148909975Y-111890025D01*
X148822115Y-111817921D01*
X148721877Y-111764342D01*
X148613112Y-111731349D01*
X148500000Y-111720208D01*
X148108750Y-111723000D01*
X147964500Y-111867250D01*
X147964500Y-113073000D01*
X147984500Y-113073000D01*
X147984500Y-113327000D01*
X147964500Y-113327000D01*
X147964500Y-115573000D01*
X147984500Y-115573000D01*
X147984500Y-115827000D01*
X147964500Y-115827000D01*
X147964500Y-115847000D01*
X147710500Y-115847000D01*
X147710500Y-115827000D01*
X146742250Y-115827000D01*
X146598000Y-115971250D01*
X146595208Y-116600000D01*
X146606349Y-116713112D01*
X146639342Y-116821877D01*
X146692921Y-116922115D01*
X146765025Y-117009975D01*
X146852885Y-117082079D01*
X146953123Y-117135658D01*
X147061888Y-117168651D01*
X147175000Y-117179792D01*
X147278935Y-117179050D01*
X147239342Y-117253123D01*
X147206349Y-117361888D01*
X147195208Y-117475000D01*
X147198000Y-117928750D01*
X147342250Y-118073000D01*
X148235500Y-118073000D01*
X148235500Y-118053000D01*
X148489500Y-118053000D01*
X148489500Y-118073000D01*
X148509500Y-118073000D01*
X148509500Y-118327000D01*
X148489500Y-118327000D01*
X148489500Y-119357750D01*
X148633750Y-119502000D01*
X148950000Y-119504792D01*
X149063112Y-119493651D01*
X149068192Y-119492110D01*
X149071497Y-119773000D01*
X145200000Y-119773000D01*
X145175224Y-119775440D01*
X145151399Y-119782667D01*
X145129443Y-119794403D01*
X145110197Y-119810197D01*
X145094403Y-119829443D01*
X145082667Y-119851399D01*
X145075440Y-119875224D01*
X145073000Y-119900000D01*
X145073000Y-128340000D01*
X135927000Y-128340000D01*
X135927000Y-124027000D01*
X135963000Y-124027000D01*
X135963000Y-124927000D01*
X136016157Y-125212708D01*
X136124031Y-125482556D01*
X136282477Y-125726174D01*
X136485406Y-125934199D01*
X136725020Y-126098638D01*
X136992110Y-126213171D01*
X137084366Y-126233546D01*
X137313000Y-126126685D01*
X137313000Y-124027000D01*
X137567000Y-124027000D01*
X137567000Y-126126685D01*
X137795634Y-126233546D01*
X137887890Y-126213171D01*
X138154980Y-126098638D01*
X138394594Y-125934199D01*
X138597523Y-125726174D01*
X138755969Y-125482556D01*
X138863843Y-125212708D01*
X138917000Y-124927000D01*
X138917000Y-124027000D01*
X141043000Y-124027000D01*
X141043000Y-124927000D01*
X141096157Y-125212708D01*
X141204031Y-125482556D01*
X141362477Y-125726174D01*
X141565406Y-125934199D01*
X141805020Y-126098638D01*
X142072110Y-126213171D01*
X142164366Y-126233546D01*
X142393000Y-126126685D01*
X142393000Y-124027000D01*
X142647000Y-124027000D01*
X142647000Y-126126685D01*
X142875634Y-126233546D01*
X142967890Y-126213171D01*
X143234980Y-126098638D01*
X143474594Y-125934199D01*
X143677523Y-125726174D01*
X143835969Y-125482556D01*
X143943843Y-125212708D01*
X143997000Y-124927000D01*
X143997000Y-124027000D01*
X142647000Y-124027000D01*
X142393000Y-124027000D01*
X141043000Y-124027000D01*
X138917000Y-124027000D01*
X137567000Y-124027000D01*
X137313000Y-124027000D01*
X135963000Y-124027000D01*
X135927000Y-124027000D01*
X135927000Y-122873000D01*
X135963000Y-122873000D01*
X135963000Y-123773000D01*
X137313000Y-123773000D01*
X137313000Y-121673315D01*
X137567000Y-121673315D01*
X137567000Y-123773000D01*
X138917000Y-123773000D01*
X138917000Y-122873000D01*
X141043000Y-122873000D01*
X141043000Y-123773000D01*
X142393000Y-123773000D01*
X142393000Y-121673315D01*
X142647000Y-121673315D01*
X142647000Y-123773000D01*
X143997000Y-123773000D01*
X143997000Y-122873000D01*
X143943843Y-122587292D01*
X143835969Y-122317444D01*
X143677523Y-122073826D01*
X143474594Y-121865801D01*
X143234980Y-121701362D01*
X142967890Y-121586829D01*
X142875634Y-121566454D01*
X142647000Y-121673315D01*
X142393000Y-121673315D01*
X142164366Y-121566454D01*
X142072110Y-121586829D01*
X141805020Y-121701362D01*
X141565406Y-121865801D01*
X141362477Y-122073826D01*
X141204031Y-122317444D01*
X141096157Y-122587292D01*
X141043000Y-122873000D01*
X138917000Y-122873000D01*
X138863843Y-122587292D01*
X138755969Y-122317444D01*
X138597523Y-122073826D01*
X138394594Y-121865801D01*
X138154980Y-121701362D01*
X137887890Y-121586829D01*
X137795634Y-121566454D01*
X137567000Y-121673315D01*
X137313000Y-121673315D01*
X137084366Y-121566454D01*
X136992110Y-121586829D01*
X136725020Y-121701362D01*
X136485406Y-121865801D01*
X136282477Y-122073826D01*
X136124031Y-122317444D01*
X136016157Y-122587292D01*
X135963000Y-122873000D01*
X135927000Y-122873000D01*
X135927000Y-118925000D01*
X147195208Y-118925000D01*
X147206349Y-119038112D01*
X147239342Y-119146877D01*
X147292921Y-119247115D01*
X147365025Y-119334975D01*
X147452885Y-119407079D01*
X147553123Y-119460658D01*
X147661888Y-119493651D01*
X147775000Y-119504792D01*
X148091250Y-119502000D01*
X148235500Y-119357750D01*
X148235500Y-118327000D01*
X147342250Y-118327000D01*
X147198000Y-118471250D01*
X147195208Y-118925000D01*
X135927000Y-118925000D01*
X135927000Y-114100000D01*
X146595208Y-114100000D01*
X146606349Y-114213112D01*
X146639342Y-114321877D01*
X146692921Y-114422115D01*
X146715805Y-114450000D01*
X146692921Y-114477885D01*
X146639342Y-114578123D01*
X146606349Y-114686888D01*
X146595208Y-114800000D01*
X146598000Y-115428750D01*
X146742250Y-115573000D01*
X147710500Y-115573000D01*
X147710500Y-113327000D01*
X146742250Y-113327000D01*
X146598000Y-113471250D01*
X146595208Y-114100000D01*
X135927000Y-114100000D01*
X135927000Y-112300000D01*
X146595208Y-112300000D01*
X146598000Y-112928750D01*
X146742250Y-113073000D01*
X147710500Y-113073000D01*
X147710500Y-111867250D01*
X147566250Y-111723000D01*
X147175000Y-111720208D01*
X147061888Y-111731349D01*
X146953123Y-111764342D01*
X146852885Y-111817921D01*
X146765025Y-111890025D01*
X146692921Y-111977885D01*
X146639342Y-112078123D01*
X146606349Y-112186888D01*
X146595208Y-112300000D01*
X135927000Y-112300000D01*
X135927000Y-111527000D01*
X148974486Y-111527000D01*
X148979757Y-111975056D01*
G37*
%TD.AperFunction*%
%TD*%
D17*
%TO.N,/SW*%
X142564500Y-96573000D02*
X142584500Y-96573000D01*
X142584500Y-96827000D01*
X142564500Y-96827000D01*
X142564500Y-97857750D01*
X142708750Y-98002000D01*
X143025000Y-98004792D01*
X143138112Y-97993651D01*
X143246877Y-97960658D01*
X143347115Y-97907079D01*
X143434975Y-97834975D01*
X143491815Y-97765715D01*
X143494403Y-97770557D01*
X143510197Y-97789803D01*
X143529443Y-97805597D01*
X143551399Y-97817333D01*
X143575224Y-97824560D01*
X143600000Y-97827000D01*
X149073000Y-97827000D01*
X149073000Y-110573000D01*
X141527000Y-110573000D01*
X141527000Y-105800000D01*
X141970208Y-105800000D01*
X141981349Y-105913112D01*
X142014342Y-106021877D01*
X142067921Y-106122115D01*
X142140025Y-106209975D01*
X142227885Y-106282079D01*
X142328123Y-106335658D01*
X142436888Y-106368651D01*
X142550000Y-106379792D01*
X143578750Y-106377000D01*
X143723000Y-106232750D01*
X143723000Y-104327000D01*
X143977000Y-104327000D01*
X143977000Y-106232750D01*
X144121250Y-106377000D01*
X145150000Y-106379792D01*
X145263112Y-106368651D01*
X145371877Y-106335658D01*
X145472115Y-106282079D01*
X145559975Y-106209975D01*
X145632079Y-106122115D01*
X145685658Y-106021877D01*
X145718651Y-105913112D01*
X145729792Y-105800000D01*
X145727000Y-104471250D01*
X145582750Y-104327000D01*
X143977000Y-104327000D01*
X143723000Y-104327000D01*
X142117250Y-104327000D01*
X141973000Y-104471250D01*
X141970208Y-105800000D01*
X141527000Y-105800000D01*
X141527000Y-102600000D01*
X141970208Y-102600000D01*
X141973000Y-103928750D01*
X142117250Y-104073000D01*
X143723000Y-104073000D01*
X143723000Y-102167250D01*
X143977000Y-102167250D01*
X143977000Y-104073000D01*
X145582750Y-104073000D01*
X145727000Y-103928750D01*
X145729792Y-102600000D01*
X145718651Y-102486888D01*
X145685658Y-102378123D01*
X145632079Y-102277885D01*
X145559975Y-102190025D01*
X145472115Y-102117921D01*
X145371877Y-102064342D01*
X145263112Y-102031349D01*
X145150000Y-102020208D01*
X144121250Y-102023000D01*
X143977000Y-102167250D01*
X143723000Y-102167250D01*
X143578750Y-102023000D01*
X142550000Y-102020208D01*
X142436888Y-102031349D01*
X142328123Y-102064342D01*
X142227885Y-102117921D01*
X142140025Y-102190025D01*
X142067921Y-102277885D01*
X142014342Y-102378123D01*
X141981349Y-102486888D01*
X141970208Y-102600000D01*
X141527000Y-102600000D01*
X141527000Y-97906353D01*
X141527885Y-97907079D01*
X141628123Y-97960658D01*
X141736888Y-97993651D01*
X141850000Y-98004792D01*
X142166250Y-98002000D01*
X142310500Y-97857750D01*
X142310500Y-96827000D01*
X142290500Y-96827000D01*
X142290500Y-96573000D01*
X142310500Y-96573000D01*
X142310500Y-96553000D01*
X142564500Y-96553000D01*
X142564500Y-96573000D01*
%TA.AperFunction,Conductor*%
D18*
G36*
X142564500Y-96573000D02*
G01*
X142584500Y-96573000D01*
X142584500Y-96827000D01*
X142564500Y-96827000D01*
X142564500Y-97857750D01*
X142708750Y-98002000D01*
X143025000Y-98004792D01*
X143138112Y-97993651D01*
X143246877Y-97960658D01*
X143347115Y-97907079D01*
X143434975Y-97834975D01*
X143491815Y-97765715D01*
X143494403Y-97770557D01*
X143510197Y-97789803D01*
X143529443Y-97805597D01*
X143551399Y-97817333D01*
X143575224Y-97824560D01*
X143600000Y-97827000D01*
X149073000Y-97827000D01*
X149073000Y-110573000D01*
X141527000Y-110573000D01*
X141527000Y-105800000D01*
X141970208Y-105800000D01*
X141981349Y-105913112D01*
X142014342Y-106021877D01*
X142067921Y-106122115D01*
X142140025Y-106209975D01*
X142227885Y-106282079D01*
X142328123Y-106335658D01*
X142436888Y-106368651D01*
X142550000Y-106379792D01*
X143578750Y-106377000D01*
X143723000Y-106232750D01*
X143723000Y-104327000D01*
X143977000Y-104327000D01*
X143977000Y-106232750D01*
X144121250Y-106377000D01*
X145150000Y-106379792D01*
X145263112Y-106368651D01*
X145371877Y-106335658D01*
X145472115Y-106282079D01*
X145559975Y-106209975D01*
X145632079Y-106122115D01*
X145685658Y-106021877D01*
X145718651Y-105913112D01*
X145729792Y-105800000D01*
X145727000Y-104471250D01*
X145582750Y-104327000D01*
X143977000Y-104327000D01*
X143723000Y-104327000D01*
X142117250Y-104327000D01*
X141973000Y-104471250D01*
X141970208Y-105800000D01*
X141527000Y-105800000D01*
X141527000Y-102600000D01*
X141970208Y-102600000D01*
X141973000Y-103928750D01*
X142117250Y-104073000D01*
X143723000Y-104073000D01*
X143723000Y-102167250D01*
X143977000Y-102167250D01*
X143977000Y-104073000D01*
X145582750Y-104073000D01*
X145727000Y-103928750D01*
X145729792Y-102600000D01*
X145718651Y-102486888D01*
X145685658Y-102378123D01*
X145632079Y-102277885D01*
X145559975Y-102190025D01*
X145472115Y-102117921D01*
X145371877Y-102064342D01*
X145263112Y-102031349D01*
X145150000Y-102020208D01*
X144121250Y-102023000D01*
X143977000Y-102167250D01*
X143723000Y-102167250D01*
X143578750Y-102023000D01*
X142550000Y-102020208D01*
X142436888Y-102031349D01*
X142328123Y-102064342D01*
X142227885Y-102117921D01*
X142140025Y-102190025D01*
X142067921Y-102277885D01*
X142014342Y-102378123D01*
X141981349Y-102486888D01*
X141970208Y-102600000D01*
X141527000Y-102600000D01*
X141527000Y-97906353D01*
X141527885Y-97907079D01*
X141628123Y-97960658D01*
X141736888Y-97993651D01*
X141850000Y-98004792D01*
X142166250Y-98002000D01*
X142310500Y-97857750D01*
X142310500Y-96827000D01*
X142290500Y-96827000D01*
X142290500Y-96573000D01*
X142310500Y-96573000D01*
X142310500Y-96553000D01*
X142564500Y-96553000D01*
X142564500Y-96573000D01*
G37*
%TD.AperFunction*%
%TD*%
D17*
%TO.N,GND*%
X143692101Y-92856949D02*
X144754099Y-92856949D01*
X144804348Y-92852000D01*
X144873000Y-92852000D01*
X144873000Y-96973000D01*
X144327000Y-96973000D01*
X144327000Y-95000000D01*
X144324560Y-94975224D01*
X144317333Y-94951399D01*
X144305597Y-94929443D01*
X144289803Y-94910197D01*
X144270557Y-94894403D01*
X144248601Y-94882667D01*
X144224776Y-94875440D01*
X144200000Y-94873000D01*
X141527000Y-94873000D01*
X141527000Y-93432270D01*
X141556662Y-93530051D01*
X141605597Y-93621603D01*
X141671453Y-93701849D01*
X141751699Y-93767705D01*
X141843251Y-93816640D01*
X141942591Y-93846775D01*
X142045901Y-93856950D01*
X143107899Y-93856950D01*
X143211209Y-93846775D01*
X143310549Y-93816640D01*
X143402101Y-93767705D01*
X143482347Y-93701849D01*
X143548203Y-93621603D01*
X143597138Y-93530051D01*
X143627273Y-93430711D01*
X143637448Y-93327401D01*
X143637448Y-93072601D01*
X143627273Y-92969291D01*
X143627000Y-92968391D01*
X143627000Y-92931609D01*
X143627273Y-92930709D01*
X143635091Y-92851334D01*
X143692101Y-92856949D01*
%TA.AperFunction,Conductor*%
D18*
G36*
X143692101Y-92856949D02*
G01*
X144754099Y-92856949D01*
X144804348Y-92852000D01*
X144873000Y-92852000D01*
X144873000Y-96973000D01*
X144327000Y-96973000D01*
X144327000Y-95000000D01*
X144324560Y-94975224D01*
X144317333Y-94951399D01*
X144305597Y-94929443D01*
X144289803Y-94910197D01*
X144270557Y-94894403D01*
X144248601Y-94882667D01*
X144224776Y-94875440D01*
X144200000Y-94873000D01*
X141527000Y-94873000D01*
X141527000Y-93432270D01*
X141556662Y-93530051D01*
X141605597Y-93621603D01*
X141671453Y-93701849D01*
X141751699Y-93767705D01*
X141843251Y-93816640D01*
X141942591Y-93846775D01*
X142045901Y-93856950D01*
X143107899Y-93856950D01*
X143211209Y-93846775D01*
X143310549Y-93816640D01*
X143402101Y-93767705D01*
X143482347Y-93701849D01*
X143548203Y-93621603D01*
X143597138Y-93530051D01*
X143627273Y-93430711D01*
X143637448Y-93327401D01*
X143637448Y-93072601D01*
X143627273Y-92969291D01*
X143627000Y-92968391D01*
X143627000Y-92931609D01*
X143627273Y-92930709D01*
X143635091Y-92851334D01*
X143692101Y-92856949D01*
G37*
%TD.AperFunction*%
%TD*%
D17*
%TO.N,GND*%
X159340001Y-96973000D02*
X144727000Y-96973000D01*
X144727000Y-95827000D01*
X149200000Y-95827000D01*
X149224776Y-95824560D01*
X149248601Y-95817333D01*
X149270557Y-95805597D01*
X149289803Y-95789803D01*
X149305597Y-95770557D01*
X149317333Y-95748601D01*
X149324560Y-95724776D01*
X149327000Y-95700000D01*
X149327000Y-95425000D01*
X149361928Y-95425000D01*
X149374188Y-95549482D01*
X149410498Y-95669180D01*
X149469463Y-95779494D01*
X149548815Y-95876185D01*
X149645506Y-95955537D01*
X149755820Y-96014502D01*
X149875518Y-96050812D01*
X150000000Y-96063072D01*
X150614250Y-96060000D01*
X150773000Y-95901250D01*
X150773000Y-94889500D01*
X151027000Y-94889500D01*
X151027000Y-95901250D01*
X151185750Y-96060000D01*
X151800000Y-96063072D01*
X151924482Y-96050812D01*
X152044180Y-96014502D01*
X152154494Y-95955537D01*
X152251185Y-95876185D01*
X152330537Y-95779494D01*
X152389502Y-95669180D01*
X152400000Y-95634573D01*
X152410498Y-95669180D01*
X152469463Y-95779494D01*
X152548815Y-95876185D01*
X152645506Y-95955537D01*
X152755820Y-96014502D01*
X152875518Y-96050812D01*
X153000000Y-96063072D01*
X153614250Y-96060000D01*
X153773000Y-95901250D01*
X153773000Y-94889500D01*
X152523750Y-94889500D01*
X152400000Y-95013250D01*
X152276250Y-94889500D01*
X151027000Y-94889500D01*
X150773000Y-94889500D01*
X149523750Y-94889500D01*
X149365000Y-95048250D01*
X149361928Y-95425000D01*
X149327000Y-95425000D01*
X149327000Y-93526289D01*
X149730519Y-93524022D01*
X149645506Y-93569463D01*
X149548815Y-93648815D01*
X149469463Y-93745506D01*
X149410498Y-93855820D01*
X149374188Y-93975518D01*
X149361928Y-94100000D01*
X149365000Y-94476750D01*
X149523750Y-94635500D01*
X150773000Y-94635500D01*
X150773000Y-94615500D01*
X151027000Y-94615500D01*
X151027000Y-94635500D01*
X152276250Y-94635500D01*
X152400000Y-94511750D01*
X152523750Y-94635500D01*
X153773000Y-94635500D01*
X153773000Y-94615500D01*
X154027000Y-94615500D01*
X154027000Y-94635500D01*
X154047000Y-94635500D01*
X154047000Y-94889500D01*
X154027000Y-94889500D01*
X154027000Y-95901250D01*
X154185750Y-96060000D01*
X154800000Y-96063072D01*
X154924482Y-96050812D01*
X155044180Y-96014502D01*
X155154494Y-95955537D01*
X155251185Y-95876185D01*
X155330537Y-95779494D01*
X155389502Y-95669180D01*
X155425812Y-95549482D01*
X155438072Y-95425000D01*
X155438004Y-95416681D01*
X155550518Y-95450812D01*
X155675000Y-95463072D01*
X156114250Y-95460000D01*
X156273000Y-95301250D01*
X156273000Y-94364500D01*
X156527000Y-94364500D01*
X156527000Y-95301250D01*
X156685750Y-95460000D01*
X157125000Y-95463072D01*
X157249482Y-95450812D01*
X157369180Y-95414502D01*
X157479494Y-95355537D01*
X157576185Y-95276185D01*
X157655537Y-95179494D01*
X157714502Y-95069180D01*
X157750812Y-94949482D01*
X157763072Y-94825000D01*
X157760000Y-94523250D01*
X157601250Y-94364500D01*
X156527000Y-94364500D01*
X156273000Y-94364500D01*
X156253000Y-94364500D01*
X156253000Y-94110500D01*
X156273000Y-94110500D01*
X156273000Y-94090500D01*
X156527000Y-94090500D01*
X156527000Y-94110500D01*
X157601250Y-94110500D01*
X157760000Y-93951750D01*
X157763072Y-93650000D01*
X157750812Y-93525518D01*
X157736714Y-93479043D01*
X158100713Y-93476998D01*
X158125476Y-93474419D01*
X158149259Y-93467058D01*
X158171150Y-93455199D01*
X158190306Y-93439297D01*
X158205991Y-93419963D01*
X158217604Y-93397941D01*
X158224697Y-93374076D01*
X158227000Y-93350000D01*
X158227000Y-86600000D01*
X158224560Y-86575224D01*
X158217333Y-86551399D01*
X158205597Y-86529443D01*
X158189803Y-86510197D01*
X158170557Y-86494403D01*
X158148601Y-86482667D01*
X158124776Y-86475440D01*
X158100000Y-86473000D01*
X145060807Y-86473000D01*
X145063072Y-86450000D01*
X145060000Y-86148250D01*
X144901250Y-85989500D01*
X143827000Y-85989500D01*
X143827000Y-86009500D01*
X143573000Y-86009500D01*
X143573000Y-85989500D01*
X143553000Y-85989500D01*
X143553000Y-85735500D01*
X143573000Y-85735500D01*
X143573000Y-84798750D01*
X143827000Y-84798750D01*
X143827000Y-85735500D01*
X144901250Y-85735500D01*
X145060000Y-85576750D01*
X145063072Y-85275000D01*
X145050812Y-85150518D01*
X145014502Y-85030820D01*
X144955537Y-84920506D01*
X144876185Y-84823815D01*
X144779494Y-84744463D01*
X144669180Y-84685498D01*
X144549482Y-84649188D01*
X144425000Y-84636928D01*
X143985750Y-84640000D01*
X143827000Y-84798750D01*
X143573000Y-84798750D01*
X143414250Y-84640000D01*
X142975000Y-84636928D01*
X142850518Y-84649188D01*
X142827000Y-84656322D01*
X142827000Y-83900000D01*
X142824560Y-83875224D01*
X142817333Y-83851399D01*
X142805597Y-83829443D01*
X142789803Y-83810197D01*
X142770557Y-83794403D01*
X142748601Y-83782667D01*
X142724776Y-83775440D01*
X142700000Y-83773000D01*
X142059558Y-83773000D01*
X142033623Y-83751716D01*
X141836447Y-83646324D01*
X141622499Y-83581423D01*
X141455752Y-83565000D01*
X140068690Y-83565000D01*
X140037500Y-83561928D01*
X139562500Y-83561928D01*
X139531310Y-83565000D01*
X137856748Y-83565000D01*
X137690001Y-83581423D01*
X137671854Y-83586928D01*
X137662500Y-83586928D01*
X137491684Y-83603752D01*
X137327433Y-83653577D01*
X137176058Y-83734488D01*
X137129131Y-83773000D01*
X136870869Y-83773000D01*
X136823942Y-83734488D01*
X136672567Y-83653577D01*
X136508316Y-83603752D01*
X136337500Y-83586928D01*
X136328142Y-83586928D01*
X136309998Y-83581424D01*
X136087499Y-83559510D01*
X135865000Y-83581424D01*
X135846856Y-83586928D01*
X135837500Y-83586928D01*
X135666684Y-83603752D01*
X135502433Y-83653577D01*
X135351058Y-83734488D01*
X135218377Y-83843377D01*
X135109488Y-83976058D01*
X135028577Y-84127433D01*
X135017099Y-84165270D01*
X134999360Y-84183009D01*
X134956052Y-84218551D01*
X134814217Y-84391377D01*
X134789564Y-84437500D01*
X134708824Y-84588554D01*
X134643923Y-84802502D01*
X134622009Y-85025000D01*
X134627500Y-85080751D01*
X134627500Y-85942173D01*
X134604528Y-85985150D01*
X134553992Y-86151746D01*
X134536928Y-86325000D01*
X134536928Y-87275000D01*
X134553992Y-87448254D01*
X134604528Y-87614850D01*
X134686595Y-87768386D01*
X134797038Y-87902962D01*
X134931614Y-88013405D01*
X135085150Y-88095472D01*
X135251746Y-88146008D01*
X135425000Y-88163072D01*
X136100000Y-88163072D01*
X136273254Y-88146008D01*
X136439850Y-88095472D01*
X136593386Y-88013405D01*
X136673000Y-87948068D01*
X136673000Y-90427629D01*
X136594180Y-90385498D01*
X136474482Y-90349188D01*
X136350000Y-90336928D01*
X136048250Y-90340000D01*
X135889500Y-90498750D01*
X135889500Y-91573000D01*
X135909500Y-91573000D01*
X135909500Y-91827000D01*
X135889500Y-91827000D01*
X135889500Y-92901250D01*
X136048250Y-93060000D01*
X136350000Y-93063072D01*
X136474482Y-93050812D01*
X136594180Y-93014502D01*
X136673000Y-92972371D01*
X136673000Y-94173000D01*
X120660000Y-94173000D01*
X120660000Y-92425000D01*
X134536928Y-92425000D01*
X134549188Y-92549482D01*
X134585498Y-92669180D01*
X134644463Y-92779494D01*
X134723815Y-92876185D01*
X134820506Y-92955537D01*
X134930820Y-93014502D01*
X135050518Y-93050812D01*
X135175000Y-93063072D01*
X135476750Y-93060000D01*
X135635500Y-92901250D01*
X135635500Y-91827000D01*
X134698750Y-91827000D01*
X134540000Y-91985750D01*
X134536928Y-92425000D01*
X120660000Y-92425000D01*
X120660000Y-90975000D01*
X134536928Y-90975000D01*
X134540000Y-91414250D01*
X134698750Y-91573000D01*
X135635500Y-91573000D01*
X135635500Y-90498750D01*
X135476750Y-90340000D01*
X135175000Y-90336928D01*
X135050518Y-90349188D01*
X134930820Y-90385498D01*
X134820506Y-90444463D01*
X134723815Y-90523815D01*
X134644463Y-90620506D01*
X134585498Y-90730820D01*
X134549188Y-90850518D01*
X134536928Y-90975000D01*
X120660000Y-90975000D01*
X120660000Y-82160000D01*
X159340001Y-82160000D01*
X159340001Y-96973000D01*
%TA.AperFunction,Conductor*%
D18*
G36*
X159340001Y-96973000D02*
G01*
X144727000Y-96973000D01*
X144727000Y-95827000D01*
X149200000Y-95827000D01*
X149224776Y-95824560D01*
X149248601Y-95817333D01*
X149270557Y-95805597D01*
X149289803Y-95789803D01*
X149305597Y-95770557D01*
X149317333Y-95748601D01*
X149324560Y-95724776D01*
X149327000Y-95700000D01*
X149327000Y-95425000D01*
X149361928Y-95425000D01*
X149374188Y-95549482D01*
X149410498Y-95669180D01*
X149469463Y-95779494D01*
X149548815Y-95876185D01*
X149645506Y-95955537D01*
X149755820Y-96014502D01*
X149875518Y-96050812D01*
X150000000Y-96063072D01*
X150614250Y-96060000D01*
X150773000Y-95901250D01*
X150773000Y-94889500D01*
X151027000Y-94889500D01*
X151027000Y-95901250D01*
X151185750Y-96060000D01*
X151800000Y-96063072D01*
X151924482Y-96050812D01*
X152044180Y-96014502D01*
X152154494Y-95955537D01*
X152251185Y-95876185D01*
X152330537Y-95779494D01*
X152389502Y-95669180D01*
X152400000Y-95634573D01*
X152410498Y-95669180D01*
X152469463Y-95779494D01*
X152548815Y-95876185D01*
X152645506Y-95955537D01*
X152755820Y-96014502D01*
X152875518Y-96050812D01*
X153000000Y-96063072D01*
X153614250Y-96060000D01*
X153773000Y-95901250D01*
X153773000Y-94889500D01*
X152523750Y-94889500D01*
X152400000Y-95013250D01*
X152276250Y-94889500D01*
X151027000Y-94889500D01*
X150773000Y-94889500D01*
X149523750Y-94889500D01*
X149365000Y-95048250D01*
X149361928Y-95425000D01*
X149327000Y-95425000D01*
X149327000Y-93526289D01*
X149730519Y-93524022D01*
X149645506Y-93569463D01*
X149548815Y-93648815D01*
X149469463Y-93745506D01*
X149410498Y-93855820D01*
X149374188Y-93975518D01*
X149361928Y-94100000D01*
X149365000Y-94476750D01*
X149523750Y-94635500D01*
X150773000Y-94635500D01*
X150773000Y-94615500D01*
X151027000Y-94615500D01*
X151027000Y-94635500D01*
X152276250Y-94635500D01*
X152400000Y-94511750D01*
X152523750Y-94635500D01*
X153773000Y-94635500D01*
X153773000Y-94615500D01*
X154027000Y-94615500D01*
X154027000Y-94635500D01*
X154047000Y-94635500D01*
X154047000Y-94889500D01*
X154027000Y-94889500D01*
X154027000Y-95901250D01*
X154185750Y-96060000D01*
X154800000Y-96063072D01*
X154924482Y-96050812D01*
X155044180Y-96014502D01*
X155154494Y-95955537D01*
X155251185Y-95876185D01*
X155330537Y-95779494D01*
X155389502Y-95669180D01*
X155425812Y-95549482D01*
X155438072Y-95425000D01*
X155438004Y-95416681D01*
X155550518Y-95450812D01*
X155675000Y-95463072D01*
X156114250Y-95460000D01*
X156273000Y-95301250D01*
X156273000Y-94364500D01*
X156527000Y-94364500D01*
X156527000Y-95301250D01*
X156685750Y-95460000D01*
X157125000Y-95463072D01*
X157249482Y-95450812D01*
X157369180Y-95414502D01*
X157479494Y-95355537D01*
X157576185Y-95276185D01*
X157655537Y-95179494D01*
X157714502Y-95069180D01*
X157750812Y-94949482D01*
X157763072Y-94825000D01*
X157760000Y-94523250D01*
X157601250Y-94364500D01*
X156527000Y-94364500D01*
X156273000Y-94364500D01*
X156253000Y-94364500D01*
X156253000Y-94110500D01*
X156273000Y-94110500D01*
X156273000Y-94090500D01*
X156527000Y-94090500D01*
X156527000Y-94110500D01*
X157601250Y-94110500D01*
X157760000Y-93951750D01*
X157763072Y-93650000D01*
X157750812Y-93525518D01*
X157736714Y-93479043D01*
X158100713Y-93476998D01*
X158125476Y-93474419D01*
X158149259Y-93467058D01*
X158171150Y-93455199D01*
X158190306Y-93439297D01*
X158205991Y-93419963D01*
X158217604Y-93397941D01*
X158224697Y-93374076D01*
X158227000Y-93350000D01*
X158227000Y-86600000D01*
X158224560Y-86575224D01*
X158217333Y-86551399D01*
X158205597Y-86529443D01*
X158189803Y-86510197D01*
X158170557Y-86494403D01*
X158148601Y-86482667D01*
X158124776Y-86475440D01*
X158100000Y-86473000D01*
X145060807Y-86473000D01*
X145063072Y-86450000D01*
X145060000Y-86148250D01*
X144901250Y-85989500D01*
X143827000Y-85989500D01*
X143827000Y-86009500D01*
X143573000Y-86009500D01*
X143573000Y-85989500D01*
X143553000Y-85989500D01*
X143553000Y-85735500D01*
X143573000Y-85735500D01*
X143573000Y-84798750D01*
X143827000Y-84798750D01*
X143827000Y-85735500D01*
X144901250Y-85735500D01*
X145060000Y-85576750D01*
X145063072Y-85275000D01*
X145050812Y-85150518D01*
X145014502Y-85030820D01*
X144955537Y-84920506D01*
X144876185Y-84823815D01*
X144779494Y-84744463D01*
X144669180Y-84685498D01*
X144549482Y-84649188D01*
X144425000Y-84636928D01*
X143985750Y-84640000D01*
X143827000Y-84798750D01*
X143573000Y-84798750D01*
X143414250Y-84640000D01*
X142975000Y-84636928D01*
X142850518Y-84649188D01*
X142827000Y-84656322D01*
X142827000Y-83900000D01*
X142824560Y-83875224D01*
X142817333Y-83851399D01*
X142805597Y-83829443D01*
X142789803Y-83810197D01*
X142770557Y-83794403D01*
X142748601Y-83782667D01*
X142724776Y-83775440D01*
X142700000Y-83773000D01*
X142059558Y-83773000D01*
X142033623Y-83751716D01*
X141836447Y-83646324D01*
X141622499Y-83581423D01*
X141455752Y-83565000D01*
X140068690Y-83565000D01*
X140037500Y-83561928D01*
X139562500Y-83561928D01*
X139531310Y-83565000D01*
X137856748Y-83565000D01*
X137690001Y-83581423D01*
X137671854Y-83586928D01*
X137662500Y-83586928D01*
X137491684Y-83603752D01*
X137327433Y-83653577D01*
X137176058Y-83734488D01*
X137129131Y-83773000D01*
X136870869Y-83773000D01*
X136823942Y-83734488D01*
X136672567Y-83653577D01*
X136508316Y-83603752D01*
X136337500Y-83586928D01*
X136328142Y-83586928D01*
X136309998Y-83581424D01*
X136087499Y-83559510D01*
X135865000Y-83581424D01*
X135846856Y-83586928D01*
X135837500Y-83586928D01*
X135666684Y-83603752D01*
X135502433Y-83653577D01*
X135351058Y-83734488D01*
X135218377Y-83843377D01*
X135109488Y-83976058D01*
X135028577Y-84127433D01*
X135017099Y-84165270D01*
X134999360Y-84183009D01*
X134956052Y-84218551D01*
X134814217Y-84391377D01*
X134789564Y-84437500D01*
X134708824Y-84588554D01*
X134643923Y-84802502D01*
X134622009Y-85025000D01*
X134627500Y-85080751D01*
X134627500Y-85942173D01*
X134604528Y-85985150D01*
X134553992Y-86151746D01*
X134536928Y-86325000D01*
X134536928Y-87275000D01*
X134553992Y-87448254D01*
X134604528Y-87614850D01*
X134686595Y-87768386D01*
X134797038Y-87902962D01*
X134931614Y-88013405D01*
X135085150Y-88095472D01*
X135251746Y-88146008D01*
X135425000Y-88163072D01*
X136100000Y-88163072D01*
X136273254Y-88146008D01*
X136439850Y-88095472D01*
X136593386Y-88013405D01*
X136673000Y-87948068D01*
X136673000Y-90427629D01*
X136594180Y-90385498D01*
X136474482Y-90349188D01*
X136350000Y-90336928D01*
X136048250Y-90340000D01*
X135889500Y-90498750D01*
X135889500Y-91573000D01*
X135909500Y-91573000D01*
X135909500Y-91827000D01*
X135889500Y-91827000D01*
X135889500Y-92901250D01*
X136048250Y-93060000D01*
X136350000Y-93063072D01*
X136474482Y-93050812D01*
X136594180Y-93014502D01*
X136673000Y-92972371D01*
X136673000Y-94173000D01*
X120660000Y-94173000D01*
X120660000Y-92425000D01*
X134536928Y-92425000D01*
X134549188Y-92549482D01*
X134585498Y-92669180D01*
X134644463Y-92779494D01*
X134723815Y-92876185D01*
X134820506Y-92955537D01*
X134930820Y-93014502D01*
X135050518Y-93050812D01*
X135175000Y-93063072D01*
X135476750Y-93060000D01*
X135635500Y-92901250D01*
X135635500Y-91827000D01*
X134698750Y-91827000D01*
X134540000Y-91985750D01*
X134536928Y-92425000D01*
X120660000Y-92425000D01*
X120660000Y-90975000D01*
X134536928Y-90975000D01*
X134540000Y-91414250D01*
X134698750Y-91573000D01*
X135635500Y-91573000D01*
X135635500Y-90498750D01*
X135476750Y-90340000D01*
X135175000Y-90336928D01*
X135050518Y-90349188D01*
X134930820Y-90385498D01*
X134820506Y-90444463D01*
X134723815Y-90523815D01*
X134644463Y-90620506D01*
X134585498Y-90730820D01*
X134549188Y-90850518D01*
X134536928Y-90975000D01*
X120660000Y-90975000D01*
X120660000Y-82160000D01*
X159340001Y-82160000D01*
X159340001Y-96973000D01*
G37*
%TD.AperFunction*%
%TD*%
D17*
%TO.N,/SW*%
X148473000Y-94973000D02*
X145727000Y-94973000D01*
X145727000Y-92402001D01*
X148473000Y-92402001D01*
X148473000Y-94973000D01*
%TA.AperFunction,Conductor*%
D18*
G36*
X148473000Y-94973000D02*
G01*
X145727000Y-94973000D01*
X145727000Y-92402001D01*
X148473000Y-92402001D01*
X148473000Y-94973000D01*
G37*
%TD.AperFunction*%
%TD*%
D17*
%TO.N,+12V*%
X157273000Y-90956322D02*
X157249482Y-90949188D01*
X157125000Y-90936928D01*
X156685750Y-90940000D01*
X156527000Y-91098750D01*
X156527000Y-92035500D01*
X156547000Y-92035500D01*
X156547000Y-92289500D01*
X156527000Y-92289500D01*
X156527000Y-92309500D01*
X156273000Y-92309500D01*
X156273000Y-92289500D01*
X156253000Y-92289500D01*
X156253000Y-92035500D01*
X156273000Y-92035500D01*
X156273000Y-91098750D01*
X156114250Y-90940000D01*
X155675000Y-90936928D01*
X155550518Y-90949188D01*
X155438004Y-90983319D01*
X155438072Y-90975000D01*
X155425812Y-90850518D01*
X155389502Y-90730820D01*
X155330537Y-90620506D01*
X155251185Y-90523815D01*
X155154494Y-90444463D01*
X155044180Y-90385498D01*
X154924482Y-90349188D01*
X154800000Y-90336928D01*
X154185750Y-90340000D01*
X154027000Y-90498750D01*
X154027000Y-91510500D01*
X154047000Y-91510500D01*
X154047000Y-91764500D01*
X154027000Y-91764500D01*
X154027000Y-91784500D01*
X153773000Y-91784500D01*
X153773000Y-91764500D01*
X152523750Y-91764500D01*
X152400000Y-91888250D01*
X152276250Y-91764500D01*
X151027000Y-91764500D01*
X151027000Y-91784500D01*
X150773000Y-91784500D01*
X150773000Y-91764500D01*
X149523750Y-91764500D01*
X149365000Y-91923250D01*
X149361928Y-92300000D01*
X149374188Y-92424482D01*
X149410498Y-92544180D01*
X149469463Y-92654494D01*
X149484650Y-92673000D01*
X149327000Y-92673000D01*
X149327000Y-91500000D01*
X149324560Y-91475224D01*
X149317333Y-91451399D01*
X149305597Y-91429443D01*
X149289803Y-91410197D01*
X149270557Y-91394403D01*
X149248601Y-91382667D01*
X149224776Y-91375440D01*
X149200000Y-91373000D01*
X145356927Y-91373000D01*
X145338930Y-91317437D01*
X145333890Y-91308418D01*
X145333890Y-91072599D01*
X145324277Y-90975000D01*
X149361928Y-90975000D01*
X149365000Y-91351750D01*
X149523750Y-91510500D01*
X150773000Y-91510500D01*
X150773000Y-90498750D01*
X151027000Y-90498750D01*
X151027000Y-91510500D01*
X152276250Y-91510500D01*
X152400000Y-91386750D01*
X152523750Y-91510500D01*
X153773000Y-91510500D01*
X153773000Y-90498750D01*
X153614250Y-90340000D01*
X153000000Y-90336928D01*
X152875518Y-90349188D01*
X152755820Y-90385498D01*
X152645506Y-90444463D01*
X152548815Y-90523815D01*
X152469463Y-90620506D01*
X152410498Y-90730820D01*
X152400000Y-90765427D01*
X152389502Y-90730820D01*
X152330537Y-90620506D01*
X152251185Y-90523815D01*
X152154494Y-90444463D01*
X152044180Y-90385498D01*
X151924482Y-90349188D01*
X151800000Y-90336928D01*
X151185750Y-90340000D01*
X151027000Y-90498750D01*
X150773000Y-90498750D01*
X150614250Y-90340000D01*
X150000000Y-90336928D01*
X149875518Y-90349188D01*
X149755820Y-90385498D01*
X149645506Y-90444463D01*
X149548815Y-90523815D01*
X149469463Y-90620506D01*
X149410498Y-90730820D01*
X149374188Y-90850518D01*
X149361928Y-90975000D01*
X145324277Y-90975000D01*
X145322749Y-90959487D01*
X145303125Y-90894795D01*
X145305311Y-90872599D01*
X145284516Y-90661470D01*
X145222932Y-90458455D01*
X145127000Y-90278980D01*
X145127000Y-87427000D01*
X157273000Y-87427000D01*
X157273000Y-90956322D01*
%TA.AperFunction,Conductor*%
D18*
G36*
X157273000Y-90956322D02*
G01*
X157249482Y-90949188D01*
X157125000Y-90936928D01*
X156685750Y-90940000D01*
X156527000Y-91098750D01*
X156527000Y-92035500D01*
X156547000Y-92035500D01*
X156547000Y-92289500D01*
X156527000Y-92289500D01*
X156527000Y-92309500D01*
X156273000Y-92309500D01*
X156273000Y-92289500D01*
X156253000Y-92289500D01*
X156253000Y-92035500D01*
X156273000Y-92035500D01*
X156273000Y-91098750D01*
X156114250Y-90940000D01*
X155675000Y-90936928D01*
X155550518Y-90949188D01*
X155438004Y-90983319D01*
X155438072Y-90975000D01*
X155425812Y-90850518D01*
X155389502Y-90730820D01*
X155330537Y-90620506D01*
X155251185Y-90523815D01*
X155154494Y-90444463D01*
X155044180Y-90385498D01*
X154924482Y-90349188D01*
X154800000Y-90336928D01*
X154185750Y-90340000D01*
X154027000Y-90498750D01*
X154027000Y-91510500D01*
X154047000Y-91510500D01*
X154047000Y-91764500D01*
X154027000Y-91764500D01*
X154027000Y-91784500D01*
X153773000Y-91784500D01*
X153773000Y-91764500D01*
X152523750Y-91764500D01*
X152400000Y-91888250D01*
X152276250Y-91764500D01*
X151027000Y-91764500D01*
X151027000Y-91784500D01*
X150773000Y-91784500D01*
X150773000Y-91764500D01*
X149523750Y-91764500D01*
X149365000Y-91923250D01*
X149361928Y-92300000D01*
X149374188Y-92424482D01*
X149410498Y-92544180D01*
X149469463Y-92654494D01*
X149484650Y-92673000D01*
X149327000Y-92673000D01*
X149327000Y-91500000D01*
X149324560Y-91475224D01*
X149317333Y-91451399D01*
X149305597Y-91429443D01*
X149289803Y-91410197D01*
X149270557Y-91394403D01*
X149248601Y-91382667D01*
X149224776Y-91375440D01*
X149200000Y-91373000D01*
X145356927Y-91373000D01*
X145338930Y-91317437D01*
X145333890Y-91308418D01*
X145333890Y-91072599D01*
X145324277Y-90975000D01*
X149361928Y-90975000D01*
X149365000Y-91351750D01*
X149523750Y-91510500D01*
X150773000Y-91510500D01*
X150773000Y-90498750D01*
X151027000Y-90498750D01*
X151027000Y-91510500D01*
X152276250Y-91510500D01*
X152400000Y-91386750D01*
X152523750Y-91510500D01*
X153773000Y-91510500D01*
X153773000Y-90498750D01*
X153614250Y-90340000D01*
X153000000Y-90336928D01*
X152875518Y-90349188D01*
X152755820Y-90385498D01*
X152645506Y-90444463D01*
X152548815Y-90523815D01*
X152469463Y-90620506D01*
X152410498Y-90730820D01*
X152400000Y-90765427D01*
X152389502Y-90730820D01*
X152330537Y-90620506D01*
X152251185Y-90523815D01*
X152154494Y-90444463D01*
X152044180Y-90385498D01*
X151924482Y-90349188D01*
X151800000Y-90336928D01*
X151185750Y-90340000D01*
X151027000Y-90498750D01*
X150773000Y-90498750D01*
X150614250Y-90340000D01*
X150000000Y-90336928D01*
X149875518Y-90349188D01*
X149755820Y-90385498D01*
X149645506Y-90444463D01*
X149548815Y-90523815D01*
X149469463Y-90620506D01*
X149410498Y-90730820D01*
X149374188Y-90850518D01*
X149361928Y-90975000D01*
X145324277Y-90975000D01*
X145322749Y-90959487D01*
X145303125Y-90894795D01*
X145305311Y-90872599D01*
X145284516Y-90661470D01*
X145222932Y-90458455D01*
X145127000Y-90278980D01*
X145127000Y-87427000D01*
X157273000Y-87427000D01*
X157273000Y-90956322D01*
G37*
%TD.AperFunction*%
%TD*%
D17*
%TO.N,+12V*%
X138873000Y-98000000D02*
X138875440Y-98024776D01*
X138882667Y-98048601D01*
X138894403Y-98070557D01*
X138910197Y-98089803D01*
X138929443Y-98105597D01*
X138951399Y-98117333D01*
X138975224Y-98124560D01*
X139000000Y-98127000D01*
X140673000Y-98127000D01*
X140673000Y-110573000D01*
X135200000Y-110573000D01*
X135175224Y-110575440D01*
X135151399Y-110582667D01*
X135129443Y-110594403D01*
X135110197Y-110610197D01*
X135094403Y-110629443D01*
X135082667Y-110651399D01*
X135075440Y-110675224D01*
X135073000Y-110700000D01*
X135073000Y-128398000D01*
X120602000Y-128398000D01*
X120602000Y-123644982D01*
X121395441Y-123644982D01*
X121395441Y-124355018D01*
X121533962Y-125051411D01*
X121805681Y-125707399D01*
X122200156Y-126297772D01*
X122702228Y-126799844D01*
X123292601Y-127194319D01*
X123948589Y-127466038D01*
X124644982Y-127604559D01*
X125355018Y-127604559D01*
X126051411Y-127466038D01*
X126707399Y-127194319D01*
X127297772Y-126799844D01*
X127799844Y-126297772D01*
X128194319Y-125707399D01*
X128466038Y-125051411D01*
X128604559Y-124355018D01*
X128604559Y-124027000D01*
X130825000Y-124027000D01*
X130825000Y-124927000D01*
X130879271Y-125224023D01*
X130990446Y-125504751D01*
X131154252Y-125758396D01*
X131364394Y-125975210D01*
X131612796Y-126146862D01*
X131889913Y-126266755D01*
X131995260Y-126291036D01*
X132233000Y-126170378D01*
X132233000Y-124027000D01*
X132487000Y-124027000D01*
X132487000Y-126170378D01*
X132724740Y-126291036D01*
X132830087Y-126266755D01*
X133107204Y-126146862D01*
X133355606Y-125975210D01*
X133565748Y-125758396D01*
X133729554Y-125504751D01*
X133840729Y-125224023D01*
X133895000Y-124927000D01*
X133895000Y-124027000D01*
X132487000Y-124027000D01*
X132233000Y-124027000D01*
X130825000Y-124027000D01*
X128604559Y-124027000D01*
X128604559Y-123644982D01*
X128466038Y-122948589D01*
X128434729Y-122873000D01*
X130825000Y-122873000D01*
X130825000Y-123773000D01*
X132233000Y-123773000D01*
X132233000Y-121629622D01*
X132487000Y-121629622D01*
X132487000Y-123773000D01*
X133895000Y-123773000D01*
X133895000Y-122873000D01*
X133840729Y-122575977D01*
X133729554Y-122295249D01*
X133565748Y-122041604D01*
X133355606Y-121824790D01*
X133107204Y-121653138D01*
X132830087Y-121533245D01*
X132724740Y-121508964D01*
X132487000Y-121629622D01*
X132233000Y-121629622D01*
X131995260Y-121508964D01*
X131889913Y-121533245D01*
X131612796Y-121653138D01*
X131364394Y-121824790D01*
X131154252Y-122041604D01*
X130990446Y-122295249D01*
X130879271Y-122575977D01*
X130825000Y-122873000D01*
X128434729Y-122873000D01*
X128194319Y-122292601D01*
X127799844Y-121702228D01*
X127297772Y-121200156D01*
X126707399Y-120805681D01*
X126051411Y-120533962D01*
X125355018Y-120395441D01*
X124644982Y-120395441D01*
X123948589Y-120533962D01*
X123292601Y-120805681D01*
X122702228Y-121200156D01*
X122200156Y-121702228D01*
X121805681Y-122292601D01*
X121533962Y-122948589D01*
X121395441Y-123644982D01*
X120602000Y-123644982D01*
X120602000Y-115827000D01*
X123415000Y-115827000D01*
X123415000Y-116127000D01*
X123477918Y-116511814D01*
X123614700Y-116876959D01*
X123820090Y-117208403D01*
X124086195Y-117493409D01*
X124402789Y-117721024D01*
X124757705Y-117882501D01*
X124964677Y-117936677D01*
X125273000Y-117821829D01*
X125273000Y-115827000D01*
X125527000Y-115827000D01*
X125527000Y-117821829D01*
X125835323Y-117936677D01*
X126042295Y-117882501D01*
X126397211Y-117721024D01*
X126713805Y-117493409D01*
X126979910Y-117208403D01*
X127185300Y-116876959D01*
X127322082Y-116511814D01*
X127385000Y-116127000D01*
X127385000Y-115827000D01*
X127615000Y-115827000D01*
X127615000Y-116127000D01*
X127677918Y-116511814D01*
X127814700Y-116876959D01*
X128020090Y-117208403D01*
X128286195Y-117493409D01*
X128602789Y-117721024D01*
X128957705Y-117882501D01*
X129164677Y-117936677D01*
X129473000Y-117821829D01*
X129473000Y-115827000D01*
X129727000Y-115827000D01*
X129727000Y-117821829D01*
X130035323Y-117936677D01*
X130242295Y-117882501D01*
X130597211Y-117721024D01*
X130913805Y-117493409D01*
X131179910Y-117208403D01*
X131385300Y-116876959D01*
X131522082Y-116511814D01*
X131585000Y-116127000D01*
X131585000Y-115827000D01*
X129727000Y-115827000D01*
X129473000Y-115827000D01*
X127615000Y-115827000D01*
X127385000Y-115827000D01*
X125527000Y-115827000D01*
X125273000Y-115827000D01*
X123415000Y-115827000D01*
X120602000Y-115827000D01*
X120602000Y-115273000D01*
X123415000Y-115273000D01*
X123415000Y-115573000D01*
X125273000Y-115573000D01*
X125273000Y-113578171D01*
X125527000Y-113578171D01*
X125527000Y-115573000D01*
X127385000Y-115573000D01*
X127385000Y-115273000D01*
X127615000Y-115273000D01*
X127615000Y-115573000D01*
X129473000Y-115573000D01*
X129473000Y-113578171D01*
X129727000Y-113578171D01*
X129727000Y-115573000D01*
X131585000Y-115573000D01*
X131585000Y-115273000D01*
X131522082Y-114888186D01*
X131385300Y-114523041D01*
X131179910Y-114191597D01*
X130913805Y-113906591D01*
X130597211Y-113678976D01*
X130242295Y-113517499D01*
X130035323Y-113463323D01*
X129727000Y-113578171D01*
X129473000Y-113578171D01*
X129164677Y-113463323D01*
X128957705Y-113517499D01*
X128602789Y-113678976D01*
X128286195Y-113906591D01*
X128020090Y-114191597D01*
X127814700Y-114523041D01*
X127677918Y-114888186D01*
X127615000Y-115273000D01*
X127385000Y-115273000D01*
X127322082Y-114888186D01*
X127185300Y-114523041D01*
X126979910Y-114191597D01*
X126713805Y-113906591D01*
X126397211Y-113678976D01*
X126042295Y-113517499D01*
X125835323Y-113463323D01*
X125527000Y-113578171D01*
X125273000Y-113578171D01*
X124964677Y-113463323D01*
X124757705Y-113517499D01*
X124402789Y-113678976D01*
X124086195Y-113906591D01*
X123820090Y-114191597D01*
X123614700Y-114523041D01*
X123477918Y-114888186D01*
X123415000Y-115273000D01*
X120602000Y-115273000D01*
X120602000Y-108800001D01*
X123470209Y-108800001D01*
X123470209Y-111599999D01*
X123486153Y-111761883D01*
X123533373Y-111917547D01*
X123610054Y-112061007D01*
X123713249Y-112186751D01*
X123838993Y-112289946D01*
X123982453Y-112366627D01*
X124138117Y-112413847D01*
X124300001Y-112429791D01*
X126499999Y-112429791D01*
X126661883Y-112413847D01*
X126817547Y-112366627D01*
X126961007Y-112289946D01*
X127086751Y-112186751D01*
X127189946Y-112061007D01*
X127266627Y-111917547D01*
X127313847Y-111761883D01*
X127329791Y-111599999D01*
X127329791Y-109805343D01*
X127673000Y-109805343D01*
X127673000Y-110594658D01*
X127700883Y-110877758D01*
X127811071Y-111240999D01*
X127990006Y-111575763D01*
X128230814Y-111869187D01*
X128524238Y-112109994D01*
X128859002Y-112288929D01*
X129222243Y-112399117D01*
X129600000Y-112436323D01*
X129977758Y-112399117D01*
X130340999Y-112288929D01*
X130675763Y-112109994D01*
X130969187Y-111869187D01*
X131209994Y-111575763D01*
X131388929Y-111240999D01*
X131499117Y-110877757D01*
X131527000Y-110594657D01*
X131527000Y-109805342D01*
X131499117Y-109522242D01*
X131388929Y-109159001D01*
X131209994Y-108824237D01*
X130969187Y-108530813D01*
X130675763Y-108290006D01*
X130340998Y-108111071D01*
X129977757Y-108000883D01*
X129600000Y-107963677D01*
X129222242Y-108000883D01*
X128859001Y-108111071D01*
X128524237Y-108290006D01*
X128230813Y-108530813D01*
X127990006Y-108824237D01*
X127811071Y-109159002D01*
X127700883Y-109522243D01*
X127673000Y-109805343D01*
X127329791Y-109805343D01*
X127329791Y-108800001D01*
X127313847Y-108638117D01*
X127266627Y-108482453D01*
X127189946Y-108338993D01*
X127086751Y-108213249D01*
X126961007Y-108110054D01*
X126817547Y-108033373D01*
X126661883Y-107986153D01*
X126499999Y-107970209D01*
X124300001Y-107970209D01*
X124138117Y-107986153D01*
X123982453Y-108033373D01*
X123838993Y-108110054D01*
X123713249Y-108213249D01*
X123610054Y-108338993D01*
X123533373Y-108482453D01*
X123486153Y-108638117D01*
X123470209Y-108800001D01*
X120602000Y-108800001D01*
X120602000Y-101022532D01*
X122823000Y-101022532D01*
X122823001Y-104177469D01*
X122845819Y-104409146D01*
X122935994Y-104706412D01*
X123082429Y-104980373D01*
X123279498Y-105220503D01*
X123519628Y-105417572D01*
X123793589Y-105564007D01*
X124090855Y-105654182D01*
X124400000Y-105684630D01*
X124709146Y-105654182D01*
X125006412Y-105564007D01*
X125280373Y-105417572D01*
X125520503Y-105220503D01*
X125717572Y-104980373D01*
X125864007Y-104706412D01*
X125954182Y-104409146D01*
X125977000Y-104177469D01*
X125977000Y-101022531D01*
X125954182Y-100790854D01*
X125864007Y-100493588D01*
X125717572Y-100219627D01*
X125520503Y-99979497D01*
X125280372Y-99782428D01*
X125006411Y-99635993D01*
X124709145Y-99545818D01*
X124400000Y-99515370D01*
X124090854Y-99545818D01*
X123793588Y-99635993D01*
X123519627Y-99782428D01*
X123279497Y-99979497D01*
X123082428Y-100219628D01*
X122935993Y-100493589D01*
X122845818Y-100790855D01*
X122823000Y-101022532D01*
X120602000Y-101022532D01*
X120602000Y-97522532D01*
X126023000Y-97522532D01*
X126023001Y-100677469D01*
X126045819Y-100909146D01*
X126135994Y-101206412D01*
X126282429Y-101480373D01*
X126479498Y-101720503D01*
X126719628Y-101917572D01*
X126993589Y-102064007D01*
X127290855Y-102154182D01*
X127600000Y-102184630D01*
X127909146Y-102154182D01*
X128206412Y-102064007D01*
X128480373Y-101917572D01*
X128720503Y-101720503D01*
X128917572Y-101480373D01*
X129064007Y-101206412D01*
X129154182Y-100909146D01*
X129172121Y-100727000D01*
X133265000Y-100727000D01*
X133265000Y-102227000D01*
X133321193Y-102543532D01*
X133438058Y-102843020D01*
X133611105Y-103113954D01*
X133833683Y-103345922D01*
X134097239Y-103530010D01*
X134391645Y-103659144D01*
X134519566Y-103690124D01*
X134773000Y-103570777D01*
X134773000Y-100727000D01*
X135027000Y-100727000D01*
X135027000Y-103570777D01*
X135280434Y-103690124D01*
X135408355Y-103659144D01*
X135702761Y-103530010D01*
X135966317Y-103345922D01*
X136188895Y-103113954D01*
X136361942Y-102843020D01*
X136478807Y-102543532D01*
X136535000Y-102227000D01*
X136535000Y-100727000D01*
X135027000Y-100727000D01*
X134773000Y-100727000D01*
X133265000Y-100727000D01*
X129172121Y-100727000D01*
X129177000Y-100677469D01*
X129177000Y-98973000D01*
X133265000Y-98973000D01*
X133265000Y-100473000D01*
X134773000Y-100473000D01*
X134773000Y-97629223D01*
X135027000Y-97629223D01*
X135027000Y-100473000D01*
X136535000Y-100473000D01*
X136535000Y-98973000D01*
X136478807Y-98656468D01*
X136361942Y-98356980D01*
X136188895Y-98086046D01*
X135966317Y-97854078D01*
X135702761Y-97669990D01*
X135408355Y-97540856D01*
X135280434Y-97509876D01*
X135027000Y-97629223D01*
X134773000Y-97629223D01*
X134519566Y-97509876D01*
X134391645Y-97540856D01*
X134097239Y-97669990D01*
X133833683Y-97854078D01*
X133611105Y-98086046D01*
X133438058Y-98356980D01*
X133321193Y-98656468D01*
X133265000Y-98973000D01*
X129177000Y-98973000D01*
X129177000Y-97522531D01*
X129154182Y-97290854D01*
X129064007Y-96993588D01*
X128917572Y-96719627D01*
X128720503Y-96479497D01*
X128480372Y-96282428D01*
X128206411Y-96135993D01*
X127909145Y-96045818D01*
X127600000Y-96015370D01*
X127290854Y-96045818D01*
X126993588Y-96135993D01*
X126719627Y-96282428D01*
X126479497Y-96479497D01*
X126282428Y-96719628D01*
X126135993Y-96993589D01*
X126045818Y-97290855D01*
X126023000Y-97522532D01*
X120602000Y-97522532D01*
X120602000Y-95127000D01*
X138873000Y-95127000D01*
X138873000Y-98000000D01*
%TA.AperFunction,Conductor*%
D18*
G36*
X138873000Y-98000000D02*
G01*
X138875440Y-98024776D01*
X138882667Y-98048601D01*
X138894403Y-98070557D01*
X138910197Y-98089803D01*
X138929443Y-98105597D01*
X138951399Y-98117333D01*
X138975224Y-98124560D01*
X139000000Y-98127000D01*
X140673000Y-98127000D01*
X140673000Y-110573000D01*
X135200000Y-110573000D01*
X135175224Y-110575440D01*
X135151399Y-110582667D01*
X135129443Y-110594403D01*
X135110197Y-110610197D01*
X135094403Y-110629443D01*
X135082667Y-110651399D01*
X135075440Y-110675224D01*
X135073000Y-110700000D01*
X135073000Y-128398000D01*
X120602000Y-128398000D01*
X120602000Y-123644982D01*
X121395441Y-123644982D01*
X121395441Y-124355018D01*
X121533962Y-125051411D01*
X121805681Y-125707399D01*
X122200156Y-126297772D01*
X122702228Y-126799844D01*
X123292601Y-127194319D01*
X123948589Y-127466038D01*
X124644982Y-127604559D01*
X125355018Y-127604559D01*
X126051411Y-127466038D01*
X126707399Y-127194319D01*
X127297772Y-126799844D01*
X127799844Y-126297772D01*
X128194319Y-125707399D01*
X128466038Y-125051411D01*
X128604559Y-124355018D01*
X128604559Y-124027000D01*
X130825000Y-124027000D01*
X130825000Y-124927000D01*
X130879271Y-125224023D01*
X130990446Y-125504751D01*
X131154252Y-125758396D01*
X131364394Y-125975210D01*
X131612796Y-126146862D01*
X131889913Y-126266755D01*
X131995260Y-126291036D01*
X132233000Y-126170378D01*
X132233000Y-124027000D01*
X132487000Y-124027000D01*
X132487000Y-126170378D01*
X132724740Y-126291036D01*
X132830087Y-126266755D01*
X133107204Y-126146862D01*
X133355606Y-125975210D01*
X133565748Y-125758396D01*
X133729554Y-125504751D01*
X133840729Y-125224023D01*
X133895000Y-124927000D01*
X133895000Y-124027000D01*
X132487000Y-124027000D01*
X132233000Y-124027000D01*
X130825000Y-124027000D01*
X128604559Y-124027000D01*
X128604559Y-123644982D01*
X128466038Y-122948589D01*
X128434729Y-122873000D01*
X130825000Y-122873000D01*
X130825000Y-123773000D01*
X132233000Y-123773000D01*
X132233000Y-121629622D01*
X132487000Y-121629622D01*
X132487000Y-123773000D01*
X133895000Y-123773000D01*
X133895000Y-122873000D01*
X133840729Y-122575977D01*
X133729554Y-122295249D01*
X133565748Y-122041604D01*
X133355606Y-121824790D01*
X133107204Y-121653138D01*
X132830087Y-121533245D01*
X132724740Y-121508964D01*
X132487000Y-121629622D01*
X132233000Y-121629622D01*
X131995260Y-121508964D01*
X131889913Y-121533245D01*
X131612796Y-121653138D01*
X131364394Y-121824790D01*
X131154252Y-122041604D01*
X130990446Y-122295249D01*
X130879271Y-122575977D01*
X130825000Y-122873000D01*
X128434729Y-122873000D01*
X128194319Y-122292601D01*
X127799844Y-121702228D01*
X127297772Y-121200156D01*
X126707399Y-120805681D01*
X126051411Y-120533962D01*
X125355018Y-120395441D01*
X124644982Y-120395441D01*
X123948589Y-120533962D01*
X123292601Y-120805681D01*
X122702228Y-121200156D01*
X122200156Y-121702228D01*
X121805681Y-122292601D01*
X121533962Y-122948589D01*
X121395441Y-123644982D01*
X120602000Y-123644982D01*
X120602000Y-115827000D01*
X123415000Y-115827000D01*
X123415000Y-116127000D01*
X123477918Y-116511814D01*
X123614700Y-116876959D01*
X123820090Y-117208403D01*
X124086195Y-117493409D01*
X124402789Y-117721024D01*
X124757705Y-117882501D01*
X124964677Y-117936677D01*
X125273000Y-117821829D01*
X125273000Y-115827000D01*
X125527000Y-115827000D01*
X125527000Y-117821829D01*
X125835323Y-117936677D01*
X126042295Y-117882501D01*
X126397211Y-117721024D01*
X126713805Y-117493409D01*
X126979910Y-117208403D01*
X127185300Y-116876959D01*
X127322082Y-116511814D01*
X127385000Y-116127000D01*
X127385000Y-115827000D01*
X127615000Y-115827000D01*
X127615000Y-116127000D01*
X127677918Y-116511814D01*
X127814700Y-116876959D01*
X128020090Y-117208403D01*
X128286195Y-117493409D01*
X128602789Y-117721024D01*
X128957705Y-117882501D01*
X129164677Y-117936677D01*
X129473000Y-117821829D01*
X129473000Y-115827000D01*
X129727000Y-115827000D01*
X129727000Y-117821829D01*
X130035323Y-117936677D01*
X130242295Y-117882501D01*
X130597211Y-117721024D01*
X130913805Y-117493409D01*
X131179910Y-117208403D01*
X131385300Y-116876959D01*
X131522082Y-116511814D01*
X131585000Y-116127000D01*
X131585000Y-115827000D01*
X129727000Y-115827000D01*
X129473000Y-115827000D01*
X127615000Y-115827000D01*
X127385000Y-115827000D01*
X125527000Y-115827000D01*
X125273000Y-115827000D01*
X123415000Y-115827000D01*
X120602000Y-115827000D01*
X120602000Y-115273000D01*
X123415000Y-115273000D01*
X123415000Y-115573000D01*
X125273000Y-115573000D01*
X125273000Y-113578171D01*
X125527000Y-113578171D01*
X125527000Y-115573000D01*
X127385000Y-115573000D01*
X127385000Y-115273000D01*
X127615000Y-115273000D01*
X127615000Y-115573000D01*
X129473000Y-115573000D01*
X129473000Y-113578171D01*
X129727000Y-113578171D01*
X129727000Y-115573000D01*
X131585000Y-115573000D01*
X131585000Y-115273000D01*
X131522082Y-114888186D01*
X131385300Y-114523041D01*
X131179910Y-114191597D01*
X130913805Y-113906591D01*
X130597211Y-113678976D01*
X130242295Y-113517499D01*
X130035323Y-113463323D01*
X129727000Y-113578171D01*
X129473000Y-113578171D01*
X129164677Y-113463323D01*
X128957705Y-113517499D01*
X128602789Y-113678976D01*
X128286195Y-113906591D01*
X128020090Y-114191597D01*
X127814700Y-114523041D01*
X127677918Y-114888186D01*
X127615000Y-115273000D01*
X127385000Y-115273000D01*
X127322082Y-114888186D01*
X127185300Y-114523041D01*
X126979910Y-114191597D01*
X126713805Y-113906591D01*
X126397211Y-113678976D01*
X126042295Y-113517499D01*
X125835323Y-113463323D01*
X125527000Y-113578171D01*
X125273000Y-113578171D01*
X124964677Y-113463323D01*
X124757705Y-113517499D01*
X124402789Y-113678976D01*
X124086195Y-113906591D01*
X123820090Y-114191597D01*
X123614700Y-114523041D01*
X123477918Y-114888186D01*
X123415000Y-115273000D01*
X120602000Y-115273000D01*
X120602000Y-108800001D01*
X123470209Y-108800001D01*
X123470209Y-111599999D01*
X123486153Y-111761883D01*
X123533373Y-111917547D01*
X123610054Y-112061007D01*
X123713249Y-112186751D01*
X123838993Y-112289946D01*
X123982453Y-112366627D01*
X124138117Y-112413847D01*
X124300001Y-112429791D01*
X126499999Y-112429791D01*
X126661883Y-112413847D01*
X126817547Y-112366627D01*
X126961007Y-112289946D01*
X127086751Y-112186751D01*
X127189946Y-112061007D01*
X127266627Y-111917547D01*
X127313847Y-111761883D01*
X127329791Y-111599999D01*
X127329791Y-109805343D01*
X127673000Y-109805343D01*
X127673000Y-110594658D01*
X127700883Y-110877758D01*
X127811071Y-111240999D01*
X127990006Y-111575763D01*
X128230814Y-111869187D01*
X128524238Y-112109994D01*
X128859002Y-112288929D01*
X129222243Y-112399117D01*
X129600000Y-112436323D01*
X129977758Y-112399117D01*
X130340999Y-112288929D01*
X130675763Y-112109994D01*
X130969187Y-111869187D01*
X131209994Y-111575763D01*
X131388929Y-111240999D01*
X131499117Y-110877757D01*
X131527000Y-110594657D01*
X131527000Y-109805342D01*
X131499117Y-109522242D01*
X131388929Y-109159001D01*
X131209994Y-108824237D01*
X130969187Y-108530813D01*
X130675763Y-108290006D01*
X130340998Y-108111071D01*
X129977757Y-108000883D01*
X129600000Y-107963677D01*
X129222242Y-108000883D01*
X128859001Y-108111071D01*
X128524237Y-108290006D01*
X128230813Y-108530813D01*
X127990006Y-108824237D01*
X127811071Y-109159002D01*
X127700883Y-109522243D01*
X127673000Y-109805343D01*
X127329791Y-109805343D01*
X127329791Y-108800001D01*
X127313847Y-108638117D01*
X127266627Y-108482453D01*
X127189946Y-108338993D01*
X127086751Y-108213249D01*
X126961007Y-108110054D01*
X126817547Y-108033373D01*
X126661883Y-107986153D01*
X126499999Y-107970209D01*
X124300001Y-107970209D01*
X124138117Y-107986153D01*
X123982453Y-108033373D01*
X123838993Y-108110054D01*
X123713249Y-108213249D01*
X123610054Y-108338993D01*
X123533373Y-108482453D01*
X123486153Y-108638117D01*
X123470209Y-108800001D01*
X120602000Y-108800001D01*
X120602000Y-101022532D01*
X122823000Y-101022532D01*
X122823001Y-104177469D01*
X122845819Y-104409146D01*
X122935994Y-104706412D01*
X123082429Y-104980373D01*
X123279498Y-105220503D01*
X123519628Y-105417572D01*
X123793589Y-105564007D01*
X124090855Y-105654182D01*
X124400000Y-105684630D01*
X124709146Y-105654182D01*
X125006412Y-105564007D01*
X125280373Y-105417572D01*
X125520503Y-105220503D01*
X125717572Y-104980373D01*
X125864007Y-104706412D01*
X125954182Y-104409146D01*
X125977000Y-104177469D01*
X125977000Y-101022531D01*
X125954182Y-100790854D01*
X125864007Y-100493588D01*
X125717572Y-100219627D01*
X125520503Y-99979497D01*
X125280372Y-99782428D01*
X125006411Y-99635993D01*
X124709145Y-99545818D01*
X124400000Y-99515370D01*
X124090854Y-99545818D01*
X123793588Y-99635993D01*
X123519627Y-99782428D01*
X123279497Y-99979497D01*
X123082428Y-100219628D01*
X122935993Y-100493589D01*
X122845818Y-100790855D01*
X122823000Y-101022532D01*
X120602000Y-101022532D01*
X120602000Y-97522532D01*
X126023000Y-97522532D01*
X126023001Y-100677469D01*
X126045819Y-100909146D01*
X126135994Y-101206412D01*
X126282429Y-101480373D01*
X126479498Y-101720503D01*
X126719628Y-101917572D01*
X126993589Y-102064007D01*
X127290855Y-102154182D01*
X127600000Y-102184630D01*
X127909146Y-102154182D01*
X128206412Y-102064007D01*
X128480373Y-101917572D01*
X128720503Y-101720503D01*
X128917572Y-101480373D01*
X129064007Y-101206412D01*
X129154182Y-100909146D01*
X129172121Y-100727000D01*
X133265000Y-100727000D01*
X133265000Y-102227000D01*
X133321193Y-102543532D01*
X133438058Y-102843020D01*
X133611105Y-103113954D01*
X133833683Y-103345922D01*
X134097239Y-103530010D01*
X134391645Y-103659144D01*
X134519566Y-103690124D01*
X134773000Y-103570777D01*
X134773000Y-100727000D01*
X135027000Y-100727000D01*
X135027000Y-103570777D01*
X135280434Y-103690124D01*
X135408355Y-103659144D01*
X135702761Y-103530010D01*
X135966317Y-103345922D01*
X136188895Y-103113954D01*
X136361942Y-102843020D01*
X136478807Y-102543532D01*
X136535000Y-102227000D01*
X136535000Y-100727000D01*
X135027000Y-100727000D01*
X134773000Y-100727000D01*
X133265000Y-100727000D01*
X129172121Y-100727000D01*
X129177000Y-100677469D01*
X129177000Y-98973000D01*
X133265000Y-98973000D01*
X133265000Y-100473000D01*
X134773000Y-100473000D01*
X134773000Y-97629223D01*
X135027000Y-97629223D01*
X135027000Y-100473000D01*
X136535000Y-100473000D01*
X136535000Y-98973000D01*
X136478807Y-98656468D01*
X136361942Y-98356980D01*
X136188895Y-98086046D01*
X135966317Y-97854078D01*
X135702761Y-97669990D01*
X135408355Y-97540856D01*
X135280434Y-97509876D01*
X135027000Y-97629223D01*
X134773000Y-97629223D01*
X134519566Y-97509876D01*
X134391645Y-97540856D01*
X134097239Y-97669990D01*
X133833683Y-97854078D01*
X133611105Y-98086046D01*
X133438058Y-98356980D01*
X133321193Y-98656468D01*
X133265000Y-98973000D01*
X129177000Y-98973000D01*
X129177000Y-97522531D01*
X129154182Y-97290854D01*
X129064007Y-96993588D01*
X128917572Y-96719627D01*
X128720503Y-96479497D01*
X128480372Y-96282428D01*
X128206411Y-96135993D01*
X127909145Y-96045818D01*
X127600000Y-96015370D01*
X127290854Y-96045818D01*
X126993588Y-96135993D01*
X126719627Y-96282428D01*
X126479497Y-96479497D01*
X126282428Y-96719628D01*
X126135993Y-96993589D01*
X126045818Y-97290855D01*
X126023000Y-97522532D01*
X120602000Y-97522532D01*
X120602000Y-95127000D01*
X138873000Y-95127000D01*
X138873000Y-98000000D01*
G37*
%TD.AperFunction*%
%TD*%
M02*
