%TF.GenerationSoftware,KiCad,Pcbnew,(5.1.9)-1*%
%TF.CreationDate,2021-07-15T22:57:35+09:00*%
%TF.ProjectId,4710MQ Power Supply,34373130-4d51-4205-906f-776572205375,rev?*%
%TF.SameCoordinates,Original*%
%TF.FileFunction,Copper,L2,Bot*%
%TF.FilePolarity,Positive*%
%FSLAX46Y46*%
G04 Gerber Fmt 4.6, Leading zero omitted, Abs format (unit mm)*
G04 Created by KiCad (PCBNEW (5.1.9)-1) date 2021-07-15 22:57:35*
%MOMM*%
%LPD*%
G01*
G04 APERTURE LIST*
%TA.AperFunction,ComponentPad*%
%ADD10O,2.000000X5.000000*%
%TD*%
%TA.AperFunction,ComponentPad*%
%ADD11O,1.800000X3.600000*%
%TD*%
%TA.AperFunction,ComponentPad*%
%ADD12O,2.700000X3.300000*%
%TD*%
%TA.AperFunction,ViaPad*%
%ADD13C,0.800000*%
%TD*%
%TA.AperFunction,Conductor*%
%ADD14C,1.000000*%
%TD*%
%TA.AperFunction,Conductor*%
%ADD15C,0.254000*%
%TD*%
%TA.AperFunction,Conductor*%
%ADD16C,0.100000*%
%TD*%
G04 APERTURE END LIST*
D10*
%TO.P,J1,3*%
%TO.N,N/C*%
X127600000Y-99100000D03*
%TO.P,J1,2*%
%TO.N,GND*%
X124400000Y-102600000D03*
%TO.P,J1,1*%
%TO.N,+12V*%
X134900000Y-100600000D03*
%TD*%
D11*
%TO.P,J3,4*%
%TO.N,+12V*%
X132360000Y-123900000D03*
%TO.P,J3,3*%
%TO.N,GND*%
X137440000Y-123900000D03*
%TO.P,J3,2*%
X142520000Y-123900000D03*
%TO.P,J3,1*%
%TO.N,+5V*%
%TA.AperFunction,ComponentPad*%
G36*
G01*
X148500000Y-122350000D02*
X148500000Y-125450000D01*
G75*
G02*
X148250000Y-125700000I-250000J0D01*
G01*
X146950000Y-125700000D01*
G75*
G02*
X146700000Y-125450000I0J250000D01*
G01*
X146700000Y-122350000D01*
G75*
G02*
X146950000Y-122100000I250000J0D01*
G01*
X148250000Y-122100000D01*
G75*
G02*
X148500000Y-122350000I0J-250000D01*
G01*
G37*
%TD.AperFunction*%
%TD*%
D12*
%TO.P,J2,4*%
%TO.N,+12V*%
X129600000Y-115700000D03*
%TO.P,J2,3*%
X125400000Y-115700000D03*
%TO.P,J2,2*%
%TO.N,GND*%
X129600000Y-110200000D03*
%TO.P,J2,1*%
%TA.AperFunction,ComponentPad*%
G36*
G01*
X124050000Y-111599999D02*
X124050000Y-108800001D01*
G75*
G02*
X124300001Y-108550000I250001J0D01*
G01*
X126499999Y-108550000D01*
G75*
G02*
X126750000Y-108800001I0J-250001D01*
G01*
X126750000Y-111599999D01*
G75*
G02*
X126499999Y-111850000I-250001J0D01*
G01*
X124300001Y-111850000D01*
G75*
G02*
X124050000Y-111599999I0J250001D01*
G01*
G37*
%TD.AperFunction*%
%TD*%
D13*
%TO.N,GND*%
X122000000Y-92000000D03*
X123000000Y-92000000D03*
X124000000Y-92000000D03*
X125000000Y-92000000D03*
X126000000Y-92000000D03*
X126000000Y-91000000D03*
X125000000Y-91000000D03*
X124000000Y-91000000D03*
X123000000Y-91000000D03*
X122000000Y-91000000D03*
X122000000Y-90000000D03*
X123000000Y-90000000D03*
X124000000Y-90000000D03*
X125000000Y-90000000D03*
X126000000Y-90000000D03*
X126000000Y-89000000D03*
X125000000Y-89000000D03*
X124000000Y-89000000D03*
X123000000Y-89000000D03*
X122000000Y-89000000D03*
X122000000Y-88000000D03*
X123000000Y-88000000D03*
X124000000Y-88000000D03*
X125000000Y-88000000D03*
X126000000Y-88000000D03*
X126000000Y-87000000D03*
X125000000Y-87000000D03*
X124000000Y-87000000D03*
X123000000Y-87000000D03*
X122000000Y-87000000D03*
X122000000Y-86000000D03*
X123000000Y-86000000D03*
X124000000Y-86000000D03*
X125000000Y-86000000D03*
X126000000Y-86000000D03*
%TO.N,+12V*%
X146100000Y-87800000D03*
X147000000Y-87800000D03*
X147900000Y-87800000D03*
X148800000Y-87800000D03*
X148800000Y-88700000D03*
X147900000Y-88700000D03*
X147000000Y-88700000D03*
X146100000Y-88700000D03*
X146100000Y-89600000D03*
X147000000Y-89600000D03*
X147900000Y-89600000D03*
X148800000Y-89600000D03*
X148800000Y-90500000D03*
X147900000Y-90500000D03*
X147000000Y-90500000D03*
X146100000Y-90500000D03*
%TO.N,+5V*%
X141400000Y-84700000D03*
X155000000Y-107200000D03*
%TO.N,/SW*%
X148500000Y-98500000D03*
X147500000Y-98500000D03*
X146500000Y-98500000D03*
X145500000Y-98500000D03*
X145500000Y-99500000D03*
X146500000Y-99500000D03*
X147500000Y-99500000D03*
X148500000Y-99500000D03*
X148500000Y-100500000D03*
X147500000Y-100500000D03*
X146500000Y-100500000D03*
X145500000Y-100500000D03*
X145500000Y-101500000D03*
X146500000Y-101500000D03*
X147500000Y-101500000D03*
X148500000Y-101500000D03*
X147100000Y-94600000D03*
X146200000Y-94600000D03*
X147100000Y-93700000D03*
X146200000Y-93700000D03*
X148000000Y-93700000D03*
X148000000Y-94600000D03*
X148000000Y-92800000D03*
X147100000Y-92800000D03*
X146200000Y-92800000D03*
%TD*%
D14*
%TO.N,+5V*%
X158000001Y-104199999D02*
X155000000Y-107200000D01*
X158000001Y-88371999D02*
X158000001Y-104199999D01*
X154328002Y-84700000D02*
X158000001Y-88371999D01*
X141400000Y-84700000D02*
X154328002Y-84700000D01*
%TD*%
D15*
%TO.N,/SW*%
X149073000Y-101873000D02*
X144827000Y-101873000D01*
X144827000Y-92127000D01*
X149073000Y-92127000D01*
X149073000Y-101873000D01*
%TA.AperFunction,Conductor*%
D16*
G36*
X149073000Y-101873000D02*
G01*
X144827000Y-101873000D01*
X144827000Y-92127000D01*
X149073000Y-92127000D01*
X149073000Y-101873000D01*
G37*
%TD.AperFunction*%
%TD*%
D15*
%TO.N,+12V*%
X149273000Y-91073000D02*
X140800000Y-91073000D01*
X140775224Y-91075440D01*
X140751399Y-91082667D01*
X140729443Y-91094403D01*
X140710197Y-91110197D01*
X140694403Y-91129443D01*
X140682667Y-91151399D01*
X140675440Y-91175224D01*
X140673000Y-91200000D01*
X140673000Y-110573000D01*
X133227000Y-110573000D01*
X133227000Y-100727000D01*
X133265000Y-100727000D01*
X133265000Y-102227000D01*
X133321193Y-102543532D01*
X133438058Y-102843020D01*
X133611105Y-103113954D01*
X133833683Y-103345922D01*
X134097239Y-103530010D01*
X134391645Y-103659144D01*
X134519566Y-103690124D01*
X134773000Y-103570777D01*
X134773000Y-100727000D01*
X135027000Y-100727000D01*
X135027000Y-103570777D01*
X135280434Y-103690124D01*
X135408355Y-103659144D01*
X135702761Y-103530010D01*
X135966317Y-103345922D01*
X136188895Y-103113954D01*
X136361942Y-102843020D01*
X136478807Y-102543532D01*
X136535000Y-102227000D01*
X136535000Y-100727000D01*
X135027000Y-100727000D01*
X134773000Y-100727000D01*
X133265000Y-100727000D01*
X133227000Y-100727000D01*
X133227000Y-98973000D01*
X133265000Y-98973000D01*
X133265000Y-100473000D01*
X134773000Y-100473000D01*
X134773000Y-97629223D01*
X135027000Y-97629223D01*
X135027000Y-100473000D01*
X136535000Y-100473000D01*
X136535000Y-98973000D01*
X136478807Y-98656468D01*
X136361942Y-98356980D01*
X136188895Y-98086046D01*
X135966317Y-97854078D01*
X135702761Y-97669990D01*
X135408355Y-97540856D01*
X135280434Y-97509876D01*
X135027000Y-97629223D01*
X134773000Y-97629223D01*
X134519566Y-97509876D01*
X134391645Y-97540856D01*
X134097239Y-97669990D01*
X133833683Y-97854078D01*
X133611105Y-98086046D01*
X133438058Y-98356980D01*
X133321193Y-98656468D01*
X133265000Y-98973000D01*
X133227000Y-98973000D01*
X133227000Y-87427000D01*
X149273000Y-87427000D01*
X149273000Y-91073000D01*
%TA.AperFunction,Conductor*%
D16*
G36*
X149273000Y-91073000D02*
G01*
X140800000Y-91073000D01*
X140775224Y-91075440D01*
X140751399Y-91082667D01*
X140729443Y-91094403D01*
X140710197Y-91110197D01*
X140694403Y-91129443D01*
X140682667Y-91151399D01*
X140675440Y-91175224D01*
X140673000Y-91200000D01*
X140673000Y-110573000D01*
X133227000Y-110573000D01*
X133227000Y-100727000D01*
X133265000Y-100727000D01*
X133265000Y-102227000D01*
X133321193Y-102543532D01*
X133438058Y-102843020D01*
X133611105Y-103113954D01*
X133833683Y-103345922D01*
X134097239Y-103530010D01*
X134391645Y-103659144D01*
X134519566Y-103690124D01*
X134773000Y-103570777D01*
X134773000Y-100727000D01*
X135027000Y-100727000D01*
X135027000Y-103570777D01*
X135280434Y-103690124D01*
X135408355Y-103659144D01*
X135702761Y-103530010D01*
X135966317Y-103345922D01*
X136188895Y-103113954D01*
X136361942Y-102843020D01*
X136478807Y-102543532D01*
X136535000Y-102227000D01*
X136535000Y-100727000D01*
X135027000Y-100727000D01*
X134773000Y-100727000D01*
X133265000Y-100727000D01*
X133227000Y-100727000D01*
X133227000Y-98973000D01*
X133265000Y-98973000D01*
X133265000Y-100473000D01*
X134773000Y-100473000D01*
X134773000Y-97629223D01*
X135027000Y-97629223D01*
X135027000Y-100473000D01*
X136535000Y-100473000D01*
X136535000Y-98973000D01*
X136478807Y-98656468D01*
X136361942Y-98356980D01*
X136188895Y-98086046D01*
X135966317Y-97854078D01*
X135702761Y-97669990D01*
X135408355Y-97540856D01*
X135280434Y-97509876D01*
X135027000Y-97629223D01*
X134773000Y-97629223D01*
X134519566Y-97509876D01*
X134391645Y-97540856D01*
X134097239Y-97669990D01*
X133833683Y-97854078D01*
X133611105Y-98086046D01*
X133438058Y-98356980D01*
X133321193Y-98656468D01*
X133265000Y-98973000D01*
X133227000Y-98973000D01*
X133227000Y-87427000D01*
X149273000Y-87427000D01*
X149273000Y-91073000D01*
G37*
%TD.AperFunction*%
%TD*%
D15*
%TO.N,GND*%
X159340000Y-128340000D02*
X120660000Y-128340000D01*
X120660000Y-123639297D01*
X121337720Y-123639297D01*
X121337720Y-124360703D01*
X121478460Y-125068248D01*
X121754530Y-125734740D01*
X122155322Y-126334567D01*
X122665433Y-126844678D01*
X123265260Y-127245470D01*
X123931752Y-127521540D01*
X124639297Y-127662280D01*
X125360703Y-127662280D01*
X126068248Y-127521540D01*
X126734740Y-127245470D01*
X127334567Y-126844678D01*
X127844678Y-126334567D01*
X128245470Y-125734740D01*
X128521540Y-125068248D01*
X128662280Y-124360703D01*
X128662280Y-123639297D01*
X128521540Y-122931752D01*
X128518575Y-122924592D01*
X130825000Y-122924592D01*
X130825000Y-124875407D01*
X130847210Y-125100912D01*
X130934983Y-125390260D01*
X131077519Y-125656926D01*
X131269339Y-125890661D01*
X131503073Y-126082481D01*
X131769739Y-126225017D01*
X132059087Y-126312790D01*
X132360000Y-126342427D01*
X132660912Y-126312790D01*
X132950260Y-126225017D01*
X133216926Y-126082481D01*
X133450661Y-125890661D01*
X133642481Y-125656927D01*
X133785017Y-125390261D01*
X133872790Y-125100913D01*
X133895000Y-124875408D01*
X133895000Y-124027000D01*
X135905000Y-124027000D01*
X135905000Y-124927000D01*
X135959271Y-125224023D01*
X136070446Y-125504751D01*
X136234252Y-125758396D01*
X136444394Y-125975210D01*
X136692796Y-126146862D01*
X136969913Y-126266755D01*
X137075260Y-126291036D01*
X137313000Y-126170378D01*
X137313000Y-124027000D01*
X137567000Y-124027000D01*
X137567000Y-126170378D01*
X137804740Y-126291036D01*
X137910087Y-126266755D01*
X138187204Y-126146862D01*
X138435606Y-125975210D01*
X138645748Y-125758396D01*
X138809554Y-125504751D01*
X138920729Y-125224023D01*
X138975000Y-124927000D01*
X138975000Y-124027000D01*
X140985000Y-124027000D01*
X140985000Y-124927000D01*
X141039271Y-125224023D01*
X141150446Y-125504751D01*
X141314252Y-125758396D01*
X141524394Y-125975210D01*
X141772796Y-126146862D01*
X142049913Y-126266755D01*
X142155260Y-126291036D01*
X142393000Y-126170378D01*
X142393000Y-124027000D01*
X142647000Y-124027000D01*
X142647000Y-126170378D01*
X142884740Y-126291036D01*
X142990087Y-126266755D01*
X143267204Y-126146862D01*
X143515606Y-125975210D01*
X143725748Y-125758396D01*
X143889554Y-125504751D01*
X144000729Y-125224023D01*
X144055000Y-124927000D01*
X144055000Y-124027000D01*
X142647000Y-124027000D01*
X142393000Y-124027000D01*
X140985000Y-124027000D01*
X138975000Y-124027000D01*
X137567000Y-124027000D01*
X137313000Y-124027000D01*
X135905000Y-124027000D01*
X133895000Y-124027000D01*
X133895000Y-122924592D01*
X133889919Y-122873000D01*
X135905000Y-122873000D01*
X135905000Y-123773000D01*
X137313000Y-123773000D01*
X137313000Y-121629622D01*
X137567000Y-121629622D01*
X137567000Y-123773000D01*
X138975000Y-123773000D01*
X138975000Y-122873000D01*
X140985000Y-122873000D01*
X140985000Y-123773000D01*
X142393000Y-123773000D01*
X142393000Y-121629622D01*
X142647000Y-121629622D01*
X142647000Y-123773000D01*
X144055000Y-123773000D01*
X144055000Y-122873000D01*
X144000729Y-122575977D01*
X143911237Y-122350000D01*
X146061928Y-122350000D01*
X146061928Y-125450000D01*
X146078992Y-125623254D01*
X146129528Y-125789850D01*
X146211595Y-125943386D01*
X146322038Y-126077962D01*
X146456614Y-126188405D01*
X146610150Y-126270472D01*
X146776746Y-126321008D01*
X146950000Y-126338072D01*
X148250000Y-126338072D01*
X148423254Y-126321008D01*
X148589850Y-126270472D01*
X148743386Y-126188405D01*
X148877962Y-126077962D01*
X148988405Y-125943386D01*
X149070472Y-125789850D01*
X149121008Y-125623254D01*
X149138072Y-125450000D01*
X149138072Y-123639297D01*
X151337720Y-123639297D01*
X151337720Y-124360703D01*
X151478460Y-125068248D01*
X151754530Y-125734740D01*
X152155322Y-126334567D01*
X152665433Y-126844678D01*
X153265260Y-127245470D01*
X153931752Y-127521540D01*
X154639297Y-127662280D01*
X155360703Y-127662280D01*
X156068248Y-127521540D01*
X156734740Y-127245470D01*
X157334567Y-126844678D01*
X157844678Y-126334567D01*
X158245470Y-125734740D01*
X158521540Y-125068248D01*
X158662280Y-124360703D01*
X158662280Y-123639297D01*
X158521540Y-122931752D01*
X158245470Y-122265260D01*
X157844678Y-121665433D01*
X157334567Y-121155322D01*
X156734740Y-120754530D01*
X156068248Y-120478460D01*
X155360703Y-120337720D01*
X154639297Y-120337720D01*
X153931752Y-120478460D01*
X153265260Y-120754530D01*
X152665433Y-121155322D01*
X152155322Y-121665433D01*
X151754530Y-122265260D01*
X151478460Y-122931752D01*
X151337720Y-123639297D01*
X149138072Y-123639297D01*
X149138072Y-122350000D01*
X149121008Y-122176746D01*
X149070472Y-122010150D01*
X148988405Y-121856614D01*
X148877962Y-121722038D01*
X148743386Y-121611595D01*
X148589850Y-121529528D01*
X148423254Y-121478992D01*
X148250000Y-121461928D01*
X146950000Y-121461928D01*
X146776746Y-121478992D01*
X146610150Y-121529528D01*
X146456614Y-121611595D01*
X146322038Y-121722038D01*
X146211595Y-121856614D01*
X146129528Y-122010150D01*
X146078992Y-122176746D01*
X146061928Y-122350000D01*
X143911237Y-122350000D01*
X143889554Y-122295249D01*
X143725748Y-122041604D01*
X143515606Y-121824790D01*
X143267204Y-121653138D01*
X142990087Y-121533245D01*
X142884740Y-121508964D01*
X142647000Y-121629622D01*
X142393000Y-121629622D01*
X142155260Y-121508964D01*
X142049913Y-121533245D01*
X141772796Y-121653138D01*
X141524394Y-121824790D01*
X141314252Y-122041604D01*
X141150446Y-122295249D01*
X141039271Y-122575977D01*
X140985000Y-122873000D01*
X138975000Y-122873000D01*
X138920729Y-122575977D01*
X138809554Y-122295249D01*
X138645748Y-122041604D01*
X138435606Y-121824790D01*
X138187204Y-121653138D01*
X137910087Y-121533245D01*
X137804740Y-121508964D01*
X137567000Y-121629622D01*
X137313000Y-121629622D01*
X137075260Y-121508964D01*
X136969913Y-121533245D01*
X136692796Y-121653138D01*
X136444394Y-121824790D01*
X136234252Y-122041604D01*
X136070446Y-122295249D01*
X135959271Y-122575977D01*
X135905000Y-122873000D01*
X133889919Y-122873000D01*
X133872790Y-122699087D01*
X133785017Y-122409739D01*
X133642481Y-122143073D01*
X133450661Y-121909339D01*
X133216927Y-121717519D01*
X132950261Y-121574983D01*
X132660913Y-121487210D01*
X132360000Y-121457573D01*
X132059088Y-121487210D01*
X131769740Y-121574983D01*
X131503074Y-121717519D01*
X131269340Y-121909339D01*
X131077520Y-122143073D01*
X130934984Y-122409739D01*
X130847211Y-122699087D01*
X130825000Y-122924592D01*
X128518575Y-122924592D01*
X128245470Y-122265260D01*
X127844678Y-121665433D01*
X127334567Y-121155322D01*
X126734740Y-120754530D01*
X126068248Y-120478460D01*
X125360703Y-120337720D01*
X124639297Y-120337720D01*
X123931752Y-120478460D01*
X123265260Y-120754530D01*
X122665433Y-121155322D01*
X122155322Y-121665433D01*
X121754530Y-122265260D01*
X121478460Y-122931752D01*
X121337720Y-123639297D01*
X120660000Y-123639297D01*
X120660000Y-115302491D01*
X123415000Y-115302491D01*
X123415000Y-116097510D01*
X123443722Y-116389128D01*
X123557226Y-116763302D01*
X123741547Y-117108143D01*
X123989603Y-117410398D01*
X124291858Y-117658453D01*
X124636699Y-117842774D01*
X125010873Y-117956278D01*
X125400000Y-117994604D01*
X125789128Y-117956278D01*
X126163302Y-117842774D01*
X126508143Y-117658453D01*
X126810398Y-117410398D01*
X127058453Y-117108143D01*
X127242774Y-116763302D01*
X127356278Y-116389127D01*
X127385000Y-116097509D01*
X127385000Y-115302491D01*
X127615000Y-115302491D01*
X127615000Y-116097510D01*
X127643722Y-116389128D01*
X127757226Y-116763302D01*
X127941547Y-117108143D01*
X128189603Y-117410398D01*
X128491858Y-117658453D01*
X128836699Y-117842774D01*
X129210873Y-117956278D01*
X129600000Y-117994604D01*
X129989128Y-117956278D01*
X130363302Y-117842774D01*
X130708143Y-117658453D01*
X131010398Y-117410398D01*
X131258453Y-117108143D01*
X131442774Y-116763302D01*
X131556278Y-116389127D01*
X131585000Y-116097509D01*
X131585000Y-115302490D01*
X131556278Y-115010872D01*
X131442774Y-114636698D01*
X131258453Y-114291857D01*
X131010398Y-113989602D01*
X130708143Y-113741547D01*
X130363301Y-113557226D01*
X129989127Y-113443722D01*
X129600000Y-113405396D01*
X129210872Y-113443722D01*
X128836698Y-113557226D01*
X128491857Y-113741547D01*
X128189602Y-113989602D01*
X127941547Y-114291857D01*
X127757226Y-114636699D01*
X127643722Y-115010873D01*
X127615000Y-115302491D01*
X127385000Y-115302491D01*
X127385000Y-115302490D01*
X127356278Y-115010872D01*
X127242774Y-114636698D01*
X127058453Y-114291857D01*
X126810398Y-113989602D01*
X126508143Y-113741547D01*
X126163301Y-113557226D01*
X125789127Y-113443722D01*
X125400000Y-113405396D01*
X125010872Y-113443722D01*
X124636698Y-113557226D01*
X124291857Y-113741547D01*
X123989602Y-113989602D01*
X123741547Y-114291857D01*
X123557226Y-114636699D01*
X123443722Y-115010873D01*
X123415000Y-115302491D01*
X120660000Y-115302491D01*
X120660000Y-111850000D01*
X123411928Y-111850000D01*
X123424188Y-111974482D01*
X123460498Y-112094180D01*
X123519463Y-112204494D01*
X123598815Y-112301185D01*
X123695506Y-112380537D01*
X123805820Y-112439502D01*
X123925518Y-112475812D01*
X124050000Y-112488072D01*
X125114250Y-112485000D01*
X125273000Y-112326250D01*
X125273000Y-110327000D01*
X125527000Y-110327000D01*
X125527000Y-112326250D01*
X125685750Y-112485000D01*
X126750000Y-112488072D01*
X126874482Y-112475812D01*
X126994180Y-112439502D01*
X127104494Y-112380537D01*
X127201185Y-112301185D01*
X127280537Y-112204494D01*
X127339502Y-112094180D01*
X127375812Y-111974482D01*
X127388072Y-111850000D01*
X127385000Y-110485750D01*
X127226250Y-110327000D01*
X127615000Y-110327000D01*
X127615000Y-110627000D01*
X127677918Y-111011814D01*
X127814700Y-111376959D01*
X128020090Y-111708403D01*
X128286195Y-111993409D01*
X128602789Y-112221024D01*
X128957705Y-112382501D01*
X129164677Y-112436677D01*
X129473000Y-112321829D01*
X129473000Y-110327000D01*
X129727000Y-110327000D01*
X129727000Y-112321829D01*
X130035323Y-112436677D01*
X130242295Y-112382501D01*
X130597211Y-112221024D01*
X130913805Y-111993409D01*
X131179910Y-111708403D01*
X131385300Y-111376959D01*
X131522082Y-111011814D01*
X131585000Y-110627000D01*
X131585000Y-110327000D01*
X129727000Y-110327000D01*
X129473000Y-110327000D01*
X127615000Y-110327000D01*
X127226250Y-110327000D01*
X125527000Y-110327000D01*
X125273000Y-110327000D01*
X123573750Y-110327000D01*
X123415000Y-110485750D01*
X123411928Y-111850000D01*
X120660000Y-111850000D01*
X120660000Y-108550000D01*
X123411928Y-108550000D01*
X123415000Y-109914250D01*
X123573750Y-110073000D01*
X125273000Y-110073000D01*
X125273000Y-108073750D01*
X125527000Y-108073750D01*
X125527000Y-110073000D01*
X127226250Y-110073000D01*
X127385000Y-109914250D01*
X127385318Y-109773000D01*
X127615000Y-109773000D01*
X127615000Y-110073000D01*
X129473000Y-110073000D01*
X129473000Y-108078171D01*
X129727000Y-108078171D01*
X129727000Y-110073000D01*
X131585000Y-110073000D01*
X131585000Y-109773000D01*
X131522082Y-109388186D01*
X131385300Y-109023041D01*
X131179910Y-108691597D01*
X130913805Y-108406591D01*
X130597211Y-108178976D01*
X130242295Y-108017499D01*
X130035323Y-107963323D01*
X129727000Y-108078171D01*
X129473000Y-108078171D01*
X129164677Y-107963323D01*
X128957705Y-108017499D01*
X128602789Y-108178976D01*
X128286195Y-108406591D01*
X128020090Y-108691597D01*
X127814700Y-109023041D01*
X127677918Y-109388186D01*
X127615000Y-109773000D01*
X127385318Y-109773000D01*
X127388072Y-108550000D01*
X127375812Y-108425518D01*
X127339502Y-108305820D01*
X127280537Y-108195506D01*
X127201185Y-108098815D01*
X127104494Y-108019463D01*
X126994180Y-107960498D01*
X126874482Y-107924188D01*
X126750000Y-107911928D01*
X125685750Y-107915000D01*
X125527000Y-108073750D01*
X125273000Y-108073750D01*
X125114250Y-107915000D01*
X124050000Y-107911928D01*
X123925518Y-107924188D01*
X123805820Y-107960498D01*
X123695506Y-108019463D01*
X123598815Y-108098815D01*
X123519463Y-108195506D01*
X123460498Y-108305820D01*
X123424188Y-108425518D01*
X123411928Y-108550000D01*
X120660000Y-108550000D01*
X120660000Y-102727000D01*
X122765000Y-102727000D01*
X122765000Y-104227000D01*
X122821193Y-104543532D01*
X122938058Y-104843020D01*
X123111105Y-105113954D01*
X123333683Y-105345922D01*
X123597239Y-105530010D01*
X123891645Y-105659144D01*
X124019566Y-105690124D01*
X124273000Y-105570777D01*
X124273000Y-102727000D01*
X124527000Y-102727000D01*
X124527000Y-105570777D01*
X124780434Y-105690124D01*
X124908355Y-105659144D01*
X125202761Y-105530010D01*
X125466317Y-105345922D01*
X125688895Y-105113954D01*
X125861942Y-104843020D01*
X125978807Y-104543532D01*
X126035000Y-104227000D01*
X126035000Y-102727000D01*
X124527000Y-102727000D01*
X124273000Y-102727000D01*
X122765000Y-102727000D01*
X120660000Y-102727000D01*
X120660000Y-100973000D01*
X122765000Y-100973000D01*
X122765000Y-102473000D01*
X124273000Y-102473000D01*
X124273000Y-99629223D01*
X124527000Y-99629223D01*
X124527000Y-102473000D01*
X126035000Y-102473000D01*
X126035000Y-101073285D01*
X126082149Y-101228715D01*
X126233970Y-101512752D01*
X126438287Y-101761714D01*
X126687249Y-101966031D01*
X126971286Y-102117852D01*
X127279485Y-102211343D01*
X127600000Y-102242911D01*
X127920516Y-102211343D01*
X128228715Y-102117852D01*
X128512752Y-101966031D01*
X128761714Y-101761714D01*
X128966031Y-101512752D01*
X129117852Y-101228715D01*
X129211343Y-100920516D01*
X129235000Y-100680322D01*
X129235000Y-97519678D01*
X129211343Y-97279484D01*
X129117852Y-96971285D01*
X128966031Y-96687248D01*
X128761714Y-96438286D01*
X128512751Y-96233969D01*
X128228714Y-96082148D01*
X127920515Y-95988657D01*
X127600000Y-95957089D01*
X127279484Y-95988657D01*
X126971285Y-96082148D01*
X126687248Y-96233969D01*
X126438286Y-96438286D01*
X126233969Y-96687249D01*
X126082148Y-96971286D01*
X125988657Y-97279485D01*
X125965000Y-97519679D01*
X125965001Y-100621088D01*
X125861942Y-100356980D01*
X125688895Y-100086046D01*
X125466317Y-99854078D01*
X125202761Y-99669990D01*
X124908355Y-99540856D01*
X124780434Y-99509876D01*
X124527000Y-99629223D01*
X124273000Y-99629223D01*
X124019566Y-99509876D01*
X123891645Y-99540856D01*
X123597239Y-99669990D01*
X123333683Y-99854078D01*
X123111105Y-100086046D01*
X122938058Y-100356980D01*
X122821193Y-100656468D01*
X122765000Y-100973000D01*
X120660000Y-100973000D01*
X120660000Y-87300000D01*
X132465000Y-87300000D01*
X132465000Y-110700000D01*
X132477201Y-110823882D01*
X132513336Y-110943004D01*
X132572017Y-111052787D01*
X132650987Y-111149013D01*
X132747213Y-111227983D01*
X132856996Y-111286664D01*
X132976118Y-111322799D01*
X133100000Y-111335000D01*
X140800000Y-111335000D01*
X140923882Y-111322799D01*
X141043004Y-111286664D01*
X141152787Y-111227983D01*
X141249013Y-111149013D01*
X141327983Y-111052787D01*
X141386664Y-110943004D01*
X141422799Y-110823882D01*
X141435000Y-110700000D01*
X141435000Y-91835000D01*
X144089674Y-91835000D01*
X144077201Y-91876118D01*
X144065000Y-92000000D01*
X144065000Y-102000000D01*
X144077201Y-102123882D01*
X144113336Y-102243004D01*
X144172017Y-102352787D01*
X144250987Y-102449013D01*
X144347213Y-102527983D01*
X144456996Y-102586664D01*
X144576118Y-102622799D01*
X144700000Y-102635000D01*
X149200000Y-102635000D01*
X149323882Y-102622799D01*
X149443004Y-102586664D01*
X149552787Y-102527983D01*
X149649013Y-102449013D01*
X149727983Y-102352787D01*
X149786664Y-102243004D01*
X149822799Y-102123882D01*
X149835000Y-102000000D01*
X149835000Y-92000000D01*
X149822799Y-91876118D01*
X149786664Y-91756996D01*
X149765555Y-91717505D01*
X149849013Y-91649013D01*
X149927983Y-91552787D01*
X149986664Y-91443004D01*
X150022799Y-91323882D01*
X150035000Y-91200000D01*
X150035000Y-87300000D01*
X150022799Y-87176118D01*
X149986664Y-87056996D01*
X149927983Y-86947213D01*
X149849013Y-86850987D01*
X149752787Y-86772017D01*
X149643004Y-86713336D01*
X149523882Y-86677201D01*
X149400000Y-86665000D01*
X133100000Y-86665000D01*
X132976118Y-86677201D01*
X132856996Y-86713336D01*
X132747213Y-86772017D01*
X132650987Y-86850987D01*
X132572017Y-86947213D01*
X132513336Y-87056996D01*
X132477201Y-87176118D01*
X132465000Y-87300000D01*
X120660000Y-87300000D01*
X120660000Y-84700000D01*
X140259509Y-84700000D01*
X140281423Y-84922499D01*
X140346324Y-85136447D01*
X140451716Y-85333623D01*
X140593551Y-85506449D01*
X140766377Y-85648284D01*
X140963553Y-85753676D01*
X141177501Y-85818577D01*
X141344248Y-85835000D01*
X153857871Y-85835000D01*
X156865001Y-88842131D01*
X156865002Y-103729866D01*
X154158012Y-106436857D01*
X154051717Y-106566378D01*
X153946324Y-106763554D01*
X153881423Y-106977502D01*
X153859509Y-107200000D01*
X153881423Y-107422498D01*
X153946324Y-107636446D01*
X154051717Y-107833622D01*
X154193552Y-108006448D01*
X154366378Y-108148283D01*
X154563554Y-108253676D01*
X154777502Y-108318577D01*
X155000000Y-108340491D01*
X155222498Y-108318577D01*
X155436446Y-108253676D01*
X155633622Y-108148283D01*
X155763143Y-108041988D01*
X158763142Y-105041990D01*
X158806450Y-105006448D01*
X158948285Y-104833622D01*
X159053677Y-104636446D01*
X159118578Y-104422498D01*
X159135001Y-104255751D01*
X159140492Y-104200000D01*
X159135001Y-104144248D01*
X159135001Y-88427751D01*
X159140492Y-88371999D01*
X159118578Y-88149500D01*
X159053677Y-87935552D01*
X158948285Y-87738376D01*
X158915199Y-87698061D01*
X158806450Y-87565550D01*
X158763142Y-87530008D01*
X155169998Y-83936865D01*
X155134451Y-83893551D01*
X154961625Y-83751716D01*
X154764449Y-83646324D01*
X154550501Y-83581423D01*
X154383754Y-83565000D01*
X154383753Y-83565000D01*
X154328002Y-83559509D01*
X154272251Y-83565000D01*
X141344248Y-83565000D01*
X141177501Y-83581423D01*
X140963553Y-83646324D01*
X140766377Y-83751716D01*
X140593551Y-83893551D01*
X140451716Y-84066377D01*
X140346324Y-84263553D01*
X140281423Y-84477501D01*
X140259509Y-84700000D01*
X120660000Y-84700000D01*
X120660000Y-82160000D01*
X159340001Y-82160000D01*
X159340000Y-128340000D01*
%TA.AperFunction,Conductor*%
D16*
G36*
X159340000Y-128340000D02*
G01*
X120660000Y-128340000D01*
X120660000Y-123639297D01*
X121337720Y-123639297D01*
X121337720Y-124360703D01*
X121478460Y-125068248D01*
X121754530Y-125734740D01*
X122155322Y-126334567D01*
X122665433Y-126844678D01*
X123265260Y-127245470D01*
X123931752Y-127521540D01*
X124639297Y-127662280D01*
X125360703Y-127662280D01*
X126068248Y-127521540D01*
X126734740Y-127245470D01*
X127334567Y-126844678D01*
X127844678Y-126334567D01*
X128245470Y-125734740D01*
X128521540Y-125068248D01*
X128662280Y-124360703D01*
X128662280Y-123639297D01*
X128521540Y-122931752D01*
X128518575Y-122924592D01*
X130825000Y-122924592D01*
X130825000Y-124875407D01*
X130847210Y-125100912D01*
X130934983Y-125390260D01*
X131077519Y-125656926D01*
X131269339Y-125890661D01*
X131503073Y-126082481D01*
X131769739Y-126225017D01*
X132059087Y-126312790D01*
X132360000Y-126342427D01*
X132660912Y-126312790D01*
X132950260Y-126225017D01*
X133216926Y-126082481D01*
X133450661Y-125890661D01*
X133642481Y-125656927D01*
X133785017Y-125390261D01*
X133872790Y-125100913D01*
X133895000Y-124875408D01*
X133895000Y-124027000D01*
X135905000Y-124027000D01*
X135905000Y-124927000D01*
X135959271Y-125224023D01*
X136070446Y-125504751D01*
X136234252Y-125758396D01*
X136444394Y-125975210D01*
X136692796Y-126146862D01*
X136969913Y-126266755D01*
X137075260Y-126291036D01*
X137313000Y-126170378D01*
X137313000Y-124027000D01*
X137567000Y-124027000D01*
X137567000Y-126170378D01*
X137804740Y-126291036D01*
X137910087Y-126266755D01*
X138187204Y-126146862D01*
X138435606Y-125975210D01*
X138645748Y-125758396D01*
X138809554Y-125504751D01*
X138920729Y-125224023D01*
X138975000Y-124927000D01*
X138975000Y-124027000D01*
X140985000Y-124027000D01*
X140985000Y-124927000D01*
X141039271Y-125224023D01*
X141150446Y-125504751D01*
X141314252Y-125758396D01*
X141524394Y-125975210D01*
X141772796Y-126146862D01*
X142049913Y-126266755D01*
X142155260Y-126291036D01*
X142393000Y-126170378D01*
X142393000Y-124027000D01*
X142647000Y-124027000D01*
X142647000Y-126170378D01*
X142884740Y-126291036D01*
X142990087Y-126266755D01*
X143267204Y-126146862D01*
X143515606Y-125975210D01*
X143725748Y-125758396D01*
X143889554Y-125504751D01*
X144000729Y-125224023D01*
X144055000Y-124927000D01*
X144055000Y-124027000D01*
X142647000Y-124027000D01*
X142393000Y-124027000D01*
X140985000Y-124027000D01*
X138975000Y-124027000D01*
X137567000Y-124027000D01*
X137313000Y-124027000D01*
X135905000Y-124027000D01*
X133895000Y-124027000D01*
X133895000Y-122924592D01*
X133889919Y-122873000D01*
X135905000Y-122873000D01*
X135905000Y-123773000D01*
X137313000Y-123773000D01*
X137313000Y-121629622D01*
X137567000Y-121629622D01*
X137567000Y-123773000D01*
X138975000Y-123773000D01*
X138975000Y-122873000D01*
X140985000Y-122873000D01*
X140985000Y-123773000D01*
X142393000Y-123773000D01*
X142393000Y-121629622D01*
X142647000Y-121629622D01*
X142647000Y-123773000D01*
X144055000Y-123773000D01*
X144055000Y-122873000D01*
X144000729Y-122575977D01*
X143911237Y-122350000D01*
X146061928Y-122350000D01*
X146061928Y-125450000D01*
X146078992Y-125623254D01*
X146129528Y-125789850D01*
X146211595Y-125943386D01*
X146322038Y-126077962D01*
X146456614Y-126188405D01*
X146610150Y-126270472D01*
X146776746Y-126321008D01*
X146950000Y-126338072D01*
X148250000Y-126338072D01*
X148423254Y-126321008D01*
X148589850Y-126270472D01*
X148743386Y-126188405D01*
X148877962Y-126077962D01*
X148988405Y-125943386D01*
X149070472Y-125789850D01*
X149121008Y-125623254D01*
X149138072Y-125450000D01*
X149138072Y-123639297D01*
X151337720Y-123639297D01*
X151337720Y-124360703D01*
X151478460Y-125068248D01*
X151754530Y-125734740D01*
X152155322Y-126334567D01*
X152665433Y-126844678D01*
X153265260Y-127245470D01*
X153931752Y-127521540D01*
X154639297Y-127662280D01*
X155360703Y-127662280D01*
X156068248Y-127521540D01*
X156734740Y-127245470D01*
X157334567Y-126844678D01*
X157844678Y-126334567D01*
X158245470Y-125734740D01*
X158521540Y-125068248D01*
X158662280Y-124360703D01*
X158662280Y-123639297D01*
X158521540Y-122931752D01*
X158245470Y-122265260D01*
X157844678Y-121665433D01*
X157334567Y-121155322D01*
X156734740Y-120754530D01*
X156068248Y-120478460D01*
X155360703Y-120337720D01*
X154639297Y-120337720D01*
X153931752Y-120478460D01*
X153265260Y-120754530D01*
X152665433Y-121155322D01*
X152155322Y-121665433D01*
X151754530Y-122265260D01*
X151478460Y-122931752D01*
X151337720Y-123639297D01*
X149138072Y-123639297D01*
X149138072Y-122350000D01*
X149121008Y-122176746D01*
X149070472Y-122010150D01*
X148988405Y-121856614D01*
X148877962Y-121722038D01*
X148743386Y-121611595D01*
X148589850Y-121529528D01*
X148423254Y-121478992D01*
X148250000Y-121461928D01*
X146950000Y-121461928D01*
X146776746Y-121478992D01*
X146610150Y-121529528D01*
X146456614Y-121611595D01*
X146322038Y-121722038D01*
X146211595Y-121856614D01*
X146129528Y-122010150D01*
X146078992Y-122176746D01*
X146061928Y-122350000D01*
X143911237Y-122350000D01*
X143889554Y-122295249D01*
X143725748Y-122041604D01*
X143515606Y-121824790D01*
X143267204Y-121653138D01*
X142990087Y-121533245D01*
X142884740Y-121508964D01*
X142647000Y-121629622D01*
X142393000Y-121629622D01*
X142155260Y-121508964D01*
X142049913Y-121533245D01*
X141772796Y-121653138D01*
X141524394Y-121824790D01*
X141314252Y-122041604D01*
X141150446Y-122295249D01*
X141039271Y-122575977D01*
X140985000Y-122873000D01*
X138975000Y-122873000D01*
X138920729Y-122575977D01*
X138809554Y-122295249D01*
X138645748Y-122041604D01*
X138435606Y-121824790D01*
X138187204Y-121653138D01*
X137910087Y-121533245D01*
X137804740Y-121508964D01*
X137567000Y-121629622D01*
X137313000Y-121629622D01*
X137075260Y-121508964D01*
X136969913Y-121533245D01*
X136692796Y-121653138D01*
X136444394Y-121824790D01*
X136234252Y-122041604D01*
X136070446Y-122295249D01*
X135959271Y-122575977D01*
X135905000Y-122873000D01*
X133889919Y-122873000D01*
X133872790Y-122699087D01*
X133785017Y-122409739D01*
X133642481Y-122143073D01*
X133450661Y-121909339D01*
X133216927Y-121717519D01*
X132950261Y-121574983D01*
X132660913Y-121487210D01*
X132360000Y-121457573D01*
X132059088Y-121487210D01*
X131769740Y-121574983D01*
X131503074Y-121717519D01*
X131269340Y-121909339D01*
X131077520Y-122143073D01*
X130934984Y-122409739D01*
X130847211Y-122699087D01*
X130825000Y-122924592D01*
X128518575Y-122924592D01*
X128245470Y-122265260D01*
X127844678Y-121665433D01*
X127334567Y-121155322D01*
X126734740Y-120754530D01*
X126068248Y-120478460D01*
X125360703Y-120337720D01*
X124639297Y-120337720D01*
X123931752Y-120478460D01*
X123265260Y-120754530D01*
X122665433Y-121155322D01*
X122155322Y-121665433D01*
X121754530Y-122265260D01*
X121478460Y-122931752D01*
X121337720Y-123639297D01*
X120660000Y-123639297D01*
X120660000Y-115302491D01*
X123415000Y-115302491D01*
X123415000Y-116097510D01*
X123443722Y-116389128D01*
X123557226Y-116763302D01*
X123741547Y-117108143D01*
X123989603Y-117410398D01*
X124291858Y-117658453D01*
X124636699Y-117842774D01*
X125010873Y-117956278D01*
X125400000Y-117994604D01*
X125789128Y-117956278D01*
X126163302Y-117842774D01*
X126508143Y-117658453D01*
X126810398Y-117410398D01*
X127058453Y-117108143D01*
X127242774Y-116763302D01*
X127356278Y-116389127D01*
X127385000Y-116097509D01*
X127385000Y-115302491D01*
X127615000Y-115302491D01*
X127615000Y-116097510D01*
X127643722Y-116389128D01*
X127757226Y-116763302D01*
X127941547Y-117108143D01*
X128189603Y-117410398D01*
X128491858Y-117658453D01*
X128836699Y-117842774D01*
X129210873Y-117956278D01*
X129600000Y-117994604D01*
X129989128Y-117956278D01*
X130363302Y-117842774D01*
X130708143Y-117658453D01*
X131010398Y-117410398D01*
X131258453Y-117108143D01*
X131442774Y-116763302D01*
X131556278Y-116389127D01*
X131585000Y-116097509D01*
X131585000Y-115302490D01*
X131556278Y-115010872D01*
X131442774Y-114636698D01*
X131258453Y-114291857D01*
X131010398Y-113989602D01*
X130708143Y-113741547D01*
X130363301Y-113557226D01*
X129989127Y-113443722D01*
X129600000Y-113405396D01*
X129210872Y-113443722D01*
X128836698Y-113557226D01*
X128491857Y-113741547D01*
X128189602Y-113989602D01*
X127941547Y-114291857D01*
X127757226Y-114636699D01*
X127643722Y-115010873D01*
X127615000Y-115302491D01*
X127385000Y-115302491D01*
X127385000Y-115302490D01*
X127356278Y-115010872D01*
X127242774Y-114636698D01*
X127058453Y-114291857D01*
X126810398Y-113989602D01*
X126508143Y-113741547D01*
X126163301Y-113557226D01*
X125789127Y-113443722D01*
X125400000Y-113405396D01*
X125010872Y-113443722D01*
X124636698Y-113557226D01*
X124291857Y-113741547D01*
X123989602Y-113989602D01*
X123741547Y-114291857D01*
X123557226Y-114636699D01*
X123443722Y-115010873D01*
X123415000Y-115302491D01*
X120660000Y-115302491D01*
X120660000Y-111850000D01*
X123411928Y-111850000D01*
X123424188Y-111974482D01*
X123460498Y-112094180D01*
X123519463Y-112204494D01*
X123598815Y-112301185D01*
X123695506Y-112380537D01*
X123805820Y-112439502D01*
X123925518Y-112475812D01*
X124050000Y-112488072D01*
X125114250Y-112485000D01*
X125273000Y-112326250D01*
X125273000Y-110327000D01*
X125527000Y-110327000D01*
X125527000Y-112326250D01*
X125685750Y-112485000D01*
X126750000Y-112488072D01*
X126874482Y-112475812D01*
X126994180Y-112439502D01*
X127104494Y-112380537D01*
X127201185Y-112301185D01*
X127280537Y-112204494D01*
X127339502Y-112094180D01*
X127375812Y-111974482D01*
X127388072Y-111850000D01*
X127385000Y-110485750D01*
X127226250Y-110327000D01*
X127615000Y-110327000D01*
X127615000Y-110627000D01*
X127677918Y-111011814D01*
X127814700Y-111376959D01*
X128020090Y-111708403D01*
X128286195Y-111993409D01*
X128602789Y-112221024D01*
X128957705Y-112382501D01*
X129164677Y-112436677D01*
X129473000Y-112321829D01*
X129473000Y-110327000D01*
X129727000Y-110327000D01*
X129727000Y-112321829D01*
X130035323Y-112436677D01*
X130242295Y-112382501D01*
X130597211Y-112221024D01*
X130913805Y-111993409D01*
X131179910Y-111708403D01*
X131385300Y-111376959D01*
X131522082Y-111011814D01*
X131585000Y-110627000D01*
X131585000Y-110327000D01*
X129727000Y-110327000D01*
X129473000Y-110327000D01*
X127615000Y-110327000D01*
X127226250Y-110327000D01*
X125527000Y-110327000D01*
X125273000Y-110327000D01*
X123573750Y-110327000D01*
X123415000Y-110485750D01*
X123411928Y-111850000D01*
X120660000Y-111850000D01*
X120660000Y-108550000D01*
X123411928Y-108550000D01*
X123415000Y-109914250D01*
X123573750Y-110073000D01*
X125273000Y-110073000D01*
X125273000Y-108073750D01*
X125527000Y-108073750D01*
X125527000Y-110073000D01*
X127226250Y-110073000D01*
X127385000Y-109914250D01*
X127385318Y-109773000D01*
X127615000Y-109773000D01*
X127615000Y-110073000D01*
X129473000Y-110073000D01*
X129473000Y-108078171D01*
X129727000Y-108078171D01*
X129727000Y-110073000D01*
X131585000Y-110073000D01*
X131585000Y-109773000D01*
X131522082Y-109388186D01*
X131385300Y-109023041D01*
X131179910Y-108691597D01*
X130913805Y-108406591D01*
X130597211Y-108178976D01*
X130242295Y-108017499D01*
X130035323Y-107963323D01*
X129727000Y-108078171D01*
X129473000Y-108078171D01*
X129164677Y-107963323D01*
X128957705Y-108017499D01*
X128602789Y-108178976D01*
X128286195Y-108406591D01*
X128020090Y-108691597D01*
X127814700Y-109023041D01*
X127677918Y-109388186D01*
X127615000Y-109773000D01*
X127385318Y-109773000D01*
X127388072Y-108550000D01*
X127375812Y-108425518D01*
X127339502Y-108305820D01*
X127280537Y-108195506D01*
X127201185Y-108098815D01*
X127104494Y-108019463D01*
X126994180Y-107960498D01*
X126874482Y-107924188D01*
X126750000Y-107911928D01*
X125685750Y-107915000D01*
X125527000Y-108073750D01*
X125273000Y-108073750D01*
X125114250Y-107915000D01*
X124050000Y-107911928D01*
X123925518Y-107924188D01*
X123805820Y-107960498D01*
X123695506Y-108019463D01*
X123598815Y-108098815D01*
X123519463Y-108195506D01*
X123460498Y-108305820D01*
X123424188Y-108425518D01*
X123411928Y-108550000D01*
X120660000Y-108550000D01*
X120660000Y-102727000D01*
X122765000Y-102727000D01*
X122765000Y-104227000D01*
X122821193Y-104543532D01*
X122938058Y-104843020D01*
X123111105Y-105113954D01*
X123333683Y-105345922D01*
X123597239Y-105530010D01*
X123891645Y-105659144D01*
X124019566Y-105690124D01*
X124273000Y-105570777D01*
X124273000Y-102727000D01*
X124527000Y-102727000D01*
X124527000Y-105570777D01*
X124780434Y-105690124D01*
X124908355Y-105659144D01*
X125202761Y-105530010D01*
X125466317Y-105345922D01*
X125688895Y-105113954D01*
X125861942Y-104843020D01*
X125978807Y-104543532D01*
X126035000Y-104227000D01*
X126035000Y-102727000D01*
X124527000Y-102727000D01*
X124273000Y-102727000D01*
X122765000Y-102727000D01*
X120660000Y-102727000D01*
X120660000Y-100973000D01*
X122765000Y-100973000D01*
X122765000Y-102473000D01*
X124273000Y-102473000D01*
X124273000Y-99629223D01*
X124527000Y-99629223D01*
X124527000Y-102473000D01*
X126035000Y-102473000D01*
X126035000Y-101073285D01*
X126082149Y-101228715D01*
X126233970Y-101512752D01*
X126438287Y-101761714D01*
X126687249Y-101966031D01*
X126971286Y-102117852D01*
X127279485Y-102211343D01*
X127600000Y-102242911D01*
X127920516Y-102211343D01*
X128228715Y-102117852D01*
X128512752Y-101966031D01*
X128761714Y-101761714D01*
X128966031Y-101512752D01*
X129117852Y-101228715D01*
X129211343Y-100920516D01*
X129235000Y-100680322D01*
X129235000Y-97519678D01*
X129211343Y-97279484D01*
X129117852Y-96971285D01*
X128966031Y-96687248D01*
X128761714Y-96438286D01*
X128512751Y-96233969D01*
X128228714Y-96082148D01*
X127920515Y-95988657D01*
X127600000Y-95957089D01*
X127279484Y-95988657D01*
X126971285Y-96082148D01*
X126687248Y-96233969D01*
X126438286Y-96438286D01*
X126233969Y-96687249D01*
X126082148Y-96971286D01*
X125988657Y-97279485D01*
X125965000Y-97519679D01*
X125965001Y-100621088D01*
X125861942Y-100356980D01*
X125688895Y-100086046D01*
X125466317Y-99854078D01*
X125202761Y-99669990D01*
X124908355Y-99540856D01*
X124780434Y-99509876D01*
X124527000Y-99629223D01*
X124273000Y-99629223D01*
X124019566Y-99509876D01*
X123891645Y-99540856D01*
X123597239Y-99669990D01*
X123333683Y-99854078D01*
X123111105Y-100086046D01*
X122938058Y-100356980D01*
X122821193Y-100656468D01*
X122765000Y-100973000D01*
X120660000Y-100973000D01*
X120660000Y-87300000D01*
X132465000Y-87300000D01*
X132465000Y-110700000D01*
X132477201Y-110823882D01*
X132513336Y-110943004D01*
X132572017Y-111052787D01*
X132650987Y-111149013D01*
X132747213Y-111227983D01*
X132856996Y-111286664D01*
X132976118Y-111322799D01*
X133100000Y-111335000D01*
X140800000Y-111335000D01*
X140923882Y-111322799D01*
X141043004Y-111286664D01*
X141152787Y-111227983D01*
X141249013Y-111149013D01*
X141327983Y-111052787D01*
X141386664Y-110943004D01*
X141422799Y-110823882D01*
X141435000Y-110700000D01*
X141435000Y-91835000D01*
X144089674Y-91835000D01*
X144077201Y-91876118D01*
X144065000Y-92000000D01*
X144065000Y-102000000D01*
X144077201Y-102123882D01*
X144113336Y-102243004D01*
X144172017Y-102352787D01*
X144250987Y-102449013D01*
X144347213Y-102527983D01*
X144456996Y-102586664D01*
X144576118Y-102622799D01*
X144700000Y-102635000D01*
X149200000Y-102635000D01*
X149323882Y-102622799D01*
X149443004Y-102586664D01*
X149552787Y-102527983D01*
X149649013Y-102449013D01*
X149727983Y-102352787D01*
X149786664Y-102243004D01*
X149822799Y-102123882D01*
X149835000Y-102000000D01*
X149835000Y-92000000D01*
X149822799Y-91876118D01*
X149786664Y-91756996D01*
X149765555Y-91717505D01*
X149849013Y-91649013D01*
X149927983Y-91552787D01*
X149986664Y-91443004D01*
X150022799Y-91323882D01*
X150035000Y-91200000D01*
X150035000Y-87300000D01*
X150022799Y-87176118D01*
X149986664Y-87056996D01*
X149927983Y-86947213D01*
X149849013Y-86850987D01*
X149752787Y-86772017D01*
X149643004Y-86713336D01*
X149523882Y-86677201D01*
X149400000Y-86665000D01*
X133100000Y-86665000D01*
X132976118Y-86677201D01*
X132856996Y-86713336D01*
X132747213Y-86772017D01*
X132650987Y-86850987D01*
X132572017Y-86947213D01*
X132513336Y-87056996D01*
X132477201Y-87176118D01*
X132465000Y-87300000D01*
X120660000Y-87300000D01*
X120660000Y-84700000D01*
X140259509Y-84700000D01*
X140281423Y-84922499D01*
X140346324Y-85136447D01*
X140451716Y-85333623D01*
X140593551Y-85506449D01*
X140766377Y-85648284D01*
X140963553Y-85753676D01*
X141177501Y-85818577D01*
X141344248Y-85835000D01*
X153857871Y-85835000D01*
X156865001Y-88842131D01*
X156865002Y-103729866D01*
X154158012Y-106436857D01*
X154051717Y-106566378D01*
X153946324Y-106763554D01*
X153881423Y-106977502D01*
X153859509Y-107200000D01*
X153881423Y-107422498D01*
X153946324Y-107636446D01*
X154051717Y-107833622D01*
X154193552Y-108006448D01*
X154366378Y-108148283D01*
X154563554Y-108253676D01*
X154777502Y-108318577D01*
X155000000Y-108340491D01*
X155222498Y-108318577D01*
X155436446Y-108253676D01*
X155633622Y-108148283D01*
X155763143Y-108041988D01*
X158763142Y-105041990D01*
X158806450Y-105006448D01*
X158948285Y-104833622D01*
X159053677Y-104636446D01*
X159118578Y-104422498D01*
X159135001Y-104255751D01*
X159140492Y-104200000D01*
X159135001Y-104144248D01*
X159135001Y-88427751D01*
X159140492Y-88371999D01*
X159118578Y-88149500D01*
X159053677Y-87935552D01*
X158948285Y-87738376D01*
X158915199Y-87698061D01*
X158806450Y-87565550D01*
X158763142Y-87530008D01*
X155169998Y-83936865D01*
X155134451Y-83893551D01*
X154961625Y-83751716D01*
X154764449Y-83646324D01*
X154550501Y-83581423D01*
X154383754Y-83565000D01*
X154383753Y-83565000D01*
X154328002Y-83559509D01*
X154272251Y-83565000D01*
X141344248Y-83565000D01*
X141177501Y-83581423D01*
X140963553Y-83646324D01*
X140766377Y-83751716D01*
X140593551Y-83893551D01*
X140451716Y-84066377D01*
X140346324Y-84263553D01*
X140281423Y-84477501D01*
X140259509Y-84700000D01*
X120660000Y-84700000D01*
X120660000Y-82160000D01*
X159340001Y-82160000D01*
X159340000Y-128340000D01*
G37*
%TD.AperFunction*%
%TD*%
M02*
